<?xml version="1.0" encoding="UTF-8" standalone="no"?>
<!DOCTYPE svg PUBLIC "-//W3C//DTD SVG 1.1//EN"
 "http://www.w3.org/Graphics/SVG/1.1/DTD/svg11.dtd">
<!-- Generated by graphviz version 2.43.0 (0)
 -->
<!-- Title: G Pages: 1 -->
<svg width="779pt" height="620pt"
 viewBox="0.00 0.00 779.00 620.00" xmlns="http://www.w3.org/2000/svg" xmlns:xlink="http://www.w3.org/1999/xlink">
<g id="graph0" class="graph" transform="scale(1 1) rotate(0) translate(4 616)">
<title>G</title>
<polygon fill="white" stroke="transparent" points="-4,4 -4,-616 775,-616 775,4 -4,4"/>
<!-- :feature:activate -->
<g id="node1" class="node">
<title>:feature:activate</title>
<ellipse fill="none" stroke="black" cx="274" cy="-594" rx="87.18" ry="18"/>
<text text-anchor="middle" x="274" y="-590.3" font-family="Times,serif" font-size="14.00">:feature:activate</text>
</g>
<!-- :core:ui -->
<g id="node2" class="node">
<title>:core:ui</title>
<ellipse fill="none" stroke="black" cx="103" cy="-522" rx="45.49" ry="18"/>
<text text-anchor="middle" x="103" y="-518.3" font-family="Times,serif" font-size="14.00">:core:ui</text>
</g>
<!-- :feature:activate&#45;&gt;:core:ui -->
<g id="edge1" class="edge">
<title>:feature:activate&#45;&gt;:core:ui</title>
<path fill="none" stroke="red" stroke-width="2" d="M236.47,-577.64C208.86,-566.33 171.37,-550.99 143.16,-539.44"/>
<polygon fill="red" stroke="red" stroke-width="2" points="144.18,-536.07 133.59,-535.52 141.52,-542.55 144.18,-536.07"/>
</g>
<!-- :core:designsystem -->
<g id="node3" class="node">
<title>:core:designsystem</title>
<ellipse fill="none" stroke="black" cx="167" cy="-378" rx="100.98" ry="18"/>
<text text-anchor="middle" x="167" y="-374.3" font-family="Times,serif" font-size="14.00">:core:designsystem</text>
</g>
<!-- :feature:activate&#45;&gt;:core:designsystem -->
<g id="edge2" class="edge">
<title>:feature:activate&#45;&gt;:core:designsystem</title>
<path fill="none" stroke="black" d="M261.25,-576.02C244.22,-552.7 214.01,-508.99 195,-468 185.71,-447.98 178.38,-424.06 173.55,-406.06"/>
<polygon fill="black" stroke="black" points="176.9,-405.02 171,-396.22 170.12,-406.78 176.9,-405.02"/>
</g>
<!-- :core:common -->
<g id="node4" class="node">
<title>:core:common</title>
<ellipse fill="none" stroke="black" cx="421" cy="-90" rx="75.29" ry="18"/>
<text text-anchor="middle" x="421" y="-86.3" font-family="Times,serif" font-size="14.00">:core:common</text>
</g>
<!-- :feature:activate&#45;&gt;:core:common -->
<g id="edge3" class="edge">
<title>:feature:activate&#45;&gt;:core:common</title>
<path fill="none" stroke="black" d="M295.75,-576.33C324.62,-552.14 372,-504.32 372,-451 372,-451 372,-451 372,-233 372,-190.78 391.6,-145.16 406.01,-117.33"/>
<polygon fill="black" stroke="black" points="409.23,-118.74 410.85,-108.27 403.05,-115.44 409.23,-118.74"/>
</g>
<!-- :core:model -->
<g id="node5" class="node">
<title>:core:model</title>
<ellipse fill="none" stroke="black" cx="421" cy="-18" rx="64.99" ry="18"/>
<text text-anchor="middle" x="421" y="-14.3" font-family="Times,serif" font-size="14.00">:core:model</text>
</g>
<!-- :feature:activate&#45;&gt;:core:model -->
<g id="edge4" class="edge">
<title>:feature:activate&#45;&gt;:core:model</title>
<path fill="none" stroke="black" d="M189.48,-589.47C143.97,-583.79 89.11,-570.46 49,-540 13.04,-512.69 0,-496.15 0,-451 0,-451 0,-451 0,-161 0,-107.21 34.56,-97.35 82,-72 127,-47.96 263.54,-32.36 348.99,-24.67"/>
<polygon fill="black" stroke="black" points="349.49,-28.14 359.14,-23.77 348.87,-21.17 349.49,-28.14"/>
</g>
<!-- :core:data -->
<g id="node6" class="node">
<title>:core:data</title>
<ellipse fill="none" stroke="black" cx="472" cy="-378" rx="57.39" ry="18"/>
<text text-anchor="middle" x="472" y="-374.3" font-family="Times,serif" font-size="14.00">:core:data</text>
</g>
<!-- :feature:activate&#45;&gt;:core:data -->
<g id="edge5" class="edge">
<title>:feature:activate&#45;&gt;:core:data</title>
<path fill="none" stroke="black" d="M322.81,-579C344.53,-570.67 368.99,-558.11 386,-540 421.36,-502.33 402.87,-476.57 429,-432 434.81,-422.08 442.39,-412.07 449.57,-403.46"/>
<polygon fill="black" stroke="black" points="452.39,-405.55 456.25,-395.69 447.08,-400.99 452.39,-405.55"/>
</g>
<!-- :core:domain -->
<g id="node7" class="node">
<title>:core:domain</title>
<ellipse fill="none" stroke="black" cx="509" cy="-450" rx="70.69" ry="18"/>
<text text-anchor="middle" x="509" y="-446.3" font-family="Times,serif" font-size="14.00">:core:domain</text>
</g>
<!-- :feature:activate&#45;&gt;:core:domain -->
<g id="edge6" class="edge">
<title>:feature:activate&#45;&gt;:core:domain</title>
<path fill="none" stroke="black" d="M329.58,-580.09C359.15,-571.61 395.24,-558.6 424,-540 450.53,-522.84 474.77,-495.81 490.52,-476.04"/>
<polygon fill="black" stroke="black" points="493.35,-478.1 496.73,-468.06 487.82,-473.8 493.35,-478.1"/>
</g>
<!-- :core:ui&#45;&gt;:core:designsystem -->
<g id="edge7" class="edge">
<title>:core:ui&#45;&gt;:core:designsystem</title>
<path fill="none" stroke="black" d="M110.59,-504.15C121.55,-479.84 141.91,-434.66 154.94,-405.75"/>
<polygon fill="black" stroke="black" points="158.3,-406.82 159.22,-396.27 151.92,-403.95 158.3,-406.82"/>
</g>
<!-- :core:ui&#45;&gt;:core:model -->
<g id="edge8" class="edge">
<title>:core:ui&#45;&gt;:core:model</title>
<path fill="none" stroke="black" d="M89.85,-504.63C70.85,-479.3 38,-428.35 38,-379 38,-379 38,-379 38,-161 38,-94.04 246.44,-48.59 355.78,-29.36"/>
<polygon fill="black" stroke="black" points="356.46,-32.8 365.72,-27.64 355.27,-25.9 356.46,-32.8"/>
</g>
<!-- :core:testing -->
<g id="node8" class="node">
<title>:core:testing</title>
<ellipse fill="none" stroke="black" cx="274" cy="-450" rx="69.59" ry="18"/>
<text text-anchor="middle" x="274" y="-446.3" font-family="Times,serif" font-size="14.00">:core:testing</text>
</g>
<!-- :core:ui&#45;&gt;:core:testing -->
<g id="edge9" class="edge">
<title>:core:ui&#45;&gt;:core:testing</title>
<path fill="none" stroke="red" stroke-width="2" d="M133.57,-508.49C160.1,-497.63 198.85,-481.76 228.94,-469.45"/>
<polygon fill="red" stroke="red" stroke-width="2" points="230.44,-472.61 238.37,-465.59 227.79,-466.13 230.44,-472.61"/>
</g>
<!-- :core:common&#45;&gt;:core:model -->
<g id="edge18" class="edge">
<title>:core:common&#45;&gt;:core:model</title>
<path fill="none" stroke="red" stroke-width="2" d="M421,-71.7C421,-63.98 421,-54.71 421,-46.11"/>
<polygon fill="red" stroke="red" stroke-width="2" points="424.5,-46.1 421,-36.1 417.5,-46.1 424.5,-46.1"/>
</g>
<!-- :core:data&#45;&gt;:core:common -->
<g id="edge14" class="edge">
<title>:core:data&#45;&gt;:core:common</title>
<path fill="none" stroke="black" d="M468.96,-359.97C460.44,-312.19 436.27,-176.62 425.86,-118.27"/>
<polygon fill="black" stroke="black" points="429.29,-117.54 424.09,-108.31 422.4,-118.77 429.29,-117.54"/>
</g>
<!-- :core:datastore -->
<g id="node9" class="node">
<title>:core:datastore</title>
<ellipse fill="none" stroke="black" cx="557" cy="-162" rx="81.49" ry="18"/>
<text text-anchor="middle" x="557" y="-158.3" font-family="Times,serif" font-size="14.00">:core:datastore</text>
</g>
<!-- :core:data&#45;&gt;:core:datastore -->
<g id="edge15" class="edge">
<title>:core:data&#45;&gt;:core:datastore</title>
<path fill="none" stroke="black" d="M474.22,-359.88C476.92,-341.67 482.22,-312.21 491,-288 504.06,-252 525.73,-213.44 540.65,-188.82"/>
<polygon fill="black" stroke="black" points="543.75,-190.45 546.01,-180.1 537.79,-186.78 543.75,-190.45"/>
</g>
<!-- :core:network -->
<g id="node10" class="node">
<title>:core:network</title>
<ellipse fill="none" stroke="black" cx="575" cy="-306" rx="74.99" ry="18"/>
<text text-anchor="middle" x="575" y="-302.3" font-family="Times,serif" font-size="14.00">:core:network</text>
</g>
<!-- :core:data&#45;&gt;:core:network -->
<g id="edge16" class="edge">
<title>:core:data&#45;&gt;:core:network</title>
<path fill="none" stroke="red" stroke-width="2" d="M494.86,-361.46C508.96,-351.88 527.26,-339.44 542.82,-328.87"/>
<polygon fill="red" stroke="red" stroke-width="2" points="544.83,-331.74 551.13,-323.22 540.89,-325.95 544.83,-331.74"/>
</g>
<!-- :core:database -->
<g id="node11" class="node">
<title>:core:database</title>
<ellipse fill="none" stroke="black" cx="664" cy="-234" rx="78.79" ry="18"/>
<text text-anchor="middle" x="664" y="-230.3" font-family="Times,serif" font-size="14.00">:core:database</text>
</g>
<!-- :core:data&#45;&gt;:core:database -->
<g id="edge17" class="edge">
<title>:core:data&#45;&gt;:core:database</title>
<path fill="none" stroke="black" d="M522.67,-369.36C572,-360.79 641.96,-345.27 659,-324 672.71,-306.88 672.77,-281.43 670.1,-262.13"/>
<polygon fill="black" stroke="black" points="673.52,-261.4 668.4,-252.13 666.62,-262.57 673.52,-261.4"/>
</g>
<!-- :core:domain&#45;&gt;:core:model -->
<g id="edge28" class="edge">
<title>:core:domain&#45;&gt;:core:model</title>
<path fill="none" stroke="black" d="M573.09,-442.23C650.66,-430.08 771,-396.76 771,-307 771,-307 771,-307 771,-161 771,-99.58 583.61,-52.02 483.06,-30.92"/>
<polygon fill="black" stroke="black" points="483.52,-27.44 473.02,-28.84 482.1,-34.29 483.52,-27.44"/>
</g>
<!-- :core:domain&#45;&gt;:core:data -->
<g id="edge27" class="edge">
<title>:core:domain&#45;&gt;:core:data</title>
<path fill="none" stroke="black" d="M500.04,-432.05C495.73,-423.89 490.45,-413.91 485.65,-404.82"/>
<polygon fill="black" stroke="black" points="488.64,-402.99 480.87,-395.79 482.45,-406.27 488.64,-402.99"/>
</g>
<!-- :core:testing&#45;&gt;:core:designsystem -->
<g id="edge13" class="edge">
<title>:core:testing&#45;&gt;:core:designsystem</title>
<path fill="none" stroke="black" d="M249.72,-433.12C235.26,-423.65 216.68,-411.5 200.8,-401.11"/>
<polygon fill="black" stroke="black" points="202.58,-398.1 192.3,-395.55 198.75,-403.96 202.58,-398.1"/>
</g>
<!-- :core:testing&#45;&gt;:core:common -->
<g id="edge12" class="edge">
<title>:core:testing&#45;&gt;:core:common</title>
<path fill="none" stroke="black" d="M287.55,-432.21C295.06,-422.19 304.06,-408.94 310,-396 327.08,-358.76 334,-347.97 334,-307 334,-307 334,-307 334,-233 334,-192.03 335.98,-178.55 358,-144 365.53,-132.19 376.53,-121.65 387.24,-113.14"/>
<polygon fill="black" stroke="black" points="389.44,-115.87 395.31,-107.05 385.22,-110.28 389.44,-115.87"/>
</g>
<!-- :core:testing&#45;&gt;:core:model -->
<g id="edge11" class="edge">
<title>:core:testing&#45;&gt;:core:model</title>
<path fill="none" stroke="black" d="M278.45,-431.65C284.88,-405.02 296,-352.4 296,-307 296,-307 296,-307 296,-161 296,-117.45 308.29,-104.75 337,-72 348.77,-58.58 364.75,-47.35 379.62,-38.73"/>
<polygon fill="black" stroke="black" points="381.64,-41.61 388.69,-33.7 378.24,-35.49 381.64,-41.61"/>
</g>
<!-- :core:testing&#45;&gt;:core:data -->
<g id="edge10" class="edge">
<title>:core:testing&#45;&gt;:core:data</title>
<path fill="none" stroke="red" stroke-width="2" d="M313.59,-435C345.95,-423.56 391.74,-407.38 425.77,-395.34"/>
<polygon fill="red" stroke="red" stroke-width="2" points="427.22,-398.54 435.48,-391.91 424.89,-391.94 427.22,-398.54"/>
</g>
<!-- :core:datastore&#45;&gt;:core:common -->
<g id="edge20" class="edge">
<title>:core:datastore&#45;&gt;:core:common</title>
<path fill="none" stroke="red" stroke-width="2" d="M526.48,-145.29C506.97,-135.25 481.47,-122.12 460.43,-111.3"/>
<polygon fill="red" stroke="red" stroke-width="2" points="461.91,-108.12 451.42,-106.66 458.71,-114.35 461.91,-108.12"/>
</g>
<!-- :core:datastore&#45;&gt;:core:model -->
<g id="edge19" class="edge">
<title>:core:datastore&#45;&gt;:core:model</title>
<path fill="none" stroke="black" d="M550.05,-144C541.57,-124.82 525.77,-93.49 505,-72 492.5,-59.06 476.23,-47.87 461.35,-39.14"/>
<polygon fill="black" stroke="black" points="462.73,-35.9 452.3,-34.03 459.29,-42 462.73,-35.9"/>
</g>
<!-- :core:network&#45;&gt;:core:common -->
<g id="edge23" class="edge">
<title>:core:network&#45;&gt;:core:common</title>
<path fill="none" stroke="black" d="M558.24,-288.26C535.72,-265.21 495.28,-221.81 467,-180 453.45,-159.97 441.05,-135.45 432.55,-117.22"/>
<polygon fill="black" stroke="black" points="435.7,-115.7 428.36,-108.07 429.34,-118.62 435.7,-115.7"/>
</g>
<!-- :core:network&#45;&gt;:core:datastore -->
<g id="edge22" class="edge">
<title>:core:network&#45;&gt;:core:datastore</title>
<path fill="none" stroke="black" d="M572.83,-287.87C569.76,-263.67 564.13,-219.21 560.47,-190.39"/>
<polygon fill="black" stroke="black" points="563.91,-189.67 559.18,-180.19 556.96,-190.55 563.91,-189.67"/>
</g>
<!-- :core:network&#45;&gt;:core:database -->
<g id="edge21" class="edge">
<title>:core:network&#45;&gt;:core:database</title>
<path fill="none" stroke="red" stroke-width="2" d="M596.09,-288.41C607.73,-279.26 622.35,-267.76 635.05,-257.77"/>
<polygon fill="red" stroke="red" stroke-width="2" points="637.36,-260.4 643.06,-251.47 633.04,-254.9 637.36,-260.4"/>
</g>
<!-- :core:database&#45;&gt;:core:common -->
<g id="edge24" class="edge">
<title>:core:database&#45;&gt;:core:common</title>
<path fill="none" stroke="black" d="M665.82,-215.8C666.92,-195.83 665.4,-163.19 647,-144 626.47,-122.6 554.86,-108.29 497.68,-99.99"/>
<polygon fill="black" stroke="black" points="497.94,-96.49 487.55,-98.56 496.96,-103.42 497.94,-96.49"/>
</g>
<!-- :core:database&#45;&gt;:core:model -->
<g id="edge25" class="edge">
<title>:core:database&#45;&gt;:core:model</title>
<path fill="none" stroke="black" d="M670.36,-215.88C676.26,-196.87 682.32,-165.97 669,-144 629.31,-78.52 543.42,-46.18 483.93,-31.06"/>
<polygon fill="black" stroke="black" points="484.43,-27.57 473.88,-28.6 482.77,-34.37 484.43,-27.57"/>
</g>
<!-- :core:database&#45;&gt;:core:datastore -->
<g id="edge26" class="edge">
<title>:core:database&#45;&gt;:core:datastore</title>
<path fill="none" stroke="red" stroke-width="2" d="M639.18,-216.76C624.7,-207.29 606.24,-195.21 590.49,-184.91"/>
<polygon fill="red" stroke="red" stroke-width="2" points="592.34,-181.94 582.05,-179.39 588.51,-187.79 592.34,-181.94"/>
</g>
</g>
</svg>
