<?xml version="1.0" encoding="UTF-8" standalone="no"?>
<!DOCTYPE svg PUBLIC "-//W3C//DTD SVG 1.1//EN"
 "http://www.w3.org/Graphics/SVG/1.1/DTD/svg11.dtd">
<!-- Generated by graphviz version 2.43.0 (0)
 -->
<!-- Title: G Pages: 1 -->
<svg width="4289pt" height="764pt"
 viewBox="0.00 0.00 4288.99 764.00" xmlns="http://www.w3.org/2000/svg" xmlns:xlink="http://www.w3.org/1999/xlink">
<g id="graph0" class="graph" transform="scale(1 1) rotate(0) translate(4 760)">
<title>G</title>
<polygon fill="white" stroke="transparent" points="-4,4 -4,-760 4284.99,-760 4284.99,4 -4,4"/>
<!-- :mifosng&#45;android -->
<g id="node1" class="node">
<title>:mifosng&#45;android</title>
<ellipse fill="none" stroke="black" cx="2121" cy="-738" rx="89.08" ry="18"/>
<text text-anchor="middle" x="2121" y="-734.3" font-family="Times,serif" font-size="14.00">:mifosng&#45;android</text>
</g>
<!-- :feature:offline -->
<g id="node2" class="node">
<title>:feature:offline</title>
<ellipse fill="none" stroke="black" cx="107" cy="-594" rx="79.09" ry="18"/>
<text text-anchor="middle" x="107" y="-590.3" font-family="Times,serif" font-size="14.00">:feature:offline</text>
</g>
<!-- :mifosng&#45;android&#45;&gt;:feature:offline -->
<g id="edge1" class="edge">
<title>:mifosng&#45;android&#45;&gt;:feature:offline</title>
<path fill="none" stroke="black" d="M2032.41,-736.03C1696.74,-732.12 513.75,-716.19 348,-684 275.09,-669.84 195.06,-636.44 148.02,-614.83"/>
<polygon fill="black" stroke="black" points="149.32,-611.57 138.78,-610.54 146.38,-617.92 149.32,-611.57"/>
</g>
<!-- :feature:savings -->
<g id="node3" class="node">
<title>:feature:savings</title>
<ellipse fill="none" stroke="black" cx="1342" cy="-594" rx="85.29" ry="18"/>
<text text-anchor="middle" x="1342" y="-590.3" font-family="Times,serif" font-size="14.00">:feature:savings</text>
</g>
<!-- :mifosng&#45;android&#45;&gt;:feature:savings -->
<g id="edge2" class="edge">
<title>:mifosng&#45;android&#45;&gt;:feature:savings</title>
<path fill="none" stroke="black" d="M2041.61,-729.69C1957.21,-721.28 1820.04,-705.77 1703,-684 1594.96,-663.9 1470.97,-631.18 1400.02,-611.5"/>
<polygon fill="black" stroke="black" points="1400.94,-608.13 1390.37,-608.82 1399.06,-614.87 1400.94,-608.13"/>
</g>
<!-- :feature:note -->
<g id="node4" class="node">
<title>:feature:note</title>
<ellipse fill="none" stroke="black" cx="2060" cy="-594" rx="70.69" ry="18"/>
<text text-anchor="middle" x="2060" y="-590.3" font-family="Times,serif" font-size="14.00">:feature:note</text>
</g>
<!-- :mifosng&#45;android&#45;&gt;:feature:note -->
<g id="edge3" class="edge">
<title>:mifosng&#45;android&#45;&gt;:feature:note</title>
<path fill="none" stroke="black" d="M2113.64,-719.87C2103.15,-695.46 2083.81,-650.43 2071.44,-621.64"/>
<polygon fill="black" stroke="black" points="2074.55,-620 2067.38,-612.19 2068.12,-622.76 2074.55,-620"/>
</g>
<!-- :feature:auth -->
<g id="node5" class="node">
<title>:feature:auth</title>
<ellipse fill="none" stroke="black" cx="2622" cy="-594" rx="71.49" ry="18"/>
<text text-anchor="middle" x="2622" y="-590.3" font-family="Times,serif" font-size="14.00">:feature:auth</text>
</g>
<!-- :mifosng&#45;android&#45;&gt;:feature:auth -->
<g id="edge4" class="edge">
<title>:mifosng&#45;android&#45;&gt;:feature:auth</title>
<path fill="none" stroke="black" d="M2170.41,-723C2264.32,-696.38 2468,-638.65 2566.47,-610.74"/>
<polygon fill="black" stroke="black" points="2567.57,-614.07 2576.24,-607.97 2565.66,-607.33 2567.57,-614.07"/>
</g>
<!-- :feature:client -->
<g id="node6" class="node">
<title>:feature:client</title>
<ellipse fill="none" stroke="black" cx="3389" cy="-666" rx="76.09" ry="18"/>
<text text-anchor="middle" x="3389" y="-662.3" font-family="Times,serif" font-size="14.00">:feature:client</text>
</g>
<!-- :mifosng&#45;android&#45;&gt;:feature:client -->
<g id="edge5" class="edge">
<title>:mifosng&#45;android&#45;&gt;:feature:client</title>
<path fill="none" stroke="red" stroke-width="2" d="M2207.75,-733.77C2389.97,-726.74 2825.9,-708.71 3191,-684 3230.17,-681.35 3273.65,-677.7 3309.85,-674.45"/>
<polygon fill="red" stroke="red" stroke-width="2" points="3310.22,-677.94 3319.86,-673.55 3309.59,-670.96 3310.22,-677.94"/>
</g>
<!-- :feature:checker&#45;inbox&#45;task -->
<g id="node7" class="node">
<title>:feature:checker&#45;inbox&#45;task</title>
<ellipse fill="none" stroke="black" cx="1759" cy="-594" rx="136.48" ry="18"/>
<text text-anchor="middle" x="1759" y="-590.3" font-family="Times,serif" font-size="14.00">:feature:checker&#45;inbox&#45;task</text>
</g>
<!-- :mifosng&#45;android&#45;&gt;:feature:checker&#45;inbox&#45;task -->
<g id="edge6" class="edge">
<title>:mifosng&#45;android&#45;&gt;:feature:checker&#45;inbox&#45;task</title>
<path fill="none" stroke="black" d="M2055.43,-725.73C2012.73,-717.16 1956.37,-703.48 1909,-684 1865.86,-666.25 1820.32,-637.63 1790.89,-617.66"/>
<polygon fill="black" stroke="black" points="1792.52,-614.53 1782.29,-611.75 1788.56,-620.3 1792.52,-614.53"/>
</g>
<!-- :feature:collectionSheet -->
<g id="node8" class="node">
<title>:feature:collectionSheet</title>
<ellipse fill="none" stroke="black" cx="745" cy="-594" rx="121.58" ry="18"/>
<text text-anchor="middle" x="745" y="-590.3" font-family="Times,serif" font-size="14.00">:feature:collectionSheet</text>
</g>
<!-- :mifosng&#45;android&#45;&gt;:feature:collectionSheet -->
<g id="edge7" class="edge">
<title>:mifosng&#45;android&#45;&gt;:feature:collectionSheet</title>
<path fill="none" stroke="black" d="M2032.4,-735.93C1766.92,-732.33 989.59,-718.92 881,-684 838.82,-670.44 797.22,-640.03 771.36,-618.55"/>
<polygon fill="black" stroke="black" points="773.43,-615.71 763.53,-611.92 768.9,-621.05 773.43,-615.71"/>
</g>
<!-- :feature:groups -->
<g id="node9" class="node">
<title>:feature:groups</title>
<ellipse fill="none" stroke="black" cx="2450" cy="-594" rx="82.59" ry="18"/>
<text text-anchor="middle" x="2450" y="-590.3" font-family="Times,serif" font-size="14.00">:feature:groups</text>
</g>
<!-- :mifosng&#45;android&#45;&gt;:feature:groups -->
<g id="edge8" class="edge">
<title>:mifosng&#45;android&#45;&gt;:feature:groups</title>
<path fill="none" stroke="black" d="M2157.15,-721.4C2217.61,-695.3 2339.08,-642.88 2404.98,-614.43"/>
<polygon fill="black" stroke="black" points="2406.5,-617.59 2414.29,-610.41 2403.72,-611.16 2406.5,-617.59"/>
</g>
<!-- :feature:settings -->
<g id="node10" class="node">
<title>:feature:settings</title>
<ellipse fill="none" stroke="black" cx="3273" cy="-594" rx="87.99" ry="18"/>
<text text-anchor="middle" x="3273" y="-590.3" font-family="Times,serif" font-size="14.00">:feature:settings</text>
</g>
<!-- :mifosng&#45;android&#45;&gt;:feature:settings -->
<g id="edge9" class="edge">
<title>:mifosng&#45;android&#45;&gt;:feature:settings</title>
<path fill="none" stroke="black" d="M2199.62,-729.43C2298.34,-719.75 2472.87,-702.08 2622,-684 2828.52,-658.96 3071.18,-624.43 3193.68,-606.64"/>
<polygon fill="black" stroke="black" points="3194.33,-610.08 3203.72,-605.18 3193.32,-603.15 3194.33,-610.08"/>
</g>
<!-- :feature:center -->
<g id="node11" class="node">
<title>:feature:center</title>
<ellipse fill="none" stroke="black" cx="3747" cy="-594" rx="79.89" ry="18"/>
<text text-anchor="middle" x="3747" y="-590.3" font-family="Times,serif" font-size="14.00">:feature:center</text>
</g>
<!-- :mifosng&#45;android&#45;&gt;:feature:center -->
<g id="edge10" class="edge">
<title>:mifosng&#45;android&#45;&gt;:feature:center</title>
<path fill="none" stroke="black" d="M2209.98,-737.16C2474.4,-737.05 3252.44,-732.51 3501,-684 3575.18,-669.52 3656.86,-636.26 3704.95,-614.75"/>
<polygon fill="black" stroke="black" points="3706.44,-617.92 3714.11,-610.62 3703.56,-611.54 3706.44,-617.92"/>
</g>
<!-- :feature:about -->
<g id="node12" class="node">
<title>:feature:about</title>
<ellipse fill="none" stroke="black" cx="529" cy="-594" rx="76.89" ry="18"/>
<text text-anchor="middle" x="529" y="-590.3" font-family="Times,serif" font-size="14.00">:feature:about</text>
</g>
<!-- :mifosng&#45;android&#45;&gt;:feature:about -->
<g id="edge11" class="edge">
<title>:mifosng&#45;android&#45;&gt;:feature:about</title>
<path fill="none" stroke="black" d="M2032.04,-736.48C1776.85,-734.51 1045.59,-725.31 810,-684 724.89,-669.08 629.8,-635.12 574.92,-613.73"/>
<polygon fill="black" stroke="black" points="576.07,-610.42 565.49,-610.02 573.51,-616.93 576.07,-610.42"/>
</g>
<!-- :feature:report -->
<g id="node13" class="node">
<title>:feature:report</title>
<ellipse fill="none" stroke="black" cx="1160" cy="-594" rx="79.09" ry="18"/>
<text text-anchor="middle" x="1160" y="-590.3" font-family="Times,serif" font-size="14.00">:feature:report</text>
</g>
<!-- :mifosng&#45;android&#45;&gt;:feature:report -->
<g id="edge12" class="edge">
<title>:mifosng&#45;android&#45;&gt;:feature:report</title>
<path fill="none" stroke="black" d="M2035.22,-732.95C1921.29,-726.71 1714.02,-712.38 1539,-684 1423.83,-665.33 1291.64,-631.37 1217.76,-611.23"/>
<polygon fill="black" stroke="black" points="1218.3,-607.75 1207.73,-608.48 1216.45,-614.5 1218.3,-607.75"/>
</g>
<!-- :feature:path&#45;tracking -->
<g id="node14" class="node">
<title>:feature:path&#45;tracking</title>
<ellipse fill="none" stroke="black" cx="2824" cy="-594" rx="112.38" ry="18"/>
<text text-anchor="middle" x="2824" y="-590.3" font-family="Times,serif" font-size="14.00">:feature:path&#45;tracking</text>
</g>
<!-- :mifosng&#45;android&#45;&gt;:feature:path&#45;tracking -->
<g id="edge13" class="edge">
<title>:mifosng&#45;android&#45;&gt;:feature:path&#45;tracking</title>
<path fill="none" stroke="black" d="M2181.82,-724.82C2235.34,-714.1 2315.35,-698.05 2385,-684 2512.17,-658.34 2660.02,-628.33 2747.59,-610.54"/>
<polygon fill="black" stroke="black" points="2748.34,-613.96 2757.44,-608.53 2746.95,-607.1 2748.34,-613.96"/>
</g>
<!-- :feature:activate -->
<g id="node15" class="node">
<title>:feature:activate</title>
<ellipse fill="none" stroke="black" cx="3042" cy="-594" rx="87.18" ry="18"/>
<text text-anchor="middle" x="3042" y="-590.3" font-family="Times,serif" font-size="14.00">:feature:activate</text>
</g>
<!-- :mifosng&#45;android&#45;&gt;:feature:activate -->
<g id="edge14" class="edge">
<title>:mifosng&#45;android&#45;&gt;:feature:activate</title>
<path fill="none" stroke="black" d="M2191.64,-726.94C2334.25,-706.49 2666.64,-658.08 2945,-612 2952.59,-610.74 2960.51,-609.4 2968.41,-608.05"/>
<polygon fill="black" stroke="black" points="2969.11,-611.48 2978.37,-606.33 2967.92,-604.58 2969.11,-611.48"/>
</g>
<!-- :feature:loan -->
<g id="node16" class="node">
<title>:feature:loan</title>
<ellipse fill="none" stroke="black" cx="993" cy="-594" rx="69.59" ry="18"/>
<text text-anchor="middle" x="993" y="-590.3" font-family="Times,serif" font-size="14.00">:feature:loan</text>
</g>
<!-- :mifosng&#45;android&#45;&gt;:feature:loan -->
<g id="edge15" class="edge">
<title>:mifosng&#45;android&#45;&gt;:feature:loan</title>
<path fill="none" stroke="black" d="M2032.67,-735.43C1891.47,-731.89 1606.53,-720.45 1368,-684 1252.23,-666.31 1119.48,-631.21 1047.08,-610.77"/>
<polygon fill="black" stroke="black" points="1047.85,-607.35 1037.27,-607.99 1045.94,-614.09 1047.85,-607.35"/>
</g>
<!-- :feature:document -->
<g id="node17" class="node">
<title>:feature:document</title>
<ellipse fill="none" stroke="black" cx="300" cy="-594" rx="96.38" ry="18"/>
<text text-anchor="middle" x="300" y="-590.3" font-family="Times,serif" font-size="14.00">:feature:document</text>
</g>
<!-- :mifosng&#45;android&#45;&gt;:feature:document -->
<g id="edge16" class="edge">
<title>:mifosng&#45;android&#45;&gt;:feature:document</title>
<path fill="none" stroke="black" d="M2032.4,-735.82C1692.42,-731.1 486.53,-712.42 410,-684 374.31,-670.75 341.52,-640.92 321.2,-619.45"/>
<polygon fill="black" stroke="black" points="323.65,-616.94 314.29,-611.96 318.5,-621.69 323.65,-616.94"/>
</g>
<!-- :feature:data&#45;table -->
<g id="node18" class="node">
<title>:feature:data&#45;table</title>
<ellipse fill="none" stroke="black" cx="3514" cy="-594" rx="96.68" ry="18"/>
<text text-anchor="middle" x="3514" y="-590.3" font-family="Times,serif" font-size="14.00">:feature:data&#45;table</text>
</g>
<!-- :mifosng&#45;android&#45;&gt;:feature:data&#45;table -->
<g id="edge17" class="edge">
<title>:mifosng&#45;android&#45;&gt;:feature:data&#45;table</title>
<path fill="none" stroke="black" d="M2209.71,-736.08C2502.37,-732.71 3421.62,-719.36 3474,-684 3494.66,-670.05 3504.78,-642.74 3509.66,-622.03"/>
<polygon fill="black" stroke="black" points="3513.1,-622.7 3511.71,-612.19 3506.24,-621.27 3513.1,-622.7"/>
</g>
<!-- :feature:search -->
<g id="node19" class="node">
<title>:feature:search</title>
<ellipse fill="none" stroke="black" cx="2268" cy="-594" rx="81.49" ry="18"/>
<text text-anchor="middle" x="2268" y="-590.3" font-family="Times,serif" font-size="14.00">:feature:search</text>
</g>
<!-- :mifosng&#45;android&#45;&gt;:feature:search -->
<g id="edge18" class="edge">
<title>:mifosng&#45;android&#45;&gt;:feature:search</title>
<path fill="none" stroke="black" d="M2138.44,-720.15C2164.41,-695.07 2213.37,-647.77 2243.1,-619.05"/>
<polygon fill="black" stroke="black" points="2245.82,-621.29 2250.58,-611.82 2240.96,-616.26 2245.82,-621.29"/>
</g>
<!-- :feature:splash -->
<g id="node20" class="node">
<title>:feature:splash</title>
<ellipse fill="none" stroke="black" cx="1525" cy="-594" rx="79.89" ry="18"/>
<text text-anchor="middle" x="1525" y="-590.3" font-family="Times,serif" font-size="14.00">:feature:splash</text>
</g>
<!-- :mifosng&#45;android&#45;&gt;:feature:splash -->
<g id="edge19" class="edge">
<title>:mifosng&#45;android&#45;&gt;:feature:splash</title>
<path fill="none" stroke="black" d="M2053.25,-726.26C1995.27,-716.63 1909.73,-701.36 1836,-684 1744.99,-662.57 1640.83,-631.37 1579.1,-612.17"/>
<polygon fill="black" stroke="black" points="1579.79,-608.72 1569.2,-609.08 1577.7,-615.4 1579.79,-608.72"/>
</g>
<!-- :libs:mifos&#45;passcode -->
<g id="node21" class="node">
<title>:libs:mifos&#45;passcode</title>
<ellipse fill="none" stroke="black" cx="4177" cy="-666" rx="103.98" ry="18"/>
<text text-anchor="middle" x="4177" y="-662.3" font-family="Times,serif" font-size="14.00">:libs:mifos&#45;passcode</text>
</g>
<!-- :mifosng&#45;android&#45;&gt;:libs:mifos&#45;passcode -->
<g id="edge20" class="edge">
<title>:mifosng&#45;android&#45;&gt;:libs:mifos&#45;passcode</title>
<path fill="none" stroke="black" d="M2209.7,-735.94C2539.19,-731.79 3692.51,-715.31 4059,-684 4070.32,-683.03 4082.22,-681.7 4093.92,-680.2"/>
<polygon fill="black" stroke="black" points="4094.68,-683.63 4104.13,-678.84 4093.76,-676.69 4094.68,-683.63"/>
</g>
<!-- :core:common -->
<g id="node22" class="node">
<title>:core:common</title>
<ellipse fill="none" stroke="black" cx="2147" cy="-90" rx="75.29" ry="18"/>
<text text-anchor="middle" x="2147" y="-86.3" font-family="Times,serif" font-size="14.00">:core:common</text>
</g>
<!-- :mifosng&#45;android&#45;&gt;:core:common -->
<g id="edge21" class="edge">
<title>:mifosng&#45;android&#45;&gt;:core:common</title>
<path fill="none" stroke="black" d="M2031.71,-737.81C1865,-738.02 1495.57,-732.35 1189,-684 1064.2,-664.32 991.2,-712.01 914,-612 904.22,-599.33 906.68,-590.23 914,-576 989.6,-429.11 1363.94,-200.98 1519,-144 1616.35,-108.23 1913.9,-96.37 2061.76,-92.63"/>
<polygon fill="black" stroke="black" points="2062.23,-96.12 2072.14,-92.37 2062.06,-89.12 2062.23,-96.12"/>
</g>
<!-- :core:ui -->
<g id="node23" class="node">
<title>:core:ui</title>
<ellipse fill="none" stroke="black" cx="1873" cy="-522" rx="45.49" ry="18"/>
<text text-anchor="middle" x="1873" y="-518.3" font-family="Times,serif" font-size="14.00">:core:ui</text>
</g>
<!-- :mifosng&#45;android&#45;&gt;:core:ui -->
<g id="edge22" class="edge">
<title>:mifosng&#45;android&#45;&gt;:core:ui</title>
<path fill="none" stroke="black" d="M2090.95,-720.98C2052.46,-699.54 1985.01,-658.74 1937,-612 1917.43,-592.95 1899.69,-567.28 1887.88,-548.41"/>
<polygon fill="black" stroke="black" points="1890.78,-546.45 1882.57,-539.75 1884.81,-550.11 1890.78,-546.45"/>
</g>
<!-- :core:designsystem -->
<g id="node24" class="node">
<title>:core:designsystem</title>
<ellipse fill="none" stroke="black" cx="1712" cy="-378" rx="100.98" ry="18"/>
<text text-anchor="middle" x="1712" y="-374.3" font-family="Times,serif" font-size="14.00">:core:designsystem</text>
</g>
<!-- :mifosng&#45;android&#45;&gt;:core:designsystem -->
<g id="edge23" class="edge">
<title>:mifosng&#45;android&#45;&gt;:core:designsystem</title>
<path fill="none" stroke="black" d="M2031.7,-736.83C1758.56,-735.8 936.96,-728.97 674,-684 568,-665.87 506.73,-698.62 443,-612 433.52,-599.11 433.27,-588.7 443,-576 447.68,-569.89 970.41,-433.28 978,-432 1197.13,-394.95 1457.36,-383.78 1601.66,-380.42"/>
<polygon fill="black" stroke="black" points="1601.93,-383.92 1611.85,-380.2 1601.77,-376.92 1601.93,-383.92"/>
</g>
<!-- :core:data -->
<g id="node25" class="node">
<title>:core:data</title>
<ellipse fill="none" stroke="black" cx="2442" cy="-378" rx="57.39" ry="18"/>
<text text-anchor="middle" x="2442" y="-374.3" font-family="Times,serif" font-size="14.00">:core:data</text>
</g>
<!-- :mifosng&#45;android&#45;&gt;:core:data -->
<g id="edge24" class="edge">
<title>:mifosng&#45;android&#45;&gt;:core:data</title>
<path fill="none" stroke="black" d="M2210.06,-736.44C2483.46,-734.29 3308.22,-724.52 3573,-684 3692.8,-665.67 3762.48,-708.35 3836,-612 4002.68,-393.55 2810.72,-378.99 2509.84,-378.77"/>
<polygon fill="black" stroke="black" points="2509.51,-375.27 2499.51,-378.77 2509.51,-382.27 2509.51,-375.27"/>
</g>
<!-- :core:model -->
<g id="node26" class="node">
<title>:core:model</title>
<ellipse fill="none" stroke="black" cx="1354" cy="-18" rx="64.99" ry="18"/>
<text text-anchor="middle" x="1354" y="-14.3" font-family="Times,serif" font-size="14.00">:core:model</text>
</g>
<!-- :mifosng&#45;android&#45;&gt;:core:model -->
<g id="edge25" class="edge">
<title>:mifosng&#45;android&#45;&gt;:core:model</title>
<path fill="none" stroke="black" d="M2032.28,-736.13C1681.61,-732.49 402.64,-717.03 224,-684 118.66,-664.52 0,-702.13 0,-595 0,-595 0,-595 0,-161 0,-31.42 993.52,-19.64 1278.46,-18.93"/>
<polygon fill="black" stroke="black" points="1278.7,-22.43 1288.69,-18.91 1278.69,-15.43 1278.7,-22.43"/>
</g>
<!-- :core:network -->
<g id="node27" class="node">
<title>:core:network</title>
<ellipse fill="none" stroke="black" cx="3832" cy="-306" rx="74.99" ry="18"/>
<text text-anchor="middle" x="3832" y="-302.3" font-family="Times,serif" font-size="14.00">:core:network</text>
</g>
<!-- :mifosng&#45;android&#45;&gt;:core:network -->
<g id="edge26" class="edge">
<title>:mifosng&#45;android&#45;&gt;:core:network</title>
<path fill="none" stroke="black" d="M2209.69,-736.06C2521.33,-732.5 3555.18,-718.18 3700,-684 3812.29,-657.5 3877.17,-648.65 3916,-540 3943.13,-464.08 3885.46,-374.38 3852.65,-331.81"/>
<polygon fill="black" stroke="black" points="3855.39,-329.63 3846.45,-323.94 3849.89,-333.97 3855.39,-329.63"/>
</g>
<!-- :core:datastore -->
<g id="node28" class="node">
<title>:core:datastore</title>
<ellipse fill="none" stroke="black" cx="3690" cy="-162" rx="81.49" ry="18"/>
<text text-anchor="middle" x="3690" y="-158.3" font-family="Times,serif" font-size="14.00">:core:datastore</text>
</g>
<!-- :mifosng&#45;android&#45;&gt;:core:datastore -->
<g id="edge27" class="edge">
<title>:mifosng&#45;android&#45;&gt;:core:datastore</title>
<path fill="none" stroke="black" d="M2210.13,-736.88C2547.12,-736.1 3732.51,-730.06 3895,-684 3969.58,-662.86 4045,-672.52 4045,-595 4045,-595 4045,-595 4045,-305 4045,-260.68 4035.66,-242.33 4000,-216 3965.3,-190.38 3855.36,-176.2 3776.26,-169.09"/>
<polygon fill="black" stroke="black" points="3776.56,-165.6 3766.29,-168.22 3775.95,-172.58 3776.56,-165.6"/>
</g>
<!-- :core:database -->
<g id="node29" class="node">
<title>:core:database</title>
<ellipse fill="none" stroke="black" cx="3912" cy="-234" rx="78.79" ry="18"/>
<text text-anchor="middle" x="3912" y="-230.3" font-family="Times,serif" font-size="14.00">:core:database</text>
</g>
<!-- :mifosng&#45;android&#45;&gt;:core:database -->
<g id="edge28" class="edge">
<title>:mifosng&#45;android&#45;&gt;:core:database</title>
<path fill="none" stroke="black" d="M2209.64,-735.89C2530.65,-731.62 3621.56,-714.97 3775,-684 3883.25,-662.15 4007,-705.44 4007,-595 4007,-595 4007,-595 4007,-377 4007,-328.47 3968.19,-283.97 3940.19,-258.17"/>
<polygon fill="black" stroke="black" points="3942.4,-255.46 3932.61,-251.4 3937.74,-260.68 3942.4,-255.46"/>
</g>
<!-- :feature:offline&#45;&gt;:core:common -->
<g id="edge31" class="edge">
<title>:feature:offline&#45;&gt;:core:common</title>
<path fill="none" stroke="black" d="M144.58,-578.02C169.39,-567.87 202.45,-553.83 231,-540 571.62,-374.92 616.92,-232.28 985,-144 1189.26,-95.01 1828.89,-90.64 2061.41,-90.73"/>
<polygon fill="black" stroke="black" points="2061.51,-94.22 2071.51,-90.73 2061.51,-87.22 2061.51,-94.22"/>
</g>
<!-- :feature:offline&#45;&gt;:core:ui -->
<g id="edge29" class="edge">
<title>:feature:offline&#45;&gt;:core:ui</title>
<path fill="none" stroke="black" d="M162.19,-580.95C173.02,-578.98 184.33,-577.19 195,-576 519.99,-539.71 1564.45,-526.32 1817.43,-523.56"/>
<polygon fill="black" stroke="black" points="1817.53,-527.06 1827.49,-523.46 1817.45,-520.06 1817.53,-527.06"/>
</g>
<!-- :feature:offline&#45;&gt;:core:designsystem -->
<g id="edge30" class="edge">
<title>:feature:offline&#45;&gt;:core:designsystem</title>
<path fill="none" stroke="black" d="M165.26,-581.74C243.62,-566.6 373.81,-541.37 379,-540 525.37,-501.44 553.29,-460.22 702,-432 871.69,-399.8 1377.02,-385.79 1601.93,-381.03"/>
<polygon fill="black" stroke="black" points="1602.17,-384.52 1612.1,-380.82 1602.02,-377.53 1602.17,-384.52"/>
</g>
<!-- :feature:offline&#45;&gt;:core:data -->
<g id="edge33" class="edge">
<title>:feature:offline&#45;&gt;:core:data</title>
<path fill="none" stroke="black" d="M164.2,-581.53C174.44,-579.6 185.03,-577.67 195,-576 306.58,-557.26 335.13,-556.86 447,-540 548.01,-524.78 572.65,-516.74 674,-504 1334.34,-421.01 2140.87,-389.03 2375.23,-381.1"/>
<polygon fill="black" stroke="black" points="2375.42,-384.6 2385.3,-380.76 2375.18,-377.6 2375.42,-384.6"/>
</g>
<!-- :feature:offline&#45;&gt;:core:model -->
<g id="edge32" class="edge">
<title>:feature:offline&#45;&gt;:core:model</title>
<path fill="none" stroke="black" d="M131.69,-576.75C164.12,-553.21 217,-506.35 217,-451 217,-451 217,-451 217,-161 217,-60.86 326.53,-94.98 424,-72 585.81,-33.86 1087.54,-22.8 1278.85,-19.92"/>
<polygon fill="black" stroke="black" points="1279.14,-23.42 1289.09,-19.77 1279.04,-16.42 1279.14,-23.42"/>
</g>
<!-- :core:domain -->
<g id="node30" class="node">
<title>:core:domain</title>
<ellipse fill="none" stroke="black" cx="2159" cy="-522" rx="70.69" ry="18"/>
<text text-anchor="middle" x="2159" y="-518.3" font-family="Times,serif" font-size="14.00">:core:domain</text>
</g>
<!-- :feature:offline&#45;&gt;:core:domain -->
<g id="edge34" class="edge">
<title>:feature:offline&#45;&gt;:core:domain</title>
<path fill="none" stroke="black" d="M161.71,-580.94C172.68,-578.94 184.17,-577.15 195,-576 577.82,-535.34 1542.45,-558.07 1927,-540 1979.13,-537.55 2037.75,-533.24 2083.02,-529.58"/>
<polygon fill="black" stroke="black" points="2083.37,-533.06 2093.05,-528.76 2082.8,-526.08 2083.37,-533.06"/>
</g>
<!-- :feature:savings&#45;&gt;:core:common -->
<g id="edge59" class="edge">
<title>:feature:savings&#45;&gt;:core:common</title>
<path fill="none" stroke="black" d="M1342.05,-575.83C1343.3,-505.37 1358.75,-237.62 1519,-144 1564.85,-117.22 1902.23,-100.58 2062.68,-94.1"/>
<polygon fill="black" stroke="black" points="2063.13,-97.58 2072.99,-93.69 2062.86,-90.59 2063.13,-97.58"/>
</g>
<!-- :feature:savings&#45;&gt;:core:ui -->
<g id="edge57" class="edge">
<title>:feature:savings&#45;&gt;:core:ui</title>
<path fill="none" stroke="black" d="M1403.09,-581.4C1414.03,-579.48 1425.34,-577.6 1436,-576 1569.68,-555.96 1603.83,-556.44 1738,-540 1765.2,-536.67 1795.48,-532.86 1820.45,-529.7"/>
<polygon fill="black" stroke="black" points="1820.97,-533.16 1830.45,-528.43 1820.09,-526.22 1820.97,-533.16"/>
</g>
<!-- :feature:savings&#45;&gt;:core:designsystem -->
<g id="edge58" class="edge">
<title>:feature:savings&#45;&gt;:core:designsystem</title>
<path fill="none" stroke="black" d="M1348.07,-575.89C1360.88,-542.42 1394.03,-468.39 1448,-432 1475.78,-413.27 1555.21,-398.9 1619.74,-389.88"/>
<polygon fill="black" stroke="black" points="1620.53,-393.3 1629.96,-388.47 1619.58,-386.37 1620.53,-393.3"/>
</g>
<!-- :feature:savings&#45;&gt;:core:data -->
<g id="edge61" class="edge">
<title>:feature:savings&#45;&gt;:core:data</title>
<path fill="none" stroke="black" d="M1403.37,-581.51C1414.23,-579.58 1425.44,-577.67 1436,-576 1552.96,-557.46 1593.21,-591.18 1700,-540 1720.98,-529.94 1716.98,-513.97 1738,-504 1851.76,-450.04 1896.03,-495.07 2019,-468 2070.89,-456.58 2081.36,-444.52 2133,-432 2217.68,-411.47 2317.29,-395.89 2380.04,-387.1"/>
<polygon fill="black" stroke="black" points="2380.74,-390.53 2390.17,-385.69 2379.78,-383.6 2380.74,-390.53"/>
</g>
<!-- :feature:savings&#45;&gt;:core:model -->
<g id="edge60" class="edge">
<title>:feature:savings&#45;&gt;:core:model</title>
<path fill="none" stroke="black" d="M1294.85,-578.9C1166.6,-539.87 821,-429.97 821,-379 821,-379 821,-379 821,-161 821,-120.03 813.81,-98.57 845,-72 877.42,-44.38 1146.85,-28.4 1280.04,-22.12"/>
<polygon fill="black" stroke="black" points="1280.34,-25.61 1290.17,-21.65 1280.02,-18.62 1280.34,-25.61"/>
</g>
<!-- :feature:savings&#45;&gt;:core:domain -->
<g id="edge62" class="edge">
<title>:feature:savings&#45;&gt;:core:domain</title>
<path fill="none" stroke="black" d="M1402.03,-581.17C1413.28,-579.23 1424.98,-577.4 1436,-576 1436.5,-575.94 1895.85,-542.28 2082.02,-528.64"/>
<polygon fill="black" stroke="black" points="2082.29,-532.13 2092.01,-527.91 2081.78,-525.15 2082.29,-532.13"/>
</g>
<!-- :feature:note&#45;&gt;:core:common -->
<g id="edge65" class="edge">
<title>:feature:note&#45;&gt;:core:common</title>
<path fill="none" stroke="black" d="M2057.71,-575.84C2053.07,-539.57 2043,-452.42 2043,-379 2043,-379 2043,-379 2043,-233 2043,-182.93 2085.61,-138.78 2116.28,-113.49"/>
<polygon fill="black" stroke="black" points="2118.56,-116.15 2124.18,-107.17 2114.18,-110.68 2118.56,-116.15"/>
</g>
<!-- :feature:note&#45;&gt;:core:ui -->
<g id="edge63" class="edge">
<title>:feature:note&#45;&gt;:core:ui</title>
<path fill="none" stroke="black" d="M2021.71,-578.67C1990.53,-566.99 1946.58,-550.54 1914.55,-538.55"/>
<polygon fill="black" stroke="black" points="1915.61,-535.21 1905.02,-534.99 1913.16,-541.77 1915.61,-535.21"/>
</g>
<!-- :feature:note&#45;&gt;:core:designsystem -->
<g id="edge64" class="edge">
<title>:feature:note&#45;&gt;:core:designsystem</title>
<path fill="none" stroke="black" d="M2036.75,-576.79C2010.43,-558.6 1966.12,-528.43 1927,-504 1866.14,-466 1793.7,-424.66 1750.35,-400.33"/>
<polygon fill="black" stroke="black" points="1751.99,-397.24 1741.56,-395.4 1748.57,-403.35 1751.99,-397.24"/>
</g>
<!-- :feature:note&#45;&gt;:core:data -->
<g id="edge67" class="edge">
<title>:feature:note&#45;&gt;:core:data</title>
<path fill="none" stroke="black" d="M2110.88,-581.33C2147.32,-572.16 2197.15,-557.95 2239,-540 2297.92,-514.73 2314.43,-508.66 2364,-468 2387.01,-449.13 2408.95,-423.13 2423.66,-404.1"/>
<polygon fill="black" stroke="black" points="2426.63,-405.98 2429.89,-395.9 2421.06,-401.75 2426.63,-405.98"/>
</g>
<!-- :feature:note&#45;&gt;:core:model -->
<g id="edge66" class="edge">
<title>:feature:note&#45;&gt;:core:model</title>
<path fill="none" stroke="black" d="M2045.07,-576.4C2008.91,-536.64 1912.9,-433.81 1822,-360 1665.54,-232.96 1601.49,-235 1445,-108 1420.08,-87.77 1394.14,-61.85 1376.36,-43.2"/>
<polygon fill="black" stroke="black" points="1378.68,-40.56 1369.27,-35.69 1373.6,-45.37 1378.68,-40.56"/>
</g>
<!-- :feature:note&#45;&gt;:core:domain -->
<g id="edge68" class="edge">
<title>:feature:note&#45;&gt;:core:domain</title>
<path fill="none" stroke="black" d="M2082.96,-576.76C2096.33,-567.31 2113.37,-555.26 2127.93,-544.97"/>
<polygon fill="black" stroke="black" points="2130.02,-547.78 2136.16,-539.15 2125.98,-542.06 2130.02,-547.78"/>
</g>
<!-- :feature:auth&#45;&gt;:core:common -->
<g id="edge71" class="edge">
<title>:feature:auth&#45;&gt;:core:common</title>
<path fill="none" stroke="black" d="M2653.2,-577.77C2669.06,-568.68 2687.55,-555.83 2700,-540 2789.72,-425.9 2798.35,-349.34 2741,-216 2722.62,-173.26 2707.29,-163.4 2665,-144 2590,-109.59 2358.55,-97.3 2231.92,-93.09"/>
<polygon fill="black" stroke="black" points="2231.98,-89.59 2221.87,-92.76 2231.75,-96.58 2231.98,-89.59"/>
</g>
<!-- :feature:auth&#45;&gt;:core:ui -->
<g id="edge69" class="edge">
<title>:feature:auth&#45;&gt;:core:ui</title>
<path fill="none" stroke="black" d="M2571.4,-581.2C2561.68,-579.23 2551.56,-577.38 2542,-576 2337.72,-546.49 2284.74,-556.49 2079,-540 2027.56,-535.88 1968.9,-531.02 1927.37,-527.56"/>
<polygon fill="black" stroke="black" points="1927.45,-524.05 1917.2,-526.71 1926.87,-531.03 1927.45,-524.05"/>
</g>
<!-- :feature:auth&#45;&gt;:core:designsystem -->
<g id="edge70" class="edge">
<title>:feature:auth&#45;&gt;:core:designsystem</title>
<path fill="none" stroke="black" d="M2583.39,-578.81C2497.28,-547.68 2282.49,-472.93 2097,-432 2000.37,-410.68 1888.09,-396.39 1809.81,-388.08"/>
<polygon fill="black" stroke="black" points="1809.79,-384.55 1799.48,-386.99 1809.06,-391.52 1809.79,-384.55"/>
</g>
<!-- :feature:auth&#45;&gt;:core:data -->
<g id="edge73" class="edge">
<title>:feature:auth&#45;&gt;:core:data</title>
<path fill="none" stroke="black" d="M2627.08,-575.81C2631.61,-557.02 2635.88,-526.57 2624,-504 2595.56,-449.96 2532.03,-414.77 2488.1,-395.9"/>
<polygon fill="black" stroke="black" points="2489.35,-392.63 2478.77,-392.01 2486.65,-399.09 2489.35,-392.63"/>
</g>
<!-- :feature:auth&#45;&gt;:core:model -->
<g id="edge72" class="edge">
<title>:feature:auth&#45;&gt;:core:model</title>
<path fill="none" stroke="black" d="M2661.48,-578.98C2682.38,-570.14 2707.48,-557.14 2726,-540 2859.54,-416.39 2947.02,-283.36 2830,-144 2739.19,-35.85 1717.52,-21.26 1429.29,-19.3"/>
<polygon fill="black" stroke="black" points="1428.97,-15.8 1418.95,-19.24 1428.92,-22.8 1428.97,-15.8"/>
</g>
<!-- :feature:auth&#45;&gt;:core:domain -->
<g id="edge74" class="edge">
<title>:feature:auth&#45;&gt;:core:domain</title>
<path fill="none" stroke="black" d="M2570.46,-581.48C2561.02,-579.53 2551.23,-577.62 2542,-576 2434.58,-557.18 2309.26,-540.9 2232.02,-531.52"/>
<polygon fill="black" stroke="black" points="2232.26,-528.02 2221.91,-530.3 2231.42,-534.97 2232.26,-528.02"/>
</g>
<!-- :feature:client&#45;&gt;:feature:data&#45;table -->
<g id="edge82" class="edge">
<title>:feature:client&#45;&gt;:feature:data&#45;table</title>
<path fill="none" stroke="red" stroke-width="2" d="M3417.36,-649.12C3434.7,-639.41 3457.08,-626.87 3475.94,-616.31"/>
<polygon fill="red" stroke="red" stroke-width="2" points="3477.87,-619.25 3484.88,-611.31 3474.45,-613.14 3477.87,-619.25"/>
</g>
<!-- :feature:client&#45;&gt;:core:common -->
<g id="edge77" class="edge">
<title>:feature:client&#45;&gt;:core:common</title>
<path fill="none" stroke="black" d="M3449.76,-655.06C3514.54,-643.84 3609.31,-625.42 3620,-612 3629.97,-599.49 3628.05,-589.82 3620,-576 3577.85,-503.65 3109.22,-225.88 2830,-144 2720.07,-111.76 2388.81,-98.03 2231.59,-93.21"/>
<polygon fill="black" stroke="black" points="2231.59,-89.71 2221.49,-92.9 2231.38,-96.7 2231.59,-89.71"/>
</g>
<!-- :feature:client&#45;&gt;:core:ui -->
<g id="edge75" class="edge">
<title>:feature:client&#45;&gt;:core:ui</title>
<path fill="none" stroke="black" d="M3312.84,-665.01C3037.64,-664.65 2104.44,-659.88 1980,-612 1956.74,-603.05 1956.15,-591.95 1937,-576 1924.78,-565.82 1911.21,-554.58 1899.73,-545.08"/>
<polygon fill="black" stroke="black" points="1901.72,-542.19 1891.78,-538.51 1897.26,-547.58 1901.72,-542.19"/>
</g>
<!-- :feature:client&#45;&gt;:core:designsystem -->
<g id="edge76" class="edge">
<title>:feature:client&#45;&gt;:core:designsystem</title>
<path fill="none" stroke="black" d="M3321.95,-657.31C3278.31,-650.2 3221.29,-636.81 3176,-612 3155.6,-600.82 3158.7,-586.62 3138,-576 3062.4,-537.22 2471.2,-443.34 2387,-432 2187.17,-405.08 1952.08,-390.44 1818.7,-383.71"/>
<polygon fill="black" stroke="black" points="1818.65,-380.2 1808.49,-383.2 1818.3,-387.2 1818.65,-380.2"/>
</g>
<!-- :feature:client&#45;&gt;:core:data -->
<g id="edge79" class="edge">
<title>:feature:client&#45;&gt;:core:data</title>
<path fill="none" stroke="black" d="M3390.32,-647.81C3390.87,-627.86 3388.52,-595.24 3370,-576 3324.84,-529.1 2865.85,-444.76 2802,-432 2698.67,-411.35 2577.16,-395.11 2505.03,-386.3"/>
<polygon fill="black" stroke="black" points="2505.1,-382.78 2494.76,-385.05 2504.26,-389.73 2505.1,-382.78"/>
</g>
<!-- :feature:client&#45;&gt;:core:model -->
<g id="edge78" class="edge">
<title>:feature:client&#45;&gt;:core:model</title>
<path fill="none" stroke="black" d="M3463.14,-661.5C3583.8,-655.04 3811.7,-639.35 3836,-612 3846.63,-600.04 3841.05,-591.18 3836,-576 3776.28,-396.42 3581,-424.24 3581,-235 3581,-235 3581,-235 3581,-161 3581,-0.49 3389.97,-94.18 3231,-72 2874.04,-22.2 1733.43,-18.89 1429.19,-18.91"/>
<polygon fill="black" stroke="black" points="1429.14,-15.41 1419.14,-18.91 1429.15,-22.41 1429.14,-15.41"/>
</g>
<!-- :feature:client&#45;&gt;:core:datastore -->
<g id="edge81" class="edge">
<title>:feature:client&#45;&gt;:core:datastore</title>
<path fill="none" stroke="black" d="M3463.47,-662.14C3591.56,-656.45 3842.47,-641.63 3869,-612 3912.55,-563.38 3771.25,-380.09 3748,-324 3728.68,-277.39 3730.84,-263.2 3713,-216 3709.69,-207.23 3705.73,-197.81 3702.04,-189.37"/>
<polygon fill="black" stroke="black" points="3705.14,-187.73 3697.88,-180.01 3698.74,-190.57 3705.14,-187.73"/>
</g>
<!-- :feature:client&#45;&gt;:core:domain -->
<g id="edge80" class="edge">
<title>:feature:client&#45;&gt;:core:domain</title>
<path fill="none" stroke="black" d="M3313.17,-664.22C3054.65,-661.21 2221.41,-648.72 2178,-612 2160.52,-597.21 2156.74,-570.64 2156.75,-550.36"/>
<polygon fill="black" stroke="black" points="2160.26,-550.25 2157.07,-540.15 2153.26,-550.04 2160.26,-550.25"/>
</g>
<!-- :feature:checker&#45;inbox&#45;task&#45;&gt;:core:common -->
<g id="edge92" class="edge">
<title>:feature:checker&#45;inbox&#45;task&#45;&gt;:core:common</title>
<path fill="none" stroke="black" d="M1721.89,-576.64C1679.94,-558.3 1609.47,-528.01 1548,-504 1504,-486.81 1475.16,-506.65 1448,-468 1403.92,-405.28 1383.38,-499.94 1541,-216 1559.91,-181.94 1557.37,-163.68 1591,-144 1668.59,-98.6 1925.46,-91.16 2061.21,-90.51"/>
<polygon fill="black" stroke="black" points="2061.58,-94.01 2071.57,-90.47 2061.55,-87.01 2061.58,-94.01"/>
</g>
<!-- :feature:checker&#45;inbox&#45;task&#45;&gt;:core:ui -->
<g id="edge90" class="edge">
<title>:feature:checker&#45;inbox&#45;task&#45;&gt;:core:ui</title>
<path fill="none" stroke="black" d="M1786.31,-576.23C1802.69,-566.18 1823.6,-553.33 1840.79,-542.78"/>
<polygon fill="black" stroke="black" points="1842.7,-545.71 1849.39,-537.5 1839.04,-539.75 1842.7,-545.71"/>
</g>
<!-- :feature:checker&#45;inbox&#45;task&#45;&gt;:core:designsystem -->
<g id="edge91" class="edge">
<title>:feature:checker&#45;inbox&#45;task&#45;&gt;:core:designsystem</title>
<path fill="none" stroke="black" d="M1755.23,-575.85C1747.09,-538.75 1727.77,-450.81 1717.95,-406.1"/>
<polygon fill="black" stroke="black" points="1721.35,-405.25 1715.78,-396.23 1714.51,-406.75 1721.35,-405.25"/>
</g>
<!-- :feature:checker&#45;inbox&#45;task&#45;&gt;:core:data -->
<g id="edge94" class="edge">
<title>:feature:checker&#45;inbox&#45;task&#45;&gt;:core:data</title>
<path fill="none" stroke="black" d="M1811.8,-577.4C1890.29,-554.11 2042.35,-508.64 2171,-468 2249.68,-443.15 2340.75,-412.94 2394.75,-394.88"/>
<polygon fill="black" stroke="black" points="2396.01,-398.15 2404.38,-391.65 2393.79,-391.51 2396.01,-398.15"/>
</g>
<!-- :feature:checker&#45;inbox&#45;task&#45;&gt;:core:model -->
<g id="edge93" class="edge">
<title>:feature:checker&#45;inbox&#45;task&#45;&gt;:core:model</title>
<path fill="none" stroke="black" d="M1677.73,-579.43C1576.53,-558.24 1405.28,-507.52 1309,-396 1212.14,-283.81 1148.35,-195.7 1230,-72 1243.6,-51.4 1267.03,-38.78 1289.89,-31.06"/>
<polygon fill="black" stroke="black" points="1291.1,-34.34 1299.62,-28.04 1289.03,-27.66 1291.1,-34.34"/>
</g>
<!-- :feature:checker&#45;inbox&#45;task&#45;&gt;:core:domain -->
<g id="edge95" class="edge">
<title>:feature:checker&#45;inbox&#45;task&#45;&gt;:core:domain</title>
<path fill="none" stroke="black" d="M1837.55,-579.25C1911.82,-566.26 2022.06,-546.96 2092.21,-534.69"/>
<polygon fill="black" stroke="black" points="2093.01,-538.1 2102.26,-532.93 2091.8,-531.21 2093.01,-538.1"/>
</g>
<!-- :feature:collectionSheet&#45;&gt;:core:common -->
<g id="edge98" class="edge">
<title>:feature:collectionSheet&#45;&gt;:core:common</title>
<path fill="none" stroke="black" d="M757.05,-575.64C806.87,-505.53 1005.31,-242.43 1243,-144 1317.4,-113.19 1851.8,-97.75 2062.2,-92.81"/>
<polygon fill="black" stroke="black" points="2062.36,-96.31 2072.27,-92.58 2062.19,-89.31 2062.36,-96.31"/>
</g>
<!-- :feature:collectionSheet&#45;&gt;:core:ui -->
<g id="edge96" class="edge">
<title>:feature:collectionSheet&#45;&gt;:core:ui</title>
<path fill="none" stroke="black" d="M839.68,-582.69C863.89,-580.27 889.89,-577.86 914,-576 1212.21,-553.03 1287.38,-556.84 1586,-540 1666.86,-535.44 1760.51,-529.83 1818.26,-526.33"/>
<polygon fill="black" stroke="black" points="1818.49,-529.83 1828.26,-525.73 1818.07,-522.84 1818.49,-529.83"/>
</g>
<!-- :feature:collectionSheet&#45;&gt;:core:designsystem -->
<g id="edge97" class="edge">
<title>:feature:collectionSheet&#45;&gt;:core:designsystem</title>
<path fill="none" stroke="black" d="M786.09,-577C871.58,-544.36 1075.46,-470.02 1253,-432 1373.33,-406.23 1514.28,-392.32 1607.92,-385.3"/>
<polygon fill="black" stroke="black" points="1608.24,-388.78 1617.96,-384.56 1607.73,-381.8 1608.24,-388.78"/>
</g>
<!-- :feature:collectionSheet&#45;&gt;:core:data -->
<g id="edge100" class="edge">
<title>:feature:collectionSheet&#45;&gt;:core:data</title>
<path fill="none" stroke="black" d="M840.58,-582.78C864.54,-580.39 890.2,-577.96 914,-576 1161.67,-555.56 1227.73,-585.75 1472,-540 1524.22,-530.22 1534.64,-517.61 1586,-504 1659.39,-484.55 1679.61,-487.45 1753,-468 1804.36,-454.39 1814.91,-442.5 1867,-432 2048.36,-395.44 2267.05,-384.05 2375.01,-380.54"/>
<polygon fill="black" stroke="black" points="2375.22,-384.03 2385.1,-380.22 2375,-377.04 2375.22,-384.03"/>
</g>
<!-- :feature:collectionSheet&#45;&gt;:core:model -->
<g id="edge99" class="edge">
<title>:feature:collectionSheet&#45;&gt;:core:model</title>
<path fill="none" stroke="black" d="M721.58,-576.22C678.95,-543.52 593,-466.72 593,-379 593,-379 593,-379 593,-161 593,-114.03 609.67,-96.08 650,-72 703.05,-40.33 1109.26,-25.67 1279.4,-20.87"/>
<polygon fill="black" stroke="black" points="1279.63,-24.37 1289.53,-20.59 1279.44,-17.37 1279.63,-24.37"/>
</g>
<!-- :feature:collectionSheet&#45;&gt;:core:domain -->
<g id="edge101" class="edge">
<title>:feature:collectionSheet&#45;&gt;:core:domain</title>
<path fill="none" stroke="black" d="M838.77,-582.48C863.23,-580.03 889.58,-577.66 914,-576 1363.47,-545.44 1477.16,-564.47 1927,-540 1979.02,-537.17 2037.52,-532.88 2082.76,-529.31"/>
<polygon fill="black" stroke="black" points="2083.1,-532.8 2092.79,-528.52 2082.55,-525.82 2083.1,-532.8"/>
</g>
<!-- :feature:groups&#45;&gt;:core:common -->
<g id="edge104" class="edge">
<title>:feature:groups&#45;&gt;:core:common</title>
<path fill="none" stroke="black" d="M2504.25,-580.38C2561.97,-564.13 2651.85,-530.28 2703,-468 2729,-436.34 2727,-419.97 2727,-379 2727,-379 2727,-379 2727,-233 2727,-132.19 2392.27,-102.6 2231.39,-94.2"/>
<polygon fill="black" stroke="black" points="2231.21,-90.68 2221.05,-93.67 2230.86,-97.67 2231.21,-90.68"/>
</g>
<!-- :feature:groups&#45;&gt;:core:ui -->
<g id="edge102" class="edge">
<title>:feature:groups&#45;&gt;:core:ui</title>
<path fill="none" stroke="black" d="M2390.72,-581.38C2379.86,-579.44 2368.61,-577.56 2358,-576 2202.22,-553.13 2016.95,-535.53 1927.15,-527.6"/>
<polygon fill="black" stroke="black" points="1927.21,-524.09 1916.94,-526.71 1926.6,-531.07 1927.21,-524.09"/>
</g>
<!-- :feature:groups&#45;&gt;:core:designsystem -->
<g id="edge103" class="edge">
<title>:feature:groups&#45;&gt;:core:designsystem</title>
<path fill="none" stroke="black" d="M2420.56,-577.06C2384.28,-557.87 2320.39,-525.55 2263,-504 2104.71,-444.57 1909.78,-408.5 1799.31,-391.28"/>
<polygon fill="black" stroke="black" points="1799.63,-387.78 1789.22,-389.72 1798.57,-394.7 1799.63,-387.78"/>
</g>
<!-- :feature:groups&#45;&gt;:core:data -->
<g id="edge106" class="edge">
<title>:feature:groups&#45;&gt;:core:data</title>
<path fill="none" stroke="black" d="M2457.45,-575.78C2469.28,-545.99 2489.62,-483.13 2475,-432 2472.17,-422.1 2466.9,-412.25 2461.38,-403.77"/>
<polygon fill="black" stroke="black" points="2464.21,-401.72 2455.64,-395.5 2458.46,-405.71 2464.21,-401.72"/>
</g>
<!-- :feature:groups&#45;&gt;:core:model -->
<g id="edge105" class="edge">
<title>:feature:groups&#45;&gt;:core:model</title>
<path fill="none" stroke="black" d="M2508.07,-581.17C2558.61,-570.27 2627.49,-553.74 2652,-540 2672.15,-528.71 2715.95,-488.29 2727,-468 2765.39,-397.54 2777.06,-359.68 2741,-288 2692.74,-192.08 2641.91,-194.22 2547,-144 2460.9,-98.45 2435.58,-90.8 2340,-72 2165.68,-37.71 1627.28,-24.2 1428.63,-20.3"/>
<polygon fill="black" stroke="black" points="1428.64,-16.8 1418.58,-20.11 1428.51,-23.8 1428.64,-16.8"/>
</g>
<!-- :feature:groups&#45;&gt;:core:domain -->
<g id="edge107" class="edge">
<title>:feature:groups&#45;&gt;:core:domain</title>
<path fill="none" stroke="black" d="M2396.63,-580.16C2346.22,-568.04 2270.76,-549.88 2218.45,-537.3"/>
<polygon fill="black" stroke="black" points="2219.18,-533.88 2208.64,-534.94 2217.54,-540.68 2219.18,-533.88"/>
</g>
<!-- :feature:settings&#45;&gt;:core:common -->
<g id="edge110" class="edge">
<title>:feature:settings&#45;&gt;:core:common</title>
<path fill="none" stroke="black" d="M3261.57,-575.96C3213.5,-506 3019.18,-239.97 2782,-144 2684.51,-104.55 2381.56,-94.47 2232.12,-91.89"/>
<polygon fill="black" stroke="black" points="2232.12,-88.39 2222.07,-91.72 2232.01,-95.38 2232.12,-88.39"/>
</g>
<!-- :feature:settings&#45;&gt;:core:ui -->
<g id="edge108" class="edge">
<title>:feature:settings&#45;&gt;:core:ui</title>
<path fill="none" stroke="black" d="M3203.41,-583C3182.43,-580.32 3159.31,-577.7 3138,-576 2668.55,-538.54 2549.14,-567.37 2079,-540 2027.31,-536.99 1968.46,-531.97 1926.93,-528.17"/>
<polygon fill="black" stroke="black" points="1927.04,-524.66 1916.76,-527.23 1926.39,-531.63 1927.04,-524.66"/>
</g>
<!-- :feature:settings&#45;&gt;:core:designsystem -->
<g id="edge109" class="edge">
<title>:feature:settings&#45;&gt;:core:designsystem</title>
<path fill="none" stroke="black" d="M3211.69,-581.02C3038.78,-547.37 2549.31,-453.06 2387,-432 2186.9,-406.03 1951.67,-391.06 1818.38,-384.01"/>
<polygon fill="black" stroke="black" points="1818.34,-380.51 1808.17,-383.48 1817.97,-387.5 1818.34,-380.51"/>
</g>
<!-- :feature:settings&#45;&gt;:core:data -->
<g id="edge112" class="edge">
<title>:feature:settings&#45;&gt;:core:data</title>
<path fill="none" stroke="black" d="M3228.49,-578.35C3135.42,-548.07 2913.1,-477.64 2723,-432 2647.29,-413.83 2558.88,-398.03 2501.75,-388.52"/>
<polygon fill="black" stroke="black" points="2502.24,-385.05 2491.8,-386.87 2501.1,-391.96 2502.24,-385.05"/>
</g>
<!-- :feature:settings&#45;&gt;:core:model -->
<g id="edge111" class="edge">
<title>:feature:settings&#45;&gt;:core:model</title>
<path fill="none" stroke="black" d="M3293.66,-576.26C3332.16,-543.03 3411,-464.54 3411,-379 3411,-379 3411,-379 3411,-161 3411,-59.57 1798.06,-26.43 1428.72,-20.17"/>
<polygon fill="black" stroke="black" points="1428.73,-16.67 1418.67,-20 1428.61,-23.67 1428.73,-16.67"/>
</g>
<!-- :feature:settings&#45;&gt;:core:datastore -->
<g id="edge114" class="edge">
<title>:feature:settings&#45;&gt;:core:datastore</title>
<path fill="none" stroke="black" d="M3332.59,-580.74C3361.62,-572.65 3395.83,-559.78 3422,-540 3553.88,-440.31 3646.97,-257.14 3678.37,-189.23"/>
<polygon fill="black" stroke="black" points="3681.58,-190.63 3682.55,-180.08 3675.21,-187.72 3681.58,-190.63"/>
</g>
<!-- :feature:settings&#45;&gt;:core:domain -->
<g id="edge113" class="edge">
<title>:feature:settings&#45;&gt;:core:domain</title>
<path fill="none" stroke="black" d="M3202.69,-583.18C3181.89,-580.54 3159.06,-577.89 3138,-576 2804.86,-546.04 2406.3,-530.85 2239.06,-525.4"/>
<polygon fill="black" stroke="black" points="2238.97,-521.9 2228.86,-525.07 2238.74,-528.89 2238.97,-521.9"/>
</g>
<!-- :feature:center&#45;&gt;:core:common -->
<g id="edge117" class="edge">
<title>:feature:center&#45;&gt;:core:common</title>
<path fill="none" stroke="black" d="M3731.98,-575.99C3685.78,-524.69 3539.62,-369.99 3387,-288 3185.16,-179.57 3117.54,-184.36 2892,-144 2655.87,-101.75 2371.97,-92.89 2232.65,-91.22"/>
<polygon fill="black" stroke="black" points="2232.5,-87.72 2222.46,-91.11 2232.43,-94.72 2232.5,-87.72"/>
</g>
<!-- :feature:center&#45;&gt;:core:ui -->
<g id="edge115" class="edge">
<title>:feature:center&#45;&gt;:core:ui</title>
<path fill="none" stroke="black" d="M3683.19,-583.07C3663.03,-580.3 3640.62,-577.62 3620,-576 2937.02,-522.47 2763.12,-576.19 2079,-540 2027.3,-537.27 1968.44,-532.21 1926.92,-528.33"/>
<polygon fill="black" stroke="black" points="1927.04,-524.82 1916.75,-527.36 1926.38,-531.79 1927.04,-524.82"/>
</g>
<!-- :feature:center&#45;&gt;:core:designsystem -->
<g id="edge116" class="edge">
<title>:feature:center&#45;&gt;:core:designsystem</title>
<path fill="none" stroke="black" d="M3685.98,-582.34C3497.93,-549.63 2928.71,-451.7 2742,-432 2408.04,-396.76 2010.58,-384.71 1821.91,-380.78"/>
<polygon fill="black" stroke="black" points="1821.78,-377.28 1811.71,-380.57 1821.63,-384.28 1821.78,-377.28"/>
</g>
<!-- :feature:center&#45;&gt;:core:data -->
<g id="edge119" class="edge">
<title>:feature:center&#45;&gt;:core:data</title>
<path fill="none" stroke="black" d="M3705.06,-578.54C3609.27,-546.2 3366.55,-468.01 3157,-432 2921.41,-391.51 2636.9,-381.94 2509.46,-379.69"/>
<polygon fill="black" stroke="black" points="2509.51,-376.19 2499.45,-379.52 2509.39,-383.19 2509.51,-376.19"/>
</g>
<!-- :feature:center&#45;&gt;:core:model -->
<g id="edge118" class="edge">
<title>:feature:center&#45;&gt;:core:model</title>
<path fill="none" stroke="black" d="M3791.27,-578.85C3882.51,-546.59 4083,-458.48 4083,-307 4083,-307 4083,-307 4083,-161 4083,0.37 3890.9,-93.71 3731,-72 3498.7,-40.45 1806.78,-23.16 1428.77,-19.66"/>
<polygon fill="black" stroke="black" points="1428.79,-16.16 1418.76,-19.57 1428.73,-23.16 1428.79,-16.16"/>
</g>
<!-- :feature:center&#45;&gt;:core:network -->
<g id="edge122" class="edge">
<title>:feature:center&#45;&gt;:core:network</title>
<path fill="none" stroke="black" d="M3752.63,-575.85C3756,-565.49 3760.32,-552.01 3764,-540 3786.8,-465.55 3812.11,-377.2 3824.43,-333.79"/>
<polygon fill="black" stroke="black" points="3827.84,-334.58 3827.2,-324 3821.11,-332.67 3827.84,-334.58"/>
</g>
<!-- :feature:center&#45;&gt;:core:datastore -->
<g id="edge121" class="edge">
<title>:feature:center&#45;&gt;:core:datastore</title>
<path fill="none" stroke="black" d="M3744.73,-575.88C3735.97,-509.8 3704.33,-271.08 3693.59,-190.1"/>
<polygon fill="black" stroke="black" points="3697.06,-189.62 3692.28,-180.17 3690.12,-190.54 3697.06,-189.62"/>
</g>
<!-- :feature:center&#45;&gt;:core:domain -->
<g id="edge120" class="edge">
<title>:feature:center&#45;&gt;:core:domain</title>
<path fill="none" stroke="black" d="M3682.85,-583.18C3662.77,-580.44 3640.5,-577.74 3620,-576 3095.33,-531.47 2461.57,-524.31 2240.08,-523.19"/>
<polygon fill="black" stroke="black" points="2239.86,-519.69 2229.85,-523.14 2239.83,-526.69 2239.86,-519.69"/>
</g>
<!-- :feature:about&#45;&gt;:core:common -->
<g id="edge125" class="edge">
<title>:feature:about&#45;&gt;:core:common</title>
<path fill="none" stroke="black" d="M549.12,-576.48C641.26,-501.21 1024.53,-192.39 1169,-144 1252.38,-116.07 1839.48,-98.67 2061.89,-93.02"/>
<polygon fill="black" stroke="black" points="2062.29,-96.51 2072.2,-92.76 2062.11,-89.52 2062.29,-96.51"/>
</g>
<!-- :feature:about&#45;&gt;:core:ui -->
<g id="edge123" class="edge">
<title>:feature:about&#45;&gt;:core:ui</title>
<path fill="none" stroke="black" d="M582.3,-581.02C592.76,-579.05 603.69,-577.24 614,-576 992.94,-530.44 1090.67,-556.08 1472,-540 1595.59,-534.79 1740.61,-528.63 1817.9,-525.34"/>
<polygon fill="black" stroke="black" points="1818.06,-528.84 1827.9,-524.92 1817.76,-521.85 1818.06,-528.84"/>
</g>
<!-- :feature:about&#45;&gt;:core:designsystem -->
<g id="edge124" class="edge">
<title>:feature:about&#45;&gt;:core:designsystem</title>
<path fill="none" stroke="black" d="M585.23,-581.73C594.83,-579.81 604.7,-577.84 614,-576 695.31,-559.87 717.65,-563.96 797,-540 837.06,-527.9 844.71,-518.41 884,-504 982.17,-467.98 1005.5,-452.7 1108,-432 1278.49,-397.57 1480.51,-385.51 1602.34,-381.28"/>
<polygon fill="black" stroke="black" points="1602.55,-384.77 1612.43,-380.94 1602.31,-377.78 1602.55,-384.77"/>
</g>
<!-- :feature:about&#45;&gt;:core:data -->
<g id="edge127" class="edge">
<title>:feature:about&#45;&gt;:core:data</title>
<path fill="none" stroke="black" d="M583.73,-581.21C593.77,-579.29 604.17,-577.45 614,-576 778.76,-551.64 821.24,-556.2 987,-540 1067.9,-532.1 1641.06,-501.77 1715,-468 1736.16,-458.33 1731.73,-441.43 1753,-432 1863.01,-383.19 2223.81,-378.33 2374.71,-378.52"/>
<polygon fill="black" stroke="black" points="2374.76,-382.02 2384.77,-378.54 2374.78,-375.02 2374.76,-382.02"/>
</g>
<!-- :feature:about&#45;&gt;:core:model -->
<g id="edge126" class="edge">
<title>:feature:about&#45;&gt;:core:model</title>
<path fill="none" stroke="black" d="M526.63,-575.99C523.13,-549.38 517,-496.28 517,-451 517,-451 517,-451 517,-161 517,-105.99 553.15,-95.25 603,-72 663.24,-43.9 1101.95,-26.99 1279.61,-21.23"/>
<polygon fill="black" stroke="black" points="1279.77,-24.73 1289.66,-20.91 1279.55,-17.73 1279.77,-24.73"/>
</g>
<!-- :feature:about&#45;&gt;:core:domain -->
<g id="edge128" class="edge">
<title>:feature:about&#45;&gt;:core:domain</title>
<path fill="none" stroke="black" d="M582.29,-580.9C592.75,-578.94 603.68,-577.16 614,-576 1194.09,-510.52 1343.96,-569.34 1927,-540 1979.12,-537.38 2037.74,-533.07 2083.01,-529.45"/>
<polygon fill="black" stroke="black" points="2083.36,-532.93 2093.05,-528.64 2082.8,-525.95 2083.36,-532.93"/>
</g>
<!-- :feature:report&#45;&gt;:core:common -->
<g id="edge131" class="edge">
<title>:feature:report&#45;&gt;:core:common</title>
<path fill="none" stroke="black" d="M1155.66,-575.99C1144.09,-526.61 1117.44,-380.86 1179,-288 1258.29,-168.39 1329.7,-182.29 1468,-144 1577.69,-113.63 1906.42,-98.96 2062.7,-93.56"/>
<polygon fill="black" stroke="black" points="2062.86,-97.05 2072.74,-93.22 2062.62,-90.06 2062.86,-97.05"/>
</g>
<!-- :feature:report&#45;&gt;:core:ui -->
<g id="edge129" class="edge">
<title>:feature:report&#45;&gt;:core:ui</title>
<path fill="none" stroke="black" d="M1216.18,-581.18C1226.72,-579.24 1237.67,-577.4 1248,-576 1447.69,-548.85 1499.27,-557.85 1700,-540 1740.05,-536.44 1785.26,-531.98 1819.42,-528.52"/>
<polygon fill="black" stroke="black" points="1820.06,-531.98 1829.65,-527.48 1819.35,-525.01 1820.06,-531.98"/>
</g>
<!-- :feature:report&#45;&gt;:core:designsystem -->
<g id="edge130" class="edge">
<title>:feature:report&#45;&gt;:core:designsystem</title>
<path fill="none" stroke="black" d="M1179.08,-576.4C1218.37,-543.17 1312.45,-468.55 1405,-432 1470.28,-406.21 1548.27,-392.95 1609.31,-386.14"/>
<polygon fill="black" stroke="black" points="1609.77,-389.61 1619.34,-385.06 1609.02,-382.65 1609.77,-389.61"/>
</g>
<!-- :feature:report&#45;&gt;:core:data -->
<g id="edge133" class="edge">
<title>:feature:report&#45;&gt;:core:data</title>
<path fill="none" stroke="black" d="M1216.19,-581.24C1226.73,-579.29 1237.67,-577.44 1248,-576 1339.46,-563.22 1577.78,-577.87 1662,-540 1683.22,-530.46 1679.22,-514.46 1700,-504 1782.64,-462.43 1815.14,-489.98 1905,-468 1956.61,-455.38 1967.09,-443.35 2019,-432 2143.94,-404.68 2292.93,-390.1 2376.58,-383.5"/>
<polygon fill="black" stroke="black" points="2377,-386.98 2386.7,-382.72 2376.46,-380 2377,-386.98"/>
</g>
<!-- :feature:report&#45;&gt;:core:model -->
<g id="edge132" class="edge">
<title>:feature:report&#45;&gt;:core:model</title>
<path fill="none" stroke="black" d="M1119.4,-578.46C1008.21,-538.05 707,-424.39 707,-379 707,-379 707,-379 707,-161 707,-97.77 759.45,-95.88 818,-72 899.77,-38.65 1152.67,-25.66 1279.66,-21.14"/>
<polygon fill="black" stroke="black" points="1279.82,-24.64 1289.69,-20.79 1279.57,-17.64 1279.82,-24.64"/>
</g>
<!-- :feature:report&#45;&gt;:core:domain -->
<g id="edge134" class="edge">
<title>:feature:report&#45;&gt;:core:domain</title>
<path fill="none" stroke="black" d="M1215.68,-581.04C1226.37,-579.09 1237.5,-577.29 1248,-576 1547.96,-539.25 1625.4,-559.04 1927,-540 1978.9,-536.72 2037.28,-532.44 2082.5,-529"/>
<polygon fill="black" stroke="black" points="2082.82,-532.48 2092.52,-528.23 2082.28,-525.5 2082.82,-532.48"/>
</g>
<!-- :feature:path&#45;tracking&#45;&gt;:core:common -->
<g id="edge137" class="edge">
<title>:feature:path&#45;tracking&#45;&gt;:core:common</title>
<path fill="none" stroke="black" d="M2826.61,-575.9C2836.4,-504.53 2862.84,-230.12 2706,-144 2626.73,-100.47 2368.73,-92.2 2232.71,-90.94"/>
<polygon fill="black" stroke="black" points="2232.36,-87.44 2222.33,-90.86 2232.31,-94.44 2232.36,-87.44"/>
</g>
<!-- :feature:path&#45;tracking&#45;&gt;:core:ui -->
<g id="edge135" class="edge">
<title>:feature:path&#45;tracking&#45;&gt;:core:ui</title>
<path fill="none" stroke="black" d="M2745.36,-581.09C2730.96,-579.18 2716.05,-577.38 2702,-576 2425.98,-548.84 2355.67,-559.41 2079,-540 2027.35,-536.38 1968.49,-531.44 1926.95,-527.82"/>
<polygon fill="black" stroke="black" points="1927.05,-524.31 1916.78,-526.93 1926.44,-531.29 1927.05,-524.31"/>
</g>
<!-- :feature:path&#45;tracking&#45;&gt;:core:designsystem -->
<g id="edge136" class="edge">
<title>:feature:path&#45;tracking&#45;&gt;:core:designsystem</title>
<path fill="none" stroke="black" d="M2773,-577.86C2664.49,-546.19 2402.36,-472.54 2178,-432 2053.34,-409.48 1908.08,-394.75 1813.31,-386.67"/>
<polygon fill="black" stroke="black" points="1813.41,-383.17 1803.16,-385.81 1812.83,-390.14 1813.41,-383.17"/>
</g>
<!-- :feature:path&#45;tracking&#45;&gt;:core:data -->
<g id="edge139" class="edge">
<title>:feature:path&#45;tracking&#45;&gt;:core:data</title>
<path fill="none" stroke="black" d="M2810.56,-575.86C2794.77,-556.55 2767.02,-525.11 2738,-504 2661.52,-448.35 2556.49,-411.58 2494.29,-393.1"/>
<polygon fill="black" stroke="black" points="2494.89,-389.63 2484.31,-390.18 2492.93,-396.34 2494.89,-389.63"/>
</g>
<!-- :feature:path&#45;tracking&#45;&gt;:core:model -->
<g id="edge138" class="edge">
<title>:feature:path&#45;tracking&#45;&gt;:core:model</title>
<path fill="none" stroke="black" d="M2873.48,-577.74C2979.9,-543.44 3221,-457.1 3221,-379 3221,-379 3221,-379 3221,-305 3221,-127.7 3019.58,-212.4 2856,-144 2775.75,-110.44 2759.11,-90 2674,-72 2433.85,-21.21 1672.45,-18.3 1429.37,-18.71"/>
<polygon fill="black" stroke="black" points="1429.21,-15.21 1419.22,-18.73 1429.23,-22.21 1429.21,-15.21"/>
</g>
<!-- :feature:path&#45;tracking&#45;&gt;:core:domain -->
<g id="edge140" class="edge">
<title>:feature:path&#45;tracking&#45;&gt;:core:domain</title>
<path fill="none" stroke="black" d="M2743.67,-581.33C2729.79,-579.45 2715.49,-577.6 2702,-576 2535.87,-556.33 2340.51,-538.57 2235.33,-529.45"/>
<polygon fill="black" stroke="black" points="2235.39,-525.95 2225.13,-528.57 2234.79,-532.92 2235.39,-525.95"/>
</g>
<!-- :feature:activate&#45;&gt;:core:common -->
<g id="edge143" class="edge">
<title>:feature:activate&#45;&gt;:core:common</title>
<path fill="none" stroke="black" d="M3037.19,-575.9C3016.38,-505.7 2926.73,-238.85 2742,-144 2655.34,-99.5 2375.44,-91.77 2232.59,-90.81"/>
<polygon fill="black" stroke="black" points="2232.57,-87.31 2222.55,-90.75 2232.53,-94.31 2232.57,-87.31"/>
</g>
<!-- :feature:activate&#45;&gt;:core:ui -->
<g id="edge141" class="edge">
<title>:feature:activate&#45;&gt;:core:ui</title>
<path fill="none" stroke="black" d="M2981.12,-581.07C2969.18,-579.08 2956.73,-577.27 2945,-576 2562,-534.66 2463.48,-563.85 2079,-540 2027.33,-536.8 1968.47,-531.8 1926.94,-528.06"/>
<polygon fill="black" stroke="black" points="1927.04,-524.55 1916.76,-527.13 1926.41,-531.52 1927.04,-524.55"/>
</g>
<!-- :feature:activate&#45;&gt;:core:designsystem -->
<g id="edge142" class="edge">
<title>:feature:activate&#45;&gt;:core:designsystem</title>
<path fill="none" stroke="black" d="M2988.91,-579.69C2864.81,-549.05 2545.73,-473.02 2275,-432 2115.76,-407.87 1929.42,-392.9 1816.09,-385.26"/>
<polygon fill="black" stroke="black" points="1816.25,-381.76 1806.04,-384.59 1815.78,-388.75 1816.25,-381.76"/>
</g>
<!-- :feature:activate&#45;&gt;:core:data -->
<g id="edge145" class="edge">
<title>:feature:activate&#45;&gt;:core:data</title>
<path fill="none" stroke="black" d="M3010.44,-577.19C2973.04,-558.71 2908.65,-527.62 2852,-504 2766.35,-468.28 2744.73,-459.2 2656,-432 2602.87,-415.71 2541.17,-400.85 2497.71,-391.04"/>
<polygon fill="black" stroke="black" points="2498.42,-387.61 2487.9,-388.84 2496.89,-394.44 2498.42,-387.61"/>
</g>
<!-- :feature:activate&#45;&gt;:core:model -->
<g id="edge144" class="edge">
<title>:feature:activate&#45;&gt;:core:model</title>
<path fill="none" stroke="black" d="M3066.82,-576.68C3132.51,-531.4 3301.44,-400.13 3235,-288 3167.07,-173.35 3094.69,-196.01 2972,-144 2872.6,-101.86 2846.41,-90.22 2740,-72 2484.68,-28.29 1679.61,-20.61 1429.13,-19.28"/>
<polygon fill="black" stroke="black" points="1429.06,-15.78 1419.04,-19.23 1429.02,-22.78 1429.06,-15.78"/>
</g>
<!-- :feature:activate&#45;&gt;:core:domain -->
<g id="edge146" class="edge">
<title>:feature:activate&#45;&gt;:core:domain</title>
<path fill="none" stroke="black" d="M2980.57,-581.22C2968.8,-579.25 2956.54,-577.4 2945,-576 2688.19,-544.93 2381.8,-530.84 2239.28,-525.6"/>
<polygon fill="black" stroke="black" points="2239.01,-522.09 2228.89,-525.22 2238.76,-529.08 2239.01,-522.09"/>
</g>
<!-- :feature:loan&#45;&gt;:core:common -->
<g id="edge149" class="edge">
<title>:feature:loan&#45;&gt;:core:common</title>
<path fill="none" stroke="black" d="M997.58,-575.87C1018.46,-501.94 1112.57,-210.86 1316,-144 1452.47,-99.15 1877.89,-91.99 2061.37,-91.04"/>
<polygon fill="black" stroke="black" points="2061.53,-94.54 2071.51,-90.99 2061.49,-87.54 2061.53,-94.54"/>
</g>
<!-- :feature:loan&#45;&gt;:core:ui -->
<g id="edge147" class="edge">
<title>:feature:loan&#45;&gt;:core:ui</title>
<path fill="none" stroke="black" d="M1042.1,-581.23C1051.96,-579.21 1062.27,-577.34 1072,-576 1332.27,-540.26 1399.95,-558.55 1662,-540 1715.34,-536.22 1776.21,-531.25 1818.82,-527.66"/>
<polygon fill="black" stroke="black" points="1819.3,-531.13 1828.97,-526.8 1818.71,-524.15 1819.3,-531.13"/>
</g>
<!-- :feature:loan&#45;&gt;:core:designsystem -->
<g id="edge148" class="edge">
<title>:feature:loan&#45;&gt;:core:designsystem</title>
<path fill="none" stroke="black" d="M1024.48,-577.84C1107.26,-537.98 1324.99,-433.21 1329,-432 1420.36,-404.52 1528.32,-391.22 1606.29,-384.82"/>
<polygon fill="black" stroke="black" points="1606.92,-388.28 1616.61,-384 1606.36,-381.3 1606.92,-388.28"/>
</g>
<!-- :feature:loan&#45;&gt;:core:data -->
<g id="edge151" class="edge">
<title>:feature:loan&#45;&gt;:core:data</title>
<path fill="none" stroke="black" d="M1042.53,-581.22C1052.26,-579.22 1062.42,-577.36 1072,-576 1298.73,-543.83 1364.47,-598.02 1586,-540 1622.16,-530.53 1626.38,-515.33 1662,-504 1750.15,-475.95 1784.36,-509.57 1867,-468 1887.78,-457.54 1883.84,-441.66 1905,-432 1987.06,-394.53 2249.56,-383.44 2374.58,-380.25"/>
<polygon fill="black" stroke="black" points="2374.88,-383.74 2384.79,-380 2374.71,-376.74 2374.88,-383.74"/>
</g>
<!-- :feature:loan&#45;&gt;:core:model -->
<g id="edge150" class="edge">
<title>:feature:loan&#45;&gt;:core:model</title>
<path fill="none" stroke="black" d="M953.57,-579.06C859.75,-544.7 631,-453.29 631,-379 631,-379 631,-379 631,-161 631,-102.49 674.42,-95.51 728,-72 824.93,-29.47 1134.72,-20.97 1278.88,-19.34"/>
<polygon fill="black" stroke="black" points="1279.01,-22.84 1288.97,-19.23 1278.94,-15.84 1279.01,-22.84"/>
</g>
<!-- :feature:loan&#45;&gt;:core:domain -->
<g id="edge152" class="edge">
<title>:feature:loan&#45;&gt;:core:domain</title>
<path fill="none" stroke="black" d="M1042.08,-581.09C1051.94,-579.08 1062.26,-577.24 1072,-576 1449.27,-527.82 1547.29,-561.9 1927,-540 1979.01,-537 2037.51,-532.71 2082.75,-529.19"/>
<polygon fill="black" stroke="black" points="2083.09,-532.67 2092.78,-528.4 2082.54,-525.69 2083.09,-532.67"/>
</g>
<!-- :feature:document&#45;&gt;:core:common -->
<g id="edge155" class="edge">
<title>:feature:document&#45;&gt;:core:common</title>
<path fill="none" stroke="black" d="M357.8,-579.61C388.12,-571.04 425.07,-558.1 455,-540 474.91,-527.96 474.49,-518.09 493,-504 739.56,-316.36 793.67,-234.49 1090,-144 1181.77,-115.98 1827.57,-98.4 2062.13,-92.88"/>
<polygon fill="black" stroke="black" points="2062.4,-96.37 2072.31,-92.64 2062.23,-89.37 2062.4,-96.37"/>
</g>
<!-- :feature:document&#45;&gt;:core:ui -->
<g id="edge153" class="edge">
<title>:feature:document&#45;&gt;:core:ui</title>
<path fill="none" stroke="black" d="M375.59,-582.85C397.31,-580.25 421.07,-577.71 443,-576 977.15,-534.42 1626.16,-525.28 1817.45,-523.44"/>
<polygon fill="black" stroke="black" points="1817.57,-526.94 1827.54,-523.34 1817.51,-519.94 1817.57,-526.94"/>
</g>
<!-- :feature:document&#45;&gt;:core:designsystem -->
<g id="edge154" class="edge">
<title>:feature:document&#45;&gt;:core:designsystem</title>
<path fill="none" stroke="black" d="M352.96,-578.91C391.8,-568.47 445.79,-553.72 493,-540 650.14,-494.33 683.98,-461.2 845,-432 987.47,-406.17 1404.07,-389.27 1603.35,-382.43"/>
<polygon fill="black" stroke="black" points="1603.67,-385.93 1613.55,-382.09 1603.43,-378.93 1603.67,-385.93"/>
</g>
<!-- :feature:document&#45;&gt;:core:data -->
<g id="edge157" class="edge">
<title>:feature:document&#45;&gt;:core:data</title>
<path fill="none" stroke="black" d="M372.02,-581.96C496.9,-563.21 761.88,-525.1 987,-504 1261.37,-478.28 1335.31,-519.65 1606,-468 1656.11,-458.44 1664.96,-441.93 1715,-432 1954.3,-384.52 2245.46,-378.49 2374.67,-378.41"/>
<polygon fill="black" stroke="black" points="2374.8,-381.91 2384.81,-378.42 2374.81,-374.91 2374.8,-381.91"/>
</g>
<!-- :feature:document&#45;&gt;:core:model -->
<g id="edge156" class="edge">
<title>:feature:document&#45;&gt;:core:model</title>
<path fill="none" stroke="black" d="M314.76,-576.03C343.24,-541.48 403,-459.4 403,-379 403,-379 403,-379 403,-161 403,-90.61 467.42,-94.85 534,-72 670.43,-25.17 1102.99,-19.25 1278.71,-18.83"/>
<polygon fill="black" stroke="black" points="1278.9,-22.33 1288.9,-18.82 1278.89,-15.33 1278.9,-22.33"/>
</g>
<!-- :feature:document&#45;&gt;:core:domain -->
<g id="edge158" class="edge">
<title>:feature:document&#45;&gt;:core:domain</title>
<path fill="none" stroke="black" d="M375.2,-582.71C397.03,-580.09 420.93,-577.58 443,-576 1101.07,-529.01 1268.03,-572.12 1927,-540 1979.13,-537.46 2037.74,-533.15 2083.02,-529.51"/>
<polygon fill="black" stroke="black" points="2083.37,-532.99 2093.05,-528.69 2082.8,-526.01 2083.37,-532.99"/>
</g>
<!-- :feature:data&#45;table&#45;&gt;:core:common -->
<g id="edge85" class="edge">
<title>:feature:data&#45;table&#45;&gt;:core:common</title>
<path fill="none" stroke="black" d="M3496.7,-576.07C3423.7,-505.94 3130.76,-237.62 2830,-144 2720.69,-109.98 2389.51,-97.15 2231.99,-92.88"/>
<polygon fill="black" stroke="black" points="2231.96,-89.38 2221.87,-92.62 2231.77,-96.38 2231.96,-89.38"/>
</g>
<!-- :feature:data&#45;table&#45;&gt;:core:ui -->
<g id="edge83" class="edge">
<title>:feature:data&#45;table&#45;&gt;:core:ui</title>
<path fill="none" stroke="red" stroke-width="2" d="M3438.27,-582.77C3416.29,-580.15 3392.22,-577.62 3370,-576 2797.52,-534.31 2652.13,-571.62 2079,-540 2027.31,-537.15 1968.45,-532.11 1926.92,-528.26"/>
<polygon fill="red" stroke="red" stroke-width="2" points="1927.04,-524.75 1916.75,-527.31 1926.38,-531.72 1927.04,-524.75"/>
</g>
<!-- :feature:data&#45;table&#45;&gt;:core:designsystem -->
<g id="edge84" class="edge">
<title>:feature:data&#45;table&#45;&gt;:core:designsystem</title>
<path fill="none" stroke="black" d="M3448.67,-580.67C3257.74,-544.69 2708.93,-441.77 2627,-432 2337.5,-397.47 1993.69,-385.22 1821.61,-381.04"/>
<polygon fill="black" stroke="black" points="1821.61,-377.54 1811.53,-380.8 1821.44,-384.54 1821.61,-377.54"/>
</g>
<!-- :feature:data&#45;table&#45;&gt;:core:data -->
<g id="edge87" class="edge">
<title>:feature:data&#45;table&#45;&gt;:core:data</title>
<path fill="none" stroke="black" d="M3480.88,-577.01C3409.89,-543.56 3236.95,-466.43 3083,-432 2877.79,-386.11 2627.63,-379.06 2509.69,-378.53"/>
<polygon fill="black" stroke="black" points="2509.39,-375.03 2499.38,-378.5 2509.37,-382.03 2509.39,-375.03"/>
</g>
<!-- :feature:data&#45;table&#45;&gt;:core:model -->
<g id="edge86" class="edge">
<title>:feature:data&#45;table&#45;&gt;:core:model</title>
<path fill="none" stroke="black" d="M3516.56,-575.66C3519.98,-551.57 3525.85,-506.59 3528,-468 3536.42,-317.13 3539.46,-242.64 3425,-144 3300.08,-36.34 3224.86,-90.62 3061,-72 2737.99,-35.29 1715.82,-22.58 1429.31,-19.69"/>
<polygon fill="black" stroke="black" points="1429.06,-16.19 1419.03,-19.59 1428.99,-23.19 1429.06,-16.19"/>
</g>
<!-- :feature:data&#45;table&#45;&gt;:core:datastore -->
<g id="edge89" class="edge">
<title>:feature:data&#45;table&#45;&gt;:core:datastore</title>
<path fill="none" stroke="black" d="M3538.55,-576.35C3550.75,-566.95 3564.81,-554.25 3574,-540 3649.09,-423.59 3677.94,-255.74 3686.74,-190.44"/>
<polygon fill="black" stroke="black" points="3690.26,-190.54 3688.07,-180.17 3683.32,-189.64 3690.26,-190.54"/>
</g>
<!-- :feature:data&#45;table&#45;&gt;:core:domain -->
<g id="edge88" class="edge">
<title>:feature:data&#45;table&#45;&gt;:core:domain</title>
<path fill="none" stroke="black" d="M3437.5,-582.91C3415.72,-580.32 3391.96,-577.77 3370,-576 2944.97,-541.66 2434.1,-528.48 2239.55,-524.47"/>
<polygon fill="black" stroke="black" points="2239.48,-520.97 2229.41,-524.27 2239.34,-527.97 2239.48,-520.97"/>
</g>
<!-- :feature:search&#45;&gt;:core:common -->
<g id="edge161" class="edge">
<title>:feature:search&#45;&gt;:core:common</title>
<path fill="none" stroke="black" d="M2323.95,-580.95C2412.5,-558.21 2575,-500.01 2575,-379 2575,-379 2575,-379 2575,-233 2575,-159.71 2346.05,-117.67 2223.05,-100.37"/>
<polygon fill="black" stroke="black" points="2223.32,-96.87 2212.94,-98.97 2222.36,-103.81 2223.32,-96.87"/>
</g>
<!-- :feature:search&#45;&gt;:core:ui -->
<g id="edge159" class="edge">
<title>:feature:search&#45;&gt;:core:ui</title>
<path fill="none" stroke="black" d="M2206.71,-582.14C2128.95,-568.36 1996.26,-544.84 1923.84,-532.01"/>
<polygon fill="black" stroke="black" points="1924.06,-528.49 1913.61,-530.2 1922.84,-535.39 1924.06,-528.49"/>
</g>
<!-- :feature:search&#45;&gt;:core:designsystem -->
<g id="edge160" class="edge">
<title>:feature:search&#45;&gt;:core:designsystem</title>
<path fill="none" stroke="black" d="M2267.34,-575.86C2265.61,-555.64 2259.57,-522.45 2239,-504 2180.86,-451.86 2143.12,-485.5 2067,-468 1964.68,-444.48 1846.56,-414.24 1775.65,-395.76"/>
<polygon fill="black" stroke="black" points="1776.53,-392.37 1765.97,-393.23 1774.76,-399.15 1776.53,-392.37"/>
</g>
<!-- :feature:search&#45;&gt;:core:data -->
<g id="edge163" class="edge">
<title>:feature:search&#45;&gt;:core:data</title>
<path fill="none" stroke="black" d="M2305.96,-577.97C2347.26,-559.24 2410.9,-522.87 2437,-468 2446.17,-448.72 2446.91,-424.38 2445.64,-406.03"/>
<polygon fill="black" stroke="black" points="2449.12,-405.64 2444.71,-396 2442.15,-406.28 2449.12,-405.64"/>
</g>
<!-- :feature:search&#45;&gt;:core:model -->
<g id="edge162" class="edge">
<title>:feature:search&#45;&gt;:core:model</title>
<path fill="none" stroke="black" d="M2327.31,-581.63C2381.17,-570.73 2456.16,-553.91 2483,-540 2526.36,-517.53 2539.38,-508.94 2566,-468 2627.29,-373.71 2636.59,-317.9 2589,-216 2567.91,-170.83 2547.26,-166.93 2503,-144 2391.96,-86.49 2354.46,-91.87 2231,-72 1937.12,-24.71 1581.69,-18.72 1429.3,-18.54"/>
<polygon fill="black" stroke="black" points="1429.12,-15.04 1419.12,-18.54 1429.12,-22.04 1429.12,-15.04"/>
</g>
<!-- :feature:search&#45;&gt;:core:domain -->
<g id="edge164" class="edge">
<title>:feature:search&#45;&gt;:core:domain</title>
<path fill="none" stroke="black" d="M2242.72,-576.76C2227.76,-567.15 2208.62,-554.87 2192.42,-544.46"/>
<polygon fill="black" stroke="black" points="2194.07,-541.36 2183.77,-538.91 2190.29,-547.25 2194.07,-541.36"/>
</g>
<!-- :feature:splash&#45;&gt;:core:common -->
<g id="edge167" class="edge">
<title>:feature:splash&#45;&gt;:core:common</title>
<path fill="none" stroke="black" d="M1502.32,-576.62C1474.87,-555.24 1430.08,-514.96 1412,-468 1369.29,-357.07 1548.27,-147.05 1553,-144 1594.84,-117.02 1909.09,-100.66 2062.81,-94.2"/>
<polygon fill="black" stroke="black" points="2063.3,-97.68 2073.15,-93.77 2063.01,-90.69 2063.3,-97.68"/>
</g>
<!-- :feature:splash&#45;&gt;:core:ui -->
<g id="edge165" class="edge">
<title>:feature:splash&#45;&gt;:core:ui</title>
<path fill="none" stroke="black" d="M1582.47,-581.44C1649.58,-567.94 1759.5,-545.83 1823.15,-533.03"/>
<polygon fill="black" stroke="black" points="1824.23,-536.38 1833.34,-530.98 1822.85,-529.52 1824.23,-536.38"/>
</g>
<!-- :feature:splash&#45;&gt;:core:designsystem -->
<g id="edge166" class="edge">
<title>:feature:splash&#45;&gt;:core:designsystem</title>
<path fill="none" stroke="black" d="M1539.67,-576.21C1572.5,-538.64 1652,-447.67 1690.45,-403.66"/>
<polygon fill="black" stroke="black" points="1693.19,-405.84 1697.14,-396.01 1687.92,-401.24 1693.19,-405.84"/>
</g>
<!-- :feature:splash&#45;&gt;:core:data -->
<g id="edge169" class="edge">
<title>:feature:splash&#45;&gt;:core:data</title>
<path fill="none" stroke="black" d="M1582.74,-581.49C1626.04,-572.17 1686.47,-557.71 1738,-540 1775.26,-527.2 1780.99,-514.36 1819,-504 1954.52,-467.05 2005.69,-527.36 2133,-468 2154.09,-458.17 2150.32,-442.66 2171,-432 2235.52,-398.76 2318.52,-386.3 2375.57,-381.66"/>
<polygon fill="black" stroke="black" points="2375.84,-385.15 2385.55,-380.91 2375.32,-378.17 2375.84,-385.15"/>
</g>
<!-- :feature:splash&#45;&gt;:core:model -->
<g id="edge168" class="edge">
<title>:feature:splash&#45;&gt;:core:model</title>
<path fill="none" stroke="black" d="M1475.27,-579.81C1386.33,-555.67 1204.2,-503.62 1149,-468 1002.59,-373.53 946.47,-342.27 883,-180 865.51,-135.3 851.01,-107.79 883,-72 908.93,-42.98 1153.76,-27.91 1279.79,-22.02"/>
<polygon fill="black" stroke="black" points="1280.3,-25.5 1290.13,-21.54 1279.98,-18.5 1280.3,-25.5"/>
</g>
<!-- :feature:splash&#45;&gt;:core:domain -->
<g id="edge170" class="edge">
<title>:feature:splash&#45;&gt;:core:domain</title>
<path fill="none" stroke="black" d="M1581.84,-581.34C1592.5,-579.38 1603.57,-577.5 1614,-576 1779.51,-552.2 1974.87,-536.08 2080.92,-528.33"/>
<polygon fill="black" stroke="black" points="2081.49,-531.8 2091.21,-527.58 2080.99,-524.81 2081.49,-531.8"/>
</g>
<!-- :core:common&#45;&gt;:core:model -->
<g id="edge46" class="edge">
<title>:core:common&#45;&gt;:core:model</title>
<path fill="none" stroke="red" stroke-width="2" d="M2077.67,-82.88C1928.08,-69.68 1576.35,-38.63 1425.14,-25.28"/>
<polygon fill="red" stroke="red" stroke-width="2" points="1425.31,-21.78 1415.04,-24.39 1424.7,-28.75 1425.31,-21.78"/>
</g>
<!-- :core:ui&#45;&gt;:core:designsystem -->
<g id="edge35" class="edge">
<title>:core:ui&#45;&gt;:core:designsystem</title>
<path fill="none" stroke="black" d="M1850.92,-506.05C1836.33,-495.86 1817.01,-481.76 1801,-468 1777.07,-447.44 1751.83,-421.76 1734.36,-403.28"/>
<polygon fill="black" stroke="black" points="1736.77,-400.73 1727.38,-395.83 1731.67,-405.52 1736.77,-400.73"/>
</g>
<!-- :core:ui&#45;&gt;:core:model -->
<g id="edge36" class="edge">
<title>:core:ui&#45;&gt;:core:model</title>
<path fill="none" stroke="black" d="M1827.86,-519.31C1732.4,-515.09 1513.43,-501.93 1448,-468 1310.1,-396.5 1277.2,-332.93 1250,-180 1241.59,-132.71 1220.6,-112.77 1246,-72 1257.3,-53.87 1276.8,-41.77 1296.16,-33.77"/>
<polygon fill="black" stroke="black" points="1297.51,-37 1305.61,-30.17 1295.02,-30.46 1297.51,-37"/>
</g>
<!-- :core:testing -->
<g id="node31" class="node">
<title>:core:testing</title>
<ellipse fill="none" stroke="black" cx="1527" cy="-450" rx="69.59" ry="18"/>
<text text-anchor="middle" x="1527" y="-446.3" font-family="Times,serif" font-size="14.00">:core:testing</text>
</g>
<!-- :core:ui&#45;&gt;:core:testing -->
<g id="edge37" class="edge">
<title>:core:ui&#45;&gt;:core:testing</title>
<path fill="none" stroke="red" stroke-width="2" d="M1833.31,-512.97C1773.84,-500.94 1661.05,-478.12 1590.18,-463.78"/>
<polygon fill="red" stroke="red" stroke-width="2" points="1590.53,-460.28 1580.04,-461.73 1589.14,-467.14 1590.53,-460.28"/>
</g>
<!-- :core:data&#45;&gt;:core:common -->
<g id="edge42" class="edge">
<title>:core:data&#45;&gt;:core:common</title>
<path fill="none" stroke="black" d="M2424.86,-360.39C2374.97,-312.01 2229.63,-171.11 2171.47,-114.73"/>
<polygon fill="black" stroke="black" points="2173.8,-112.11 2164.18,-107.66 2168.93,-117.13 2173.8,-112.11"/>
</g>
<!-- :core:data&#45;&gt;:core:network -->
<g id="edge44" class="edge">
<title>:core:data&#45;&gt;:core:network</title>
<path fill="none" stroke="red" stroke-width="2" d="M2498.21,-374.17C2714.38,-363.28 3492.79,-324.08 3749.34,-311.16"/>
<polygon fill="red" stroke="red" stroke-width="2" points="3749.9,-314.64 3759.71,-310.64 3749.54,-307.65 3749.9,-314.64"/>
</g>
<!-- :core:data&#45;&gt;:core:datastore -->
<g id="edge43" class="edge">
<title>:core:data&#45;&gt;:core:datastore</title>
<path fill="none" stroke="black" d="M2490.92,-368.61C2683.42,-335.6 3389.31,-214.56 3617.98,-175.35"/>
<polygon fill="black" stroke="black" points="3618.6,-178.8 3627.86,-173.66 3617.41,-171.9 3618.6,-178.8"/>
</g>
<!-- :core:data&#45;&gt;:core:database -->
<g id="edge45" class="edge">
<title>:core:data&#45;&gt;:core:database</title>
<path fill="none" stroke="black" d="M2499.41,-377.14C2765.26,-377.49 3866,-375.83 3916,-324 3931.55,-307.89 3928.23,-281.54 3922.41,-261.68"/>
<polygon fill="black" stroke="black" points="3925.67,-260.39 3919.23,-251.98 3919.02,-262.57 3925.67,-260.39"/>
</g>
<!-- :core:network&#45;&gt;:core:common -->
<g id="edge51" class="edge">
<title>:core:network&#45;&gt;:core:common</title>
<path fill="none" stroke="black" d="M3828.99,-287.79C3822,-250 3803.46,-161.67 3780,-144 3717.79,-97.16 2560.52,-91.68 2232.82,-91.07"/>
<polygon fill="black" stroke="black" points="2232.44,-87.57 2222.44,-91.05 2232.43,-94.57 2232.44,-87.57"/>
</g>
<!-- :core:network&#45;&gt;:core:datastore -->
<g id="edge50" class="edge">
<title>:core:network&#45;&gt;:core:datastore</title>
<path fill="none" stroke="black" d="M3815.43,-288.43C3790.45,-263.45 3742.99,-215.99 3714.16,-187.16"/>
<polygon fill="black" stroke="black" points="3716.45,-184.5 3706.9,-179.9 3711.5,-189.45 3716.45,-184.5"/>
</g>
<!-- :core:network&#45;&gt;:core:database -->
<g id="edge49" class="edge">
<title>:core:network&#45;&gt;:core:database</title>
<path fill="none" stroke="red" stroke-width="2" d="M3850.96,-288.41C3861.15,-279.5 3873.88,-268.36 3885.08,-258.56"/>
<polygon fill="red" stroke="red" stroke-width="2" points="3887.68,-260.93 3892.9,-251.71 3883.07,-255.66 3887.68,-260.93"/>
</g>
<!-- :core:datastore&#45;&gt;:core:common -->
<g id="edge48" class="edge">
<title>:core:datastore&#45;&gt;:core:common</title>
<path fill="none" stroke="red" stroke-width="2" d="M3611.36,-157.43C3348.36,-145.5 2500.87,-107.05 2230.63,-94.79"/>
<polygon fill="red" stroke="red" stroke-width="2" points="2230.64,-91.29 2220.49,-94.33 2230.32,-98.28 2230.64,-91.29"/>
</g>
<!-- :core:datastore&#45;&gt;:core:model -->
<g id="edge47" class="edge">
<title>:core:datastore&#45;&gt;:core:model</title>
<path fill="none" stroke="black" d="M3678.21,-144.04C3662.21,-122.65 3631.4,-86.89 3595,-72 3492.71,-30.17 1807.15,-20.84 1428.93,-19.27"/>
<polygon fill="black" stroke="black" points="1428.93,-15.77 1418.91,-19.23 1428.9,-22.77 1428.93,-15.77"/>
</g>
<!-- :core:database&#45;&gt;:core:common -->
<g id="edge52" class="edge">
<title>:core:database&#45;&gt;:core:common</title>
<path fill="none" stroke="black" d="M3900.52,-216.09C3884.93,-194.76 3854.85,-159.06 3819,-144 3745.37,-113.08 2563.62,-96.16 2232.59,-92.02"/>
<polygon fill="black" stroke="black" points="2232.15,-88.51 2222.11,-91.89 2232.06,-95.51 2232.15,-88.51"/>
</g>
<!-- :core:database&#45;&gt;:core:model -->
<g id="edge53" class="edge">
<title>:core:database&#45;&gt;:core:model</title>
<path fill="none" stroke="black" d="M3905.63,-215.71C3897.39,-195.66 3881.16,-162.94 3857,-144 3775.03,-79.75 3736.69,-89.39 3634,-72 3412.94,-34.56 1798.19,-21.88 1429.02,-19.46"/>
<polygon fill="black" stroke="black" points="1429.01,-15.96 1418.98,-19.39 1428.96,-22.96 1429.01,-15.96"/>
</g>
<!-- :core:database&#45;&gt;:core:datastore -->
<g id="edge54" class="edge">
<title>:core:database&#45;&gt;:core:datastore</title>
<path fill="none" stroke="red" stroke-width="2" d="M3867.87,-219.09C3832.47,-207.92 3782.6,-192.2 3744.67,-180.24"/>
<polygon fill="red" stroke="red" stroke-width="2" points="3745.39,-176.8 3734.8,-177.13 3743.29,-183.47 3745.39,-176.8"/>
</g>
<!-- :core:domain&#45;&gt;:core:data -->
<g id="edge55" class="edge">
<title>:core:domain&#45;&gt;:core:data</title>
<path fill="none" stroke="black" d="M2209.5,-509.31C2242.83,-500.49 2286.86,-486.7 2323,-468 2358.05,-449.87 2393.7,-421.63 2416.72,-401.84"/>
<polygon fill="black" stroke="black" points="2419.08,-404.43 2424.31,-395.22 2414.48,-399.15 2419.08,-404.43"/>
</g>
<!-- :core:domain&#45;&gt;:core:model -->
<g id="edge56" class="edge">
<title>:core:domain&#45;&gt;:core:model</title>
<path fill="none" stroke="black" d="M2135.19,-504.8C2092.09,-475.54 1998.17,-412.08 1918,-360 1722.03,-232.69 1479.78,-91.47 1389.82,-39.57"/>
<polygon fill="black" stroke="black" points="1391.51,-36.51 1381.1,-34.55 1388.01,-42.57 1391.51,-36.51"/>
</g>
<!-- :core:testing&#45;&gt;:core:common -->
<g id="edge40" class="edge">
<title>:core:testing&#45;&gt;:core:common</title>
<path fill="none" stroke="black" d="M1532.67,-431.73C1540.85,-405.21 1555,-352.73 1555,-307 1555,-307 1555,-307 1555,-233 1555,-129.86 1899.06,-101.45 2062.59,-93.77"/>
<polygon fill="black" stroke="black" points="2062.79,-97.27 2072.62,-93.32 2062.47,-90.27 2062.79,-97.27"/>
</g>
<!-- :core:testing&#45;&gt;:core:designsystem -->
<g id="edge41" class="edge">
<title>:core:testing&#45;&gt;:core:designsystem</title>
<path fill="none" stroke="black" d="M1564.88,-434.67C1592.74,-424.13 1630.88,-409.69 1661.35,-398.16"/>
<polygon fill="black" stroke="black" points="1662.84,-401.34 1670.95,-394.53 1660.36,-394.8 1662.84,-401.34"/>
</g>
<!-- :core:testing&#45;&gt;:core:data -->
<g id="edge38" class="edge">
<title>:core:testing&#45;&gt;:core:data</title>
<path fill="none" stroke="red" stroke-width="2" d="M1589.26,-441.86C1618.84,-438.6 1654.72,-434.85 1687,-432 1941.24,-409.58 2244.33,-390.67 2375.77,-382.85"/>
<polygon fill="red" stroke="red" stroke-width="2" points="2376.29,-386.33 2386.06,-382.24 2375.87,-379.34 2376.29,-386.33"/>
</g>
<!-- :core:testing&#45;&gt;:core:model -->
<g id="edge39" class="edge">
<title>:core:testing&#45;&gt;:core:model</title>
<path fill="none" stroke="black" d="M1497.75,-433.47C1435.75,-398.37 1294.23,-306.08 1263,-180 1251.46,-133.41 1239.08,-113.61 1263,-72 1272.06,-56.23 1287.82,-44.72 1303.71,-36.53"/>
<polygon fill="black" stroke="black" points="1305.51,-39.55 1313.02,-32.08 1302.49,-33.23 1305.51,-39.55"/>
</g>
</g>
</svg>
