<?xml version="1.0" encoding="UTF-8" standalone="no"?>
<!DOCTYPE svg PUBLIC "-//W3C//DTD SVG 1.1//EN"
 "http://www.w3.org/Graphics/SVG/1.1/DTD/svg11.dtd">
<!-- Generated by graphviz version 2.43.0 (0)
 -->
<!-- Title: G Pages: 1 -->
<svg width="436pt" height="548pt"
 viewBox="0.00 0.00 436.00 548.00" xmlns="http://www.w3.org/2000/svg" xmlns:xlink="http://www.w3.org/1999/xlink">
<g id="graph0" class="graph" transform="scale(1 1) rotate(0) translate(4 544)">
<title>G</title>
<polygon fill="white" stroke="transparent" points="-4,4 -4,-544 432,-544 432,4 -4,4"/>
<!-- :core:ui -->
<g id="node1" class="node">
<title>:core:ui</title>
<ellipse fill="none" stroke="black" cx="129" cy="-522" rx="45.49" ry="18"/>
<text text-anchor="middle" x="129" y="-518.3" font-family="Times,serif" font-size="14.00">:core:ui</text>
</g>
<!-- :core:designsystem -->
<g id="node2" class="node">
<title>:core:designsystem</title>
<ellipse fill="none" stroke="black" cx="129" cy="-378" rx="100.98" ry="18"/>
<text text-anchor="middle" x="129" y="-374.3" font-family="Times,serif" font-size="14.00">:core:designsystem</text>
</g>
<!-- :core:ui&#45;&gt;:core:designsystem -->
<g id="edge1" class="edge">
<title>:core:ui&#45;&gt;:core:designsystem</title>
<path fill="none" stroke="black" d="M129,-503.87C129,-479.67 129,-435.21 129,-406.39"/>
<polygon fill="black" stroke="black" points="132.5,-406.19 129,-396.19 125.5,-406.19 132.5,-406.19"/>
</g>
<!-- :core:model -->
<g id="node3" class="node">
<title>:core:model</title>
<ellipse fill="none" stroke="black" cx="205" cy="-18" rx="64.99" ry="18"/>
<text text-anchor="middle" x="205" y="-14.3" font-family="Times,serif" font-size="14.00">:core:model</text>
</g>
<!-- :core:ui&#45;&gt;:core:model -->
<g id="edge2" class="edge">
<title>:core:ui&#45;&gt;:core:model</title>
<path fill="none" stroke="black" d="M102.58,-507.28C64.84,-485.56 0,-439.45 0,-379 0,-379 0,-379 0,-161 0,-89.33 85.71,-50.98 146.29,-32.82"/>
<polygon fill="black" stroke="black" points="147.52,-36.1 156.16,-29.97 145.58,-29.38 147.52,-36.1"/>
</g>
<!-- :core:testing -->
<g id="node4" class="node">
<title>:core:testing</title>
<ellipse fill="none" stroke="black" cx="305" cy="-450" rx="69.59" ry="18"/>
<text text-anchor="middle" x="305" y="-446.3" font-family="Times,serif" font-size="14.00">:core:testing</text>
</g>
<!-- :core:ui&#45;&gt;:core:testing -->
<g id="edge3" class="edge">
<title>:core:ui&#45;&gt;:core:testing</title>
<path fill="none" stroke="red" stroke-width="2" d="M160.06,-508.65C187.61,-497.69 228.19,-481.55 259.42,-469.13"/>
<polygon fill="red" stroke="red" stroke-width="2" points="260.78,-472.35 268.78,-465.4 258.2,-465.85 260.78,-472.35"/>
</g>
<!-- :core:testing&#45;&gt;:core:designsystem -->
<g id="edge7" class="edge">
<title>:core:testing&#45;&gt;:core:designsystem</title>
<path fill="none" stroke="black" d="M268.53,-434.5C242.3,-424.06 206.63,-409.88 177.93,-398.46"/>
<polygon fill="black" stroke="black" points="179.07,-395.15 168.48,-394.7 176.48,-401.65 179.07,-395.15"/>
</g>
<!-- :core:testing&#45;&gt;:core:model -->
<g id="edge5" class="edge">
<title>:core:testing&#45;&gt;:core:model</title>
<path fill="none" stroke="black" d="M339.65,-434.38C357.29,-425.46 377.92,-412.58 392,-396 419.62,-363.48 428,-349.67 428,-307 428,-307 428,-307 428,-161 428,-118.81 426.04,-100.57 395,-72 363.54,-43.05 317.58,-29.73 278.74,-23.68"/>
<polygon fill="black" stroke="black" points="278.91,-20.17 268.51,-22.23 277.92,-27.1 278.91,-20.17"/>
</g>
<!-- :core:data -->
<g id="node5" class="node">
<title>:core:data</title>
<ellipse fill="none" stroke="black" cx="305" cy="-378" rx="57.39" ry="18"/>
<text text-anchor="middle" x="305" y="-374.3" font-family="Times,serif" font-size="14.00">:core:data</text>
</g>
<!-- :core:testing&#45;&gt;:core:data -->
<g id="edge4" class="edge">
<title>:core:testing&#45;&gt;:core:data</title>
<path fill="none" stroke="red" stroke-width="2" d="M305,-431.7C305,-423.98 305,-414.71 305,-406.11"/>
<polygon fill="red" stroke="red" stroke-width="2" points="308.5,-406.1 305,-396.1 301.5,-406.1 308.5,-406.1"/>
</g>
<!-- :core:common -->
<g id="node6" class="node">
<title>:core:common</title>
<ellipse fill="none" stroke="black" cx="311" cy="-90" rx="75.29" ry="18"/>
<text text-anchor="middle" x="311" y="-86.3" font-family="Times,serif" font-size="14.00">:core:common</text>
</g>
<!-- :core:testing&#45;&gt;:core:common -->
<g id="edge6" class="edge">
<title>:core:testing&#45;&gt;:core:common</title>
<path fill="none" stroke="black" d="M332.25,-433.41C345.91,-424.22 361.52,-411.39 371,-396 392.22,-361.57 390,-347.45 390,-307 390,-307 390,-307 390,-233 390,-186.98 357.92,-141.95 334.65,-115.34"/>
<polygon fill="black" stroke="black" points="337.05,-112.77 327.75,-107.69 331.85,-117.46 337.05,-112.77"/>
</g>
<!-- :core:data&#45;&gt;:core:common -->
<g id="edge8" class="edge">
<title>:core:data&#45;&gt;:core:common</title>
<path fill="none" stroke="black" d="M308.22,-359.89C310,-349.54 312.05,-336.06 313,-324 318.83,-249.83 315.25,-161.97 312.77,-118.38"/>
<polygon fill="black" stroke="black" points="316.26,-118.06 312.17,-108.28 309.27,-118.47 316.26,-118.06"/>
</g>
<!-- :core:datastore -->
<g id="node7" class="node">
<title>:core:datastore</title>
<ellipse fill="none" stroke="black" cx="205" cy="-162" rx="81.49" ry="18"/>
<text text-anchor="middle" x="205" y="-158.3" font-family="Times,serif" font-size="14.00">:core:datastore</text>
</g>
<!-- :core:data&#45;&gt;:core:datastore -->
<g id="edge9" class="edge">
<title>:core:data&#45;&gt;:core:datastore</title>
<path fill="none" stroke="black" d="M305.61,-360C305.7,-341.63 304.17,-311.79 295,-288 279.96,-248.99 249.73,-211.01 228.47,-187.35"/>
<polygon fill="black" stroke="black" points="230.97,-184.9 221.63,-179.9 225.81,-189.63 230.97,-184.9"/>
</g>
<!-- :core:network -->
<g id="node8" class="node">
<title>:core:network</title>
<ellipse fill="none" stroke="black" cx="211" cy="-306" rx="74.99" ry="18"/>
<text text-anchor="middle" x="211" y="-302.3" font-family="Times,serif" font-size="14.00">:core:network</text>
</g>
<!-- :core:data&#45;&gt;:core:network -->
<g id="edge10" class="edge">
<title>:core:data&#45;&gt;:core:network</title>
<path fill="none" stroke="red" stroke-width="2" d="M283.67,-361.12C271.11,-351.76 255.02,-339.78 241.18,-329.47"/>
<polygon fill="red" stroke="red" stroke-width="2" points="243.01,-326.47 232.9,-323.31 238.83,-332.09 243.01,-326.47"/>
</g>
<!-- :core:database -->
<g id="node9" class="node">
<title>:core:database</title>
<ellipse fill="none" stroke="black" cx="107" cy="-234" rx="78.79" ry="18"/>
<text text-anchor="middle" x="107" y="-230.3" font-family="Times,serif" font-size="14.00">:core:database</text>
</g>
<!-- :core:data&#45;&gt;:core:database -->
<g id="edge11" class="edge">
<title>:core:data&#45;&gt;:core:database</title>
<path fill="none" stroke="black" d="M262.94,-365.63C211.84,-351.64 131.77,-329.11 127,-324 111.59,-307.5 107.14,-281.76 106.22,-262.21"/>
<polygon fill="black" stroke="black" points="109.72,-262 106.03,-252.07 102.72,-262.14 109.72,-262"/>
</g>
<!-- :core:common&#45;&gt;:core:model -->
<g id="edge12" class="edge">
<title>:core:common&#45;&gt;:core:model</title>
<path fill="none" stroke="red" stroke-width="2" d="M286.68,-72.94C272.14,-63.34 253.47,-51.01 237.65,-40.56"/>
<polygon fill="red" stroke="red" stroke-width="2" points="239.48,-37.57 229.21,-34.98 235.62,-43.42 239.48,-37.57"/>
</g>
<!-- :core:datastore&#45;&gt;:core:model -->
<g id="edge13" class="edge">
<title>:core:datastore&#45;&gt;:core:model</title>
<path fill="none" stroke="black" d="M205,-143.87C205,-119.67 205,-75.21 205,-46.39"/>
<polygon fill="black" stroke="black" points="208.5,-46.19 205,-36.19 201.5,-46.19 208.5,-46.19"/>
</g>
<!-- :core:datastore&#45;&gt;:core:common -->
<g id="edge14" class="edge">
<title>:core:datastore&#45;&gt;:core:common</title>
<path fill="none" stroke="red" stroke-width="2" d="M229.58,-144.76C244.03,-135.22 262.48,-123.04 278.16,-112.68"/>
<polygon fill="red" stroke="red" stroke-width="2" points="280.13,-115.58 286.55,-107.15 276.27,-109.74 280.13,-115.58"/>
</g>
<!-- :core:network&#45;&gt;:core:common -->
<g id="edge17" class="edge">
<title>:core:network&#45;&gt;:core:common</title>
<path fill="none" stroke="black" d="M225.75,-288.11C244.88,-265.25 277.83,-222.41 295,-180 302.99,-160.27 307.01,-136.46 309.01,-118.44"/>
<polygon fill="black" stroke="black" points="312.52,-118.6 310,-108.31 305.55,-117.93 312.52,-118.6"/>
</g>
<!-- :core:network&#45;&gt;:core:datastore -->
<g id="edge16" class="edge">
<title>:core:network&#45;&gt;:core:datastore</title>
<path fill="none" stroke="black" d="M210.28,-287.87C209.25,-263.67 207.38,-219.21 206.16,-190.39"/>
<polygon fill="black" stroke="black" points="209.65,-190.03 205.73,-180.19 202.65,-190.33 209.65,-190.03"/>
</g>
<!-- :core:network&#45;&gt;:core:database -->
<g id="edge15" class="edge">
<title>:core:network&#45;&gt;:core:database</title>
<path fill="none" stroke="red" stroke-width="2" d="M187.14,-288.94C173.1,-279.49 155.15,-267.41 139.8,-257.08"/>
<polygon fill="red" stroke="red" stroke-width="2" points="141.36,-253.91 131.11,-251.23 137.45,-259.71 141.36,-253.91"/>
</g>
<!-- :core:database&#45;&gt;:core:model -->
<g id="edge19" class="edge">
<title>:core:database&#45;&gt;:core:model</title>
<path fill="none" stroke="black" d="M100.93,-216.03C95.35,-197.7 89.17,-167.89 98,-144 113.52,-101.99 150.17,-64.55 176.24,-41.84"/>
<polygon fill="black" stroke="black" points="178.6,-44.43 183.95,-35.28 174.07,-39.09 178.6,-44.43"/>
</g>
<!-- :core:database&#45;&gt;:core:common -->
<g id="edge18" class="edge">
<title>:core:database&#45;&gt;:core:common</title>
<path fill="none" stroke="black" d="M103.25,-215.76C100.04,-196.05 98.25,-163.96 115,-144 131.06,-124.86 189.42,-110.67 238.31,-101.81"/>
<polygon fill="black" stroke="black" points="239.02,-105.24 248.27,-100.06 237.81,-98.35 239.02,-105.24"/>
</g>
<!-- :core:database&#45;&gt;:core:datastore -->
<g id="edge20" class="edge">
<title>:core:database&#45;&gt;:core:datastore</title>
<path fill="none" stroke="red" stroke-width="2" d="M129.73,-216.76C142.75,-207.47 159.28,-195.66 173.53,-185.48"/>
<polygon fill="red" stroke="red" stroke-width="2" points="175.95,-188.05 182.05,-179.39 171.88,-182.35 175.95,-188.05"/>
</g>
</g>
</svg>
