<?xml version="1.0" encoding="UTF-8" standalone="no"?>
<!DOCTYPE svg PUBLIC "-//W3C//DTD SVG 1.1//EN"
 "http://www.w3.org/Graphics/SVG/1.1/DTD/svg11.dtd">
<!-- Generated by graphviz version 2.43.0 (0)
 -->
<!-- Title: G Pages: 1 -->
<svg width="291pt" height="332pt"
 viewBox="0.00 0.00 290.69 332.00" xmlns="http://www.w3.org/2000/svg" xmlns:xlink="http://www.w3.org/1999/xlink">
<g id="graph0" class="graph" transform="scale(1 1) rotate(0) translate(4 328)">
<title>G</title>
<polygon fill="white" stroke="transparent" points="-4,4 -4,-328 286.69,-328 286.69,4 -4,4"/>
<!-- :core:network -->
<g id="node1" class="node">
<title>:core:network</title>
<ellipse fill="none" stroke="black" cx="93.44" cy="-306" rx="74.99" ry="18"/>
<text text-anchor="middle" x="93.44" y="-302.3" font-family="Times,serif" font-size="14.00">:core:network</text>
</g>
<!-- :core:database -->
<g id="node2" class="node">
<title>:core:database</title>
<ellipse fill="none" stroke="black" cx="93.44" cy="-234" rx="78.79" ry="18"/>
<text text-anchor="middle" x="93.44" y="-230.3" font-family="Times,serif" font-size="14.00">:core:database</text>
</g>
<!-- :core:network&#45;&gt;:core:database -->
<g id="edge1" class="edge">
<title>:core:network&#45;&gt;:core:database</title>
<path fill="none" stroke="red" stroke-width="2" d="M93.44,-287.7C93.44,-279.98 93.44,-270.71 93.44,-262.11"/>
<polygon fill="red" stroke="red" stroke-width="2" points="96.94,-262.1 93.44,-252.1 89.94,-262.1 96.94,-262.1"/>
</g>
<!-- :core:datastore -->
<g id="node3" class="node">
<title>:core:datastore</title>
<ellipse fill="none" stroke="black" cx="201.44" cy="-162" rx="81.49" ry="18"/>
<text text-anchor="middle" x="201.44" y="-158.3" font-family="Times,serif" font-size="14.00">:core:datastore</text>
</g>
<!-- :core:network&#45;&gt;:core:datastore -->
<g id="edge2" class="edge">
<title>:core:network&#45;&gt;:core:datastore</title>
<path fill="none" stroke="black" d="M131.86,-290.28C149.47,-281.66 169.13,-269.07 181.44,-252 194.44,-233.99 199.2,-209 200.84,-190.08"/>
<polygon fill="black" stroke="black" points="204.34,-190.22 201.48,-180.01 197.36,-189.77 204.34,-190.22"/>
</g>
<!-- :core:common -->
<g id="node4" class="node">
<title>:core:common</title>
<ellipse fill="none" stroke="black" cx="127.44" cy="-90" rx="75.29" ry="18"/>
<text text-anchor="middle" x="127.44" y="-86.3" font-family="Times,serif" font-size="14.00">:core:common</text>
</g>
<!-- :core:network&#45;&gt;:core:common -->
<g id="edge3" class="edge">
<title>:core:network&#45;&gt;:core:common</title>
<path fill="none" stroke="black" d="M52.41,-290.94C34.64,-282.58 15.62,-270.01 5.44,-252 -2.43,-238.07 -0.59,-230.82 5.44,-216 23.29,-172.16 64.73,-135.31 94.36,-113.22"/>
<polygon fill="black" stroke="black" points="96.72,-115.83 102.75,-107.12 92.61,-110.17 96.72,-115.83"/>
</g>
<!-- :core:database&#45;&gt;:core:datastore -->
<g id="edge6" class="edge">
<title>:core:database&#45;&gt;:core:datastore</title>
<path fill="none" stroke="red" stroke-width="2" d="M118.49,-216.76C133.21,-207.22 152.01,-195.04 167.99,-184.68"/>
<polygon fill="red" stroke="red" stroke-width="2" points="170.04,-187.52 176.53,-179.15 166.24,-181.65 170.04,-187.52"/>
</g>
<!-- :core:database&#45;&gt;:core:common -->
<g id="edge4" class="edge">
<title>:core:database&#45;&gt;:core:common</title>
<path fill="none" stroke="black" d="M96.42,-215.83C99.66,-197.83 105.22,-168.77 111.44,-144 113.61,-135.39 116.3,-126.08 118.85,-117.71"/>
<polygon fill="black" stroke="black" points="122.22,-118.66 121.85,-108.07 115.53,-116.58 122.22,-118.66"/>
</g>
<!-- :core:model -->
<g id="node5" class="node">
<title>:core:model</title>
<ellipse fill="none" stroke="black" cx="127.44" cy="-18" rx="64.99" ry="18"/>
<text text-anchor="middle" x="127.44" y="-14.3" font-family="Times,serif" font-size="14.00">:core:model</text>
</g>
<!-- :core:database&#45;&gt;:core:model -->
<g id="edge5" class="edge">
<title>:core:database&#45;&gt;:core:model</title>
<path fill="none" stroke="black" d="M79.83,-216.12C57.14,-185.79 16.59,-120.7 43.44,-72 51.65,-57.12 65.99,-45.84 80.52,-37.6"/>
<polygon fill="black" stroke="black" points="82.32,-40.61 89.54,-32.85 79.06,-34.41 82.32,-40.61"/>
</g>
<!-- :core:datastore&#45;&gt;:core:common -->
<g id="edge9" class="edge">
<title>:core:datastore&#45;&gt;:core:common</title>
<path fill="none" stroke="red" stroke-width="2" d="M183.91,-144.41C174.58,-135.58 162.93,-124.57 152.65,-114.84"/>
<polygon fill="red" stroke="red" stroke-width="2" points="154.78,-112.04 145.11,-107.71 149.97,-117.13 154.78,-112.04"/>
</g>
<!-- :core:datastore&#45;&gt;:core:model -->
<g id="edge8" class="edge">
<title>:core:datastore&#45;&gt;:core:model</title>
<path fill="none" stroke="black" d="M209.03,-143.77C216.1,-124.94 223.83,-94.47 211.44,-72 203.24,-57.12 188.9,-45.84 174.37,-37.6"/>
<polygon fill="black" stroke="black" points="175.83,-34.41 165.35,-32.85 172.57,-40.61 175.83,-34.41"/>
</g>
<!-- :core:common&#45;&gt;:core:model -->
<g id="edge7" class="edge">
<title>:core:common&#45;&gt;:core:model</title>
<path fill="none" stroke="red" stroke-width="2" d="M127.44,-71.7C127.44,-63.98 127.44,-54.71 127.44,-46.11"/>
<polygon fill="red" stroke="red" stroke-width="2" points="130.94,-46.1 127.44,-36.1 123.94,-46.1 130.94,-46.1"/>
</g>
</g>
</svg>
