<?xml version="1.0" encoding="UTF-8" standalone="no"?>
<!DOCTYPE svg PUBLIC "-//W3C//DTD SVG 1.1//EN"
 "http://www.w3.org/Graphics/SVG/1.1/DTD/svg11.dtd">
<!-- Generated by graphviz version 2.43.0 (0)
 -->
<!-- Title: G Pages: 1 -->
<svg width="323pt" height="404pt"
 viewBox="0.00 0.00 323.04 404.00" xmlns="http://www.w3.org/2000/svg" xmlns:xlink="http://www.w3.org/1999/xlink">
<g id="graph0" class="graph" transform="scale(1 1) rotate(0) translate(4 400)">
<title>G</title>
<polygon fill="white" stroke="transparent" points="-4,4 -4,-400 319.04,-400 319.04,4 -4,4"/>
<!-- :core:data -->
<g id="node1" class="node">
<title>:core:data</title>
<ellipse fill="none" stroke="black" cx="107.39" cy="-378" rx="57.39" ry="18"/>
<text text-anchor="middle" x="107.39" y="-374.3" font-family="Times,serif" font-size="14.00">:core:data</text>
</g>
<!-- :core:common -->
<g id="node2" class="node">
<title>:core:common</title>
<ellipse fill="none" stroke="black" cx="75.39" cy="-90" rx="75.29" ry="18"/>
<text text-anchor="middle" x="75.39" y="-86.3" font-family="Times,serif" font-size="14.00">:core:common</text>
</g>
<!-- :core:data&#45;&gt;:core:common -->
<g id="edge1" class="edge">
<title>:core:data&#45;&gt;:core:common</title>
<path fill="none" stroke="black" d="M92.69,-360.36C84.54,-350.4 74.79,-337.15 68.39,-324 39.34,-264.27 37.36,-245.81 28.39,-180 26.23,-164.15 22.72,-158.96 28.39,-144 32.54,-133.08 40.07,-122.98 47.91,-114.58"/>
<polygon fill="black" stroke="black" points="50.52,-116.92 55.11,-107.37 45.56,-111.97 50.52,-116.92"/>
</g>
<!-- :core:datastore -->
<g id="node3" class="node">
<title>:core:datastore</title>
<ellipse fill="none" stroke="black" cx="127.39" cy="-162" rx="81.49" ry="18"/>
<text text-anchor="middle" x="127.39" y="-158.3" font-family="Times,serif" font-size="14.00">:core:datastore</text>
</g>
<!-- :core:data&#45;&gt;:core:datastore -->
<g id="edge2" class="edge">
<title>:core:data&#45;&gt;:core:datastore</title>
<path fill="none" stroke="black" d="M94.16,-360.44C87.08,-350.5 79.08,-337.25 75.39,-324 71.1,-308.59 72.26,-303.69 75.39,-288 82.55,-252.19 100.17,-213.8 112.92,-189.16"/>
<polygon fill="black" stroke="black" points="116.13,-190.58 117.71,-180.11 109.94,-187.31 116.13,-190.58"/>
</g>
<!-- :core:network -->
<g id="node4" class="node">
<title>:core:network</title>
<ellipse fill="none" stroke="black" cx="159.39" cy="-306" rx="74.99" ry="18"/>
<text text-anchor="middle" x="159.39" y="-302.3" font-family="Times,serif" font-size="14.00">:core:network</text>
</g>
<!-- :core:data&#45;&gt;:core:network -->
<g id="edge3" class="edge">
<title>:core:data&#45;&gt;:core:network</title>
<path fill="none" stroke="red" stroke-width="2" d="M119.72,-360.41C125.97,-351.99 133.7,-341.58 140.67,-332.2"/>
<polygon fill="red" stroke="red" stroke-width="2" points="143.64,-334.07 146.8,-323.96 138.02,-329.9 143.64,-334.07"/>
</g>
<!-- :core:database -->
<g id="node5" class="node">
<title>:core:database</title>
<ellipse fill="none" stroke="black" cx="236.39" cy="-234" rx="78.79" ry="18"/>
<text text-anchor="middle" x="236.39" y="-230.3" font-family="Times,serif" font-size="14.00">:core:database</text>
</g>
<!-- :core:data&#45;&gt;:core:database -->
<g id="edge4" class="edge">
<title>:core:data&#45;&gt;:core:database</title>
<path fill="none" stroke="black" d="M160.29,-370.89C190.02,-364.44 224.8,-351.2 243.39,-324 255.77,-305.89 252.32,-280.59 246.76,-261.6"/>
<polygon fill="black" stroke="black" points="250.07,-260.46 243.64,-252.04 243.42,-262.64 250.07,-260.46"/>
</g>
<!-- :core:model -->
<g id="node6" class="node">
<title>:core:model</title>
<ellipse fill="none" stroke="black" cx="178.39" cy="-18" rx="64.99" ry="18"/>
<text text-anchor="middle" x="178.39" y="-14.3" font-family="Times,serif" font-size="14.00">:core:model</text>
</g>
<!-- :core:common&#45;&gt;:core:model -->
<g id="edge5" class="edge">
<title>:core:common&#45;&gt;:core:model</title>
<path fill="none" stroke="red" stroke-width="2" d="M99.28,-72.76C113.29,-63.24 131.17,-51.09 146.39,-40.75"/>
<polygon fill="red" stroke="red" stroke-width="2" points="148.69,-43.42 154.99,-34.91 144.75,-37.63 148.69,-43.42"/>
</g>
<!-- :core:datastore&#45;&gt;:core:common -->
<g id="edge7" class="edge">
<title>:core:datastore&#45;&gt;:core:common</title>
<path fill="none" stroke="red" stroke-width="2" d="M114.81,-144.05C108.55,-135.63 100.86,-125.28 93.94,-115.97"/>
<polygon fill="red" stroke="red" stroke-width="2" points="96.64,-113.73 87.87,-107.79 91.02,-117.9 96.64,-113.73"/>
</g>
<!-- :core:datastore&#45;&gt;:core:model -->
<g id="edge6" class="edge">
<title>:core:datastore&#45;&gt;:core:model</title>
<path fill="none" stroke="black" d="M139.6,-144.09C146.33,-134.04 154.33,-120.79 159.39,-108 167.28,-88.08 172.14,-64.28 174.97,-46.31"/>
<polygon fill="black" stroke="black" points="178.46,-46.62 176.44,-36.22 171.54,-45.61 178.46,-46.62"/>
</g>
<!-- :core:network&#45;&gt;:core:common -->
<g id="edge10" class="edge">
<title>:core:network&#45;&gt;:core:common</title>
<path fill="none" stroke="black" d="M134.7,-288.88C105.09,-267.9 57,-228.17 37.39,-180 31.36,-165.18 32.5,-159.23 37.39,-144 40.67,-133.81 46.7,-123.93 53.01,-115.5"/>
<polygon fill="black" stroke="black" points="55.81,-117.61 59.33,-107.61 50.35,-113.24 55.81,-117.61"/>
</g>
<!-- :core:network&#45;&gt;:core:datastore -->
<g id="edge9" class="edge">
<title>:core:network&#45;&gt;:core:datastore</title>
<path fill="none" stroke="black" d="M155.53,-287.87C150.06,-263.56 139.97,-218.82 133.48,-190.01"/>
<polygon fill="black" stroke="black" points="136.88,-189.18 131.27,-180.19 130.05,-190.71 136.88,-189.18"/>
</g>
<!-- :core:network&#45;&gt;:core:database -->
<g id="edge8" class="edge">
<title>:core:network&#45;&gt;:core:database</title>
<path fill="none" stroke="red" stroke-width="2" d="M177.64,-288.41C187.45,-279.5 199.7,-268.36 210.48,-258.56"/>
<polygon fill="red" stroke="red" stroke-width="2" points="212.96,-261.03 218.01,-251.71 208.26,-255.85 212.96,-261.03"/>
</g>
<!-- :core:database&#45;&gt;:core:common -->
<g id="edge11" class="edge">
<title>:core:database&#45;&gt;:core:common</title>
<path fill="none" stroke="black" d="M237.35,-215.8C237.5,-196.14 234.73,-164.1 217.39,-144 199.56,-123.33 172.86,-110.71 147.41,-103.01"/>
<polygon fill="black" stroke="black" points="148.31,-99.63 137.73,-100.29 146.41,-106.37 148.31,-99.63"/>
</g>
<!-- :core:database&#45;&gt;:core:datastore -->
<g id="edge13" class="edge">
<title>:core:database&#45;&gt;:core:datastore</title>
<path fill="none" stroke="red" stroke-width="2" d="M211.11,-216.76C196.25,-207.22 177.28,-195.04 161.16,-184.68"/>
<polygon fill="red" stroke="red" stroke-width="2" points="162.84,-181.61 152.54,-179.15 159.06,-187.5 162.84,-181.61"/>
</g>
<!-- :core:database&#45;&gt;:core:model -->
<g id="edge12" class="edge">
<title>:core:database&#45;&gt;:core:model</title>
<path fill="none" stroke="black" d="M239.59,-215.68C242.33,-197.56 245.03,-168.4 239.39,-144 230.91,-107.28 210.1,-68.88 195.15,-44.49"/>
<polygon fill="black" stroke="black" points="198.02,-42.48 189.74,-35.86 192.08,-46.19 198.02,-42.48"/>
</g>
</g>
</svg>
