<?xml version="1.0" encoding="UTF-8" standalone="no"?>
<!DOCTYPE svg PUBLIC "-//W3C//DTD SVG 1.1//EN"
 "http://www.w3.org/Graphics/SVG/1.1/DTD/svg11.dtd">
<!-- Generated by graphviz version 2.43.0 (0)
 -->
<!-- Title: G Pages: 1 -->
<svg width="788pt" height="620pt"
 viewBox="0.00 0.00 788.00 620.00" xmlns="http://www.w3.org/2000/svg" xmlns:xlink="http://www.w3.org/1999/xlink">
<g id="graph0" class="graph" transform="scale(1 1) rotate(0) translate(4 616)">
<title>G</title>
<polygon fill="white" stroke="transparent" points="-4,4 -4,-616 784,-616 784,4 -4,4"/>
<!-- :feature:center -->
<g id="node1" class="node">
<title>:feature:center</title>
<ellipse fill="none" stroke="black" cx="391" cy="-594" rx="79.89" ry="18"/>
<text text-anchor="middle" x="391" y="-590.3" font-family="Times,serif" font-size="14.00">:feature:center</text>
</g>
<!-- :core:ui -->
<g id="node2" class="node">
<title>:core:ui</title>
<ellipse fill="none" stroke="black" cx="224" cy="-522" rx="45.49" ry="18"/>
<text text-anchor="middle" x="224" y="-518.3" font-family="Times,serif" font-size="14.00">:core:ui</text>
</g>
<!-- :feature:center&#45;&gt;:core:ui -->
<g id="edge1" class="edge">
<title>:feature:center&#45;&gt;:core:ui</title>
<path fill="none" stroke="red" stroke-width="2" d="M354.76,-577.81C327.82,-566.52 291.08,-551.12 263.41,-539.52"/>
<polygon fill="red" stroke="red" stroke-width="2" points="264.6,-536.22 254.03,-535.59 261.9,-542.68 264.6,-536.22"/>
</g>
<!-- :core:designsystem -->
<g id="node3" class="node">
<title>:core:designsystem</title>
<ellipse fill="none" stroke="black" cx="167" cy="-378" rx="100.98" ry="18"/>
<text text-anchor="middle" x="167" y="-374.3" font-family="Times,serif" font-size="14.00">:core:designsystem</text>
</g>
<!-- :feature:center&#45;&gt;:core:designsystem -->
<g id="edge2" class="edge">
<title>:feature:center&#45;&gt;:core:designsystem</title>
<path fill="none" stroke="black" d="M320.52,-585.44C263.17,-577.67 188.79,-563.37 170,-540 139.53,-502.09 149.09,-441.33 158.35,-406.3"/>
<polygon fill="black" stroke="black" points="161.82,-406.89 161.16,-396.31 155.08,-404.99 161.82,-406.89"/>
</g>
<!-- :core:common -->
<g id="node4" class="node">
<title>:core:common</title>
<ellipse fill="none" stroke="black" cx="415" cy="-90" rx="75.29" ry="18"/>
<text text-anchor="middle" x="415" y="-86.3" font-family="Times,serif" font-size="14.00">:core:common</text>
</g>
<!-- :feature:center&#45;&gt;:core:common -->
<g id="edge3" class="edge">
<title>:feature:center&#45;&gt;:core:common</title>
<path fill="none" stroke="black" d="M387.16,-575.61C381.6,-548.94 372,-496.27 372,-451 372,-451 372,-451 372,-233 372,-191.06 389.39,-145.04 402.05,-117.08"/>
<polygon fill="black" stroke="black" points="405.24,-118.53 406.3,-107.98 398.9,-115.57 405.24,-118.53"/>
</g>
<!-- :core:model -->
<g id="node5" class="node">
<title>:core:model</title>
<ellipse fill="none" stroke="black" cx="415" cy="-18" rx="64.99" ry="18"/>
<text text-anchor="middle" x="415" y="-14.3" font-family="Times,serif" font-size="14.00">:core:model</text>
</g>
<!-- :feature:center&#45;&gt;:core:model -->
<g id="edge4" class="edge">
<title>:feature:center&#45;&gt;:core:model</title>
<path fill="none" stroke="black" d="M326.43,-583.23C215.38,-564.6 0,-519.61 0,-451 0,-451 0,-451 0,-161 0,-107.52 33.93,-97.4 81,-72 125.13,-48.19 259.06,-32.56 343.31,-24.79"/>
<polygon fill="black" stroke="black" points="343.69,-28.27 353.33,-23.88 343.06,-21.3 343.69,-28.27"/>
</g>
<!-- :core:data -->
<g id="node6" class="node">
<title>:core:data</title>
<ellipse fill="none" stroke="black" cx="513" cy="-378" rx="57.39" ry="18"/>
<text text-anchor="middle" x="513" y="-374.3" font-family="Times,serif" font-size="14.00">:core:data</text>
</g>
<!-- :feature:center&#45;&gt;:core:data -->
<g id="edge5" class="edge">
<title>:feature:center&#45;&gt;:core:data</title>
<path fill="none" stroke="black" d="M402.81,-575.79C409.49,-565.63 417.74,-552.38 424,-540 447.3,-493.89 440.13,-476.13 467,-432 473.21,-421.8 481.41,-411.64 489.16,-402.99"/>
<polygon fill="black" stroke="black" points="491.86,-405.23 496.08,-395.51 486.72,-400.47 491.86,-405.23"/>
</g>
<!-- :core:domain -->
<g id="node7" class="node">
<title>:core:domain</title>
<ellipse fill="none" stroke="black" cx="547" cy="-450" rx="70.69" ry="18"/>
<text text-anchor="middle" x="547" y="-446.3" font-family="Times,serif" font-size="14.00">:core:domain</text>
</g>
<!-- :feature:center&#45;&gt;:core:domain -->
<g id="edge6" class="edge">
<title>:feature:center&#45;&gt;:core:domain</title>
<path fill="none" stroke="black" d="M414.79,-576.76C428.95,-566.72 447.03,-553.26 462,-540 484.99,-519.64 508.96,-494.09 525.56,-475.59"/>
<polygon fill="black" stroke="black" points="528.39,-477.68 532.42,-467.88 523.16,-473.03 528.39,-477.68"/>
</g>
<!-- :core:datastore -->
<g id="node8" class="node">
<title>:core:datastore</title>
<ellipse fill="none" stroke="black" cx="633" cy="-162" rx="81.49" ry="18"/>
<text text-anchor="middle" x="633" y="-158.3" font-family="Times,serif" font-size="14.00">:core:datastore</text>
</g>
<!-- :feature:center&#45;&gt;:core:datastore -->
<g id="edge7" class="edge">
<title>:feature:center&#45;&gt;:core:datastore</title>
<path fill="none" stroke="black" d="M455.24,-583.17C565.72,-564.44 780,-519.3 780,-451 780,-451 780,-451 780,-305 780,-247.36 720.81,-205.69 677.55,-182.94"/>
<polygon fill="black" stroke="black" points="679.08,-179.79 668.58,-178.37 675.91,-186.03 679.08,-179.79"/>
</g>
<!-- :core:network -->
<g id="node9" class="node">
<title>:core:network</title>
<ellipse fill="none" stroke="black" cx="513" cy="-306" rx="74.99" ry="18"/>
<text text-anchor="middle" x="513" y="-302.3" font-family="Times,serif" font-size="14.00">:core:network</text>
</g>
<!-- :feature:center&#45;&gt;:core:network -->
<g id="edge8" class="edge">
<title>:feature:center&#45;&gt;:core:network</title>
<path fill="none" stroke="black" d="M391.42,-575.75C393.15,-535.01 402,-430.98 447,-360 454.65,-347.93 466.01,-337.39 477.15,-328.95"/>
<polygon fill="black" stroke="black" points="479.48,-331.59 485.57,-322.92 475.41,-325.9 479.48,-331.59"/>
</g>
<!-- :core:ui&#45;&gt;:core:designsystem -->
<g id="edge9" class="edge">
<title>:core:ui&#45;&gt;:core:designsystem</title>
<path fill="none" stroke="black" d="M213.72,-504.24C207.74,-494.02 200.34,-480.54 195,-468 186.35,-447.69 178.98,-423.79 173.97,-405.87"/>
<polygon fill="black" stroke="black" points="177.31,-404.81 171.3,-396.09 170.55,-406.65 177.31,-404.81"/>
</g>
<!-- :core:ui&#45;&gt;:core:model -->
<g id="edge10" class="edge">
<title>:core:ui&#45;&gt;:core:model</title>
<path fill="none" stroke="black" d="M195.66,-507.9C157.78,-488.86 91.46,-449.84 57,-396 35.2,-361.93 38,-347.45 38,-307 38,-307 38,-307 38,-161 38,-95.11 242.23,-49.29 350.06,-29.69"/>
<polygon fill="black" stroke="black" points="350.96,-33.08 360.18,-27.87 349.72,-26.19 350.96,-33.08"/>
</g>
<!-- :core:testing -->
<g id="node10" class="node">
<title>:core:testing</title>
<ellipse fill="none" stroke="black" cx="274" cy="-450" rx="69.59" ry="18"/>
<text text-anchor="middle" x="274" y="-446.3" font-family="Times,serif" font-size="14.00">:core:testing</text>
</g>
<!-- :core:ui&#45;&gt;:core:testing -->
<g id="edge11" class="edge">
<title>:core:ui&#45;&gt;:core:testing</title>
<path fill="none" stroke="red" stroke-width="2" d="M235.85,-504.41C241.86,-495.99 249.3,-485.58 256,-476.2"/>
<polygon fill="red" stroke="red" stroke-width="2" points="258.92,-478.13 261.89,-467.96 253.23,-474.06 258.92,-478.13"/>
</g>
<!-- :core:common&#45;&gt;:core:model -->
<g id="edge20" class="edge">
<title>:core:common&#45;&gt;:core:model</title>
<path fill="none" stroke="red" stroke-width="2" d="M415,-71.7C415,-63.98 415,-54.71 415,-46.11"/>
<polygon fill="red" stroke="red" stroke-width="2" points="418.5,-46.1 415,-36.1 411.5,-46.1 418.5,-46.1"/>
</g>
<!-- :core:data&#45;&gt;:core:common -->
<g id="edge16" class="edge">
<title>:core:data&#45;&gt;:core:common</title>
<path fill="none" stroke="black" d="M477.28,-363.73C459.61,-355.21 439.79,-342.26 429,-324 390.33,-258.6 400.79,-164.04 409.16,-118.09"/>
<polygon fill="black" stroke="black" points="412.65,-118.5 411.11,-108.02 405.77,-117.17 412.65,-118.5"/>
</g>
<!-- :core:data&#45;&gt;:core:datastore -->
<g id="edge17" class="edge">
<title>:core:data&#45;&gt;:core:datastore</title>
<path fill="none" stroke="black" d="M548.12,-363.64C568.64,-354.62 594.14,-341.22 613,-324 641.22,-298.23 649.1,-288.63 660,-252 664.56,-236.66 663.73,-231.56 660,-216 657.76,-206.66 653.58,-197.11 649.17,-188.74"/>
<polygon fill="black" stroke="black" points="652.13,-186.87 644.19,-179.86 646.03,-190.29 652.13,-186.87"/>
</g>
<!-- :core:data&#45;&gt;:core:network -->
<g id="edge18" class="edge">
<title>:core:data&#45;&gt;:core:network</title>
<path fill="none" stroke="red" stroke-width="2" d="M513,-359.7C513,-351.98 513,-342.71 513,-334.11"/>
<polygon fill="red" stroke="red" stroke-width="2" points="516.5,-334.1 513,-324.1 509.5,-334.1 516.5,-334.1"/>
</g>
<!-- :core:database -->
<g id="node11" class="node">
<title>:core:database</title>
<ellipse fill="none" stroke="black" cx="555" cy="-234" rx="78.79" ry="18"/>
<text text-anchor="middle" x="555" y="-230.3" font-family="Times,serif" font-size="14.00">:core:database</text>
</g>
<!-- :core:data&#45;&gt;:core:database -->
<g id="edge19" class="edge">
<title>:core:data&#45;&gt;:core:database</title>
<path fill="none" stroke="black" d="M549.17,-363.99C566.97,-355.53 586.76,-342.57 597,-324 608.73,-302.72 594.47,-277.62 579.47,-259.51"/>
<polygon fill="black" stroke="black" points="581.85,-256.91 572.62,-251.71 576.59,-261.54 581.85,-256.91"/>
</g>
<!-- :core:domain&#45;&gt;:core:model -->
<g id="edge30" class="edge">
<title>:core:domain&#45;&gt;:core:model</title>
<path fill="none" stroke="black" d="M595.2,-436.75C652.95,-418.83 742,-379.45 742,-307 742,-307 742,-307 742,-161 742,-51.76 586.56,-25.65 490.01,-19.97"/>
<polygon fill="black" stroke="black" points="490.17,-16.48 480,-19.44 489.8,-23.47 490.17,-16.48"/>
</g>
<!-- :core:domain&#45;&gt;:core:data -->
<g id="edge29" class="edge">
<title>:core:domain&#45;&gt;:core:data</title>
<path fill="none" stroke="black" d="M538.77,-432.05C534.9,-424.09 530.2,-414.41 525.88,-405.51"/>
<polygon fill="black" stroke="black" points="528.91,-403.74 521.39,-396.28 522.61,-406.8 528.91,-403.74"/>
</g>
<!-- :core:datastore&#45;&gt;:core:common -->
<g id="edge22" class="edge">
<title>:core:datastore&#45;&gt;:core:common</title>
<path fill="none" stroke="red" stroke-width="2" d="M588.88,-146.83C553.94,-135.61 505,-119.9 467.94,-108"/>
<polygon fill="red" stroke="red" stroke-width="2" points="468.9,-104.63 458.31,-104.91 466.76,-111.3 468.9,-104.63"/>
</g>
<!-- :core:datastore&#45;&gt;:core:model -->
<g id="edge21" class="edge">
<title>:core:datastore&#45;&gt;:core:model</title>
<path fill="none" stroke="black" d="M618.3,-144.05C600.75,-124.63 569.76,-92.8 538,-72 515.26,-57.11 487.64,-44.77 464.34,-35.75"/>
<polygon fill="black" stroke="black" points="465.57,-32.47 454.98,-32.21 463.1,-39.02 465.57,-32.47"/>
</g>
<!-- :core:network&#45;&gt;:core:common -->
<g id="edge25" class="edge">
<title>:core:network&#45;&gt;:core:common</title>
<path fill="none" stroke="black" d="M495.3,-288.22C485.8,-278.42 474.54,-265.37 467,-252 442.39,-208.37 427.49,-151.42 420.29,-118.26"/>
<polygon fill="black" stroke="black" points="423.69,-117.45 418.22,-108.38 416.84,-118.88 423.69,-117.45"/>
</g>
<!-- :core:network&#45;&gt;:core:datastore -->
<g id="edge24" class="edge">
<title>:core:network&#45;&gt;:core:datastore</title>
<path fill="none" stroke="black" d="M573.98,-295.55C599.78,-288.21 627.43,-275.16 643,-252 655.28,-233.73 650.92,-208.45 644.57,-189.5"/>
<polygon fill="black" stroke="black" points="647.8,-188.14 641.04,-179.98 641.23,-190.57 647.8,-188.14"/>
</g>
<!-- :core:network&#45;&gt;:core:database -->
<g id="edge23" class="edge">
<title>:core:network&#45;&gt;:core:database</title>
<path fill="none" stroke="red" stroke-width="2" d="M523.17,-288.05C528.05,-279.92 534,-270 539.43,-260.94"/>
<polygon fill="red" stroke="red" stroke-width="2" points="542.49,-262.65 544.63,-252.28 536.49,-259.05 542.49,-262.65"/>
</g>
<!-- :core:testing&#45;&gt;:core:designsystem -->
<g id="edge15" class="edge">
<title>:core:testing&#45;&gt;:core:designsystem</title>
<path fill="none" stroke="black" d="M249.72,-433.12C235.26,-423.65 216.68,-411.5 200.8,-401.11"/>
<polygon fill="black" stroke="black" points="202.58,-398.1 192.3,-395.55 198.75,-403.96 202.58,-398.1"/>
</g>
<!-- :core:testing&#45;&gt;:core:common -->
<g id="edge14" class="edge">
<title>:core:testing&#45;&gt;:core:common</title>
<path fill="none" stroke="black" d="M287.55,-432.21C295.06,-422.19 304.06,-408.94 310,-396 327.08,-358.76 334,-347.97 334,-307 334,-307 334,-307 334,-233 334,-192.03 336.85,-179.08 358,-144 364.76,-132.79 374.57,-122.47 384.14,-113.98"/>
<polygon fill="black" stroke="black" points="386.68,-116.42 392.07,-107.3 382.17,-111.07 386.68,-116.42"/>
</g>
<!-- :core:testing&#45;&gt;:core:model -->
<g id="edge13" class="edge">
<title>:core:testing&#45;&gt;:core:model</title>
<path fill="none" stroke="black" d="M278.45,-431.65C284.88,-405.02 296,-352.4 296,-307 296,-307 296,-307 296,-161 296,-118.5 303.9,-104.75 331,-72 342.29,-58.36 358.04,-47.13 372.85,-38.58"/>
<polygon fill="black" stroke="black" points="374.83,-41.49 381.9,-33.6 371.46,-35.35 374.83,-41.49"/>
</g>
<!-- :core:testing&#45;&gt;:core:data -->
<g id="edge12" class="edge">
<title>:core:testing&#45;&gt;:core:data</title>
<path fill="none" stroke="red" stroke-width="2" d="M318.11,-436.08C359.16,-424.06 420.25,-406.16 463.07,-393.62"/>
<polygon fill="red" stroke="red" stroke-width="2" points="464.11,-396.97 472.72,-390.8 462.14,-390.25 464.11,-396.97"/>
</g>
<!-- :core:database&#45;&gt;:core:common -->
<g id="edge26" class="edge">
<title>:core:database&#45;&gt;:core:common</title>
<path fill="none" stroke="black" d="M538.39,-216.15C513.66,-191.07 467.03,-143.77 438.71,-115.05"/>
<polygon fill="black" stroke="black" points="441.1,-112.49 431.59,-107.82 436.12,-117.4 441.1,-112.49"/>
</g>
<!-- :core:database&#45;&gt;:core:model -->
<g id="edge27" class="edge">
<title>:core:database&#45;&gt;:core:model</title>
<path fill="none" stroke="black" d="M550.56,-215.76C540.88,-179.13 517.27,-95 499,-72 488.07,-58.25 472.54,-47.05 457.8,-38.55"/>
<polygon fill="black" stroke="black" points="459.23,-35.34 448.78,-33.6 455.87,-41.48 459.23,-35.34"/>
</g>
<!-- :core:database&#45;&gt;:core:datastore -->
<g id="edge28" class="edge">
<title>:core:database&#45;&gt;:core:datastore</title>
<path fill="none" stroke="red" stroke-width="2" d="M573.48,-216.41C583.42,-207.5 595.83,-196.36 606.75,-186.56"/>
<polygon fill="red" stroke="red" stroke-width="2" points="609.27,-189 614.38,-179.71 604.6,-183.79 609.27,-189"/>
</g>
</g>
</svg>
