<?xml version="1.0" encoding="UTF-8" standalone="no"?>
<!DOCTYPE svg PUBLIC "-//W3C//DTD SVG 1.1//EN"
 "http://www.w3.org/Graphics/SVG/1.1/DTD/svg11.dtd">
<!-- Generated by graphviz version 2.43.0 (0)
 -->
<!-- Title: G Pages: 1 -->
<svg width="835pt" height="620pt"
 viewBox="0.00 0.00 835.00 620.00" xmlns="http://www.w3.org/2000/svg" xmlns:xlink="http://www.w3.org/1999/xlink">
<g id="graph0" class="graph" transform="scale(1 1) rotate(0) translate(4 616)">
<title>G</title>
<polygon fill="white" stroke="transparent" points="-4,4 -4,-616 831,-616 831,4 -4,4"/>
<!-- :feature:data&#45;table -->
<g id="node1" class="node">
<title>:feature:data&#45;table</title>
<ellipse fill="none" stroke="black" cx="397" cy="-594" rx="96.68" ry="18"/>
<text text-anchor="middle" x="397" y="-590.3" font-family="Times,serif" font-size="14.00">:feature:data&#45;table</text>
</g>
<!-- :core:ui -->
<g id="node2" class="node">
<title>:core:ui</title>
<ellipse fill="none" stroke="black" cx="250" cy="-522" rx="45.49" ry="18"/>
<text text-anchor="middle" x="250" y="-518.3" font-family="Times,serif" font-size="14.00">:core:ui</text>
</g>
<!-- :feature:data&#45;table&#45;&gt;:core:ui -->
<g id="edge1" class="edge">
<title>:feature:data&#45;table&#45;&gt;:core:ui</title>
<path fill="none" stroke="red" stroke-width="2" d="M363.28,-576.94C340.63,-566.16 310.77,-551.94 287.39,-540.81"/>
<polygon fill="red" stroke="red" stroke-width="2" points="288.67,-537.54 278.14,-536.4 285.66,-543.86 288.67,-537.54"/>
</g>
<!-- :core:designsystem -->
<g id="node3" class="node">
<title>:core:designsystem</title>
<ellipse fill="none" stroke="black" cx="129" cy="-378" rx="100.98" ry="18"/>
<text text-anchor="middle" x="129" y="-374.3" font-family="Times,serif" font-size="14.00">:core:designsystem</text>
</g>
<!-- :feature:data&#45;table&#45;&gt;:core:designsystem -->
<g id="edge2" class="edge">
<title>:feature:data&#45;table&#45;&gt;:core:designsystem</title>
<path fill="none" stroke="black" d="M310.69,-585.77C272.32,-578.89 228.56,-565.59 196,-540 153.86,-506.88 137.96,-442.58 132.16,-406.06"/>
<polygon fill="black" stroke="black" points="135.62,-405.51 130.73,-396.11 128.69,-406.51 135.62,-405.51"/>
</g>
<!-- :core:common -->
<g id="node4" class="node">
<title>:core:common</title>
<ellipse fill="none" stroke="black" cx="446" cy="-90" rx="75.29" ry="18"/>
<text text-anchor="middle" x="446" y="-86.3" font-family="Times,serif" font-size="14.00">:core:common</text>
</g>
<!-- :feature:data&#45;table&#45;&gt;:core:common -->
<g id="edge3" class="edge">
<title>:feature:data&#45;table&#45;&gt;:core:common</title>
<path fill="none" stroke="black" d="M397,-575.95C397,-549.29 397,-496.11 397,-451 397,-451 397,-451 397,-233 397,-190.78 416.6,-145.16 431.01,-117.33"/>
<polygon fill="black" stroke="black" points="434.23,-118.74 435.85,-108.27 428.05,-115.44 434.23,-118.74"/>
</g>
<!-- :core:model -->
<g id="node5" class="node">
<title>:core:model</title>
<ellipse fill="none" stroke="black" cx="446" cy="-18" rx="64.99" ry="18"/>
<text text-anchor="middle" x="446" y="-14.3" font-family="Times,serif" font-size="14.00">:core:model</text>
</g>
<!-- :feature:data&#45;table&#45;&gt;:core:model -->
<g id="edge4" class="edge">
<title>:feature:data&#45;table&#45;&gt;:core:model</title>
<path fill="none" stroke="black" d="M323.72,-582.15C209.01,-563.07 0,-518.98 0,-451 0,-451 0,-451 0,-161 0,-83.05 250.5,-42.18 376.03,-26.6"/>
<polygon fill="black" stroke="black" points="376.81,-30.03 386.31,-25.34 375.96,-23.08 376.81,-30.03"/>
</g>
<!-- :core:data -->
<g id="node6" class="node">
<title>:core:data</title>
<ellipse fill="none" stroke="black" cx="575" cy="-378" rx="57.39" ry="18"/>
<text text-anchor="middle" x="575" y="-374.3" font-family="Times,serif" font-size="14.00">:core:data</text>
</g>
<!-- :feature:data&#45;table&#45;&gt;:core:data -->
<g id="edge5" class="edge">
<title>:feature:data&#45;table&#45;&gt;:core:data</title>
<path fill="none" stroke="black" d="M416.63,-576.33C427.24,-566.55 439.97,-553.5 449,-540 477.99,-496.63 461.62,-472.1 495,-432 506.21,-418.53 521.71,-407.19 536.09,-398.49"/>
<polygon fill="black" stroke="black" points="537.94,-401.46 544.84,-393.42 534.43,-395.4 537.94,-401.46"/>
</g>
<!-- :core:domain -->
<g id="node7" class="node">
<title>:core:domain</title>
<ellipse fill="none" stroke="black" cx="575" cy="-450" rx="70.69" ry="18"/>
<text text-anchor="middle" x="575" y="-446.3" font-family="Times,serif" font-size="14.00">:core:domain</text>
</g>
<!-- :feature:data&#45;table&#45;&gt;:core:domain -->
<g id="edge6" class="edge">
<title>:feature:data&#45;table&#45;&gt;:core:domain</title>
<path fill="none" stroke="black" d="M429.91,-576.93C448.12,-567.35 470.69,-554.29 489,-540 513.75,-520.69 538.27,-494.42 554.75,-475.44"/>
<polygon fill="black" stroke="black" points="557.46,-477.66 561.3,-467.79 552.14,-473.11 557.46,-477.66"/>
</g>
<!-- :core:datastore -->
<g id="node8" class="node">
<title>:core:datastore</title>
<ellipse fill="none" stroke="black" cx="582" cy="-162" rx="81.49" ry="18"/>
<text text-anchor="middle" x="582" y="-158.3" font-family="Times,serif" font-size="14.00">:core:datastore</text>
</g>
<!-- :feature:data&#45;table&#45;&gt;:core:datastore -->
<g id="edge7" class="edge">
<title>:feature:data&#45;table&#45;&gt;:core:datastore</title>
<path fill="none" stroke="black" d="M404.69,-575.91C415.79,-549.62 435,-497.45 435,-451 435,-451 435,-451 435,-377 435,-295.06 509.12,-221.59 552.1,-185.87"/>
<polygon fill="black" stroke="black" points="554.45,-188.47 559.99,-179.44 550.03,-183.04 554.45,-188.47"/>
</g>
<!-- :core:ui&#45;&gt;:core:designsystem -->
<g id="edge8" class="edge">
<title>:core:ui&#45;&gt;:core:designsystem</title>
<path fill="none" stroke="black" d="M229.07,-505.91C216.11,-495.98 199.6,-482.24 187,-468 169.75,-448.51 153.89,-423.45 143.13,-404.89"/>
<polygon fill="black" stroke="black" points="146.12,-403.07 138.13,-396.1 140.03,-406.53 146.12,-403.07"/>
</g>
<!-- :core:ui&#45;&gt;:core:model -->
<g id="edge9" class="edge">
<title>:core:ui&#45;&gt;:core:model</title>
<path fill="none" stroke="black" d="M237.59,-504.32C230.95,-494.34 223.45,-481.09 220,-468 215.92,-452.53 216.15,-447.53 220,-432 224.35,-414.44 232.83,-413.01 239,-396 252.79,-357.98 258,-347.45 258,-307 258,-307 258,-307 258,-161 258,-93.47 336.18,-53.99 391.71,-34.46"/>
<polygon fill="black" stroke="black" points="393.1,-37.68 401.45,-31.15 390.85,-31.05 393.1,-37.68"/>
</g>
<!-- :core:testing -->
<g id="node9" class="node">
<title>:core:testing</title>
<ellipse fill="none" stroke="black" cx="299" cy="-450" rx="69.59" ry="18"/>
<text text-anchor="middle" x="299" y="-446.3" font-family="Times,serif" font-size="14.00">:core:testing</text>
</g>
<!-- :core:ui&#45;&gt;:core:testing -->
<g id="edge10" class="edge">
<title>:core:ui&#45;&gt;:core:testing</title>
<path fill="none" stroke="red" stroke-width="2" d="M261.61,-504.41C267.51,-495.99 274.79,-485.58 281.36,-476.2"/>
<polygon fill="red" stroke="red" stroke-width="2" points="284.26,-478.16 287.13,-467.96 278.53,-474.14 284.26,-478.16"/>
</g>
<!-- :core:common&#45;&gt;:core:model -->
<g id="edge19" class="edge">
<title>:core:common&#45;&gt;:core:model</title>
<path fill="none" stroke="red" stroke-width="2" d="M446,-71.7C446,-63.98 446,-54.71 446,-46.11"/>
<polygon fill="red" stroke="red" stroke-width="2" points="449.5,-46.1 446,-36.1 442.5,-46.1 449.5,-46.1"/>
</g>
<!-- :core:data&#45;&gt;:core:common -->
<g id="edge15" class="edge">
<title>:core:data&#45;&gt;:core:common</title>
<path fill="none" stroke="black" d="M541.09,-363.23C523.79,-354.49 503.95,-341.51 492,-324 448.44,-260.15 444.01,-164.86 444.76,-118.42"/>
<polygon fill="black" stroke="black" points="448.26,-118.33 445.02,-108.24 441.26,-118.14 448.26,-118.33"/>
</g>
<!-- :core:data&#45;&gt;:core:datastore -->
<g id="edge16" class="edge">
<title>:core:data&#45;&gt;:core:datastore</title>
<path fill="none" stroke="black" d="M611.58,-364.09C629.59,-355.67 649.62,-342.7 660,-324 667.76,-310.01 665.19,-303.13 660,-288 653.42,-268.83 643.22,-268.88 632,-252 618.51,-231.7 605.08,-207.52 595.55,-189.5"/>
<polygon fill="black" stroke="black" points="598.41,-187.42 590.67,-180.18 592.21,-190.66 598.41,-187.42"/>
</g>
<!-- :core:network -->
<g id="node10" class="node">
<title>:core:network</title>
<ellipse fill="none" stroke="black" cx="576" cy="-306" rx="74.99" ry="18"/>
<text text-anchor="middle" x="576" y="-302.3" font-family="Times,serif" font-size="14.00">:core:network</text>
</g>
<!-- :core:data&#45;&gt;:core:network -->
<g id="edge17" class="edge">
<title>:core:data&#45;&gt;:core:network</title>
<path fill="none" stroke="red" stroke-width="2" d="M575.25,-359.7C575.36,-351.98 575.49,-342.71 575.61,-334.11"/>
<polygon fill="red" stroke="red" stroke-width="2" points="579.11,-334.15 575.76,-324.1 572.11,-334.05 579.11,-334.15"/>
</g>
<!-- :core:database -->
<g id="node11" class="node">
<title>:core:database</title>
<ellipse fill="none" stroke="black" cx="720" cy="-234" rx="78.79" ry="18"/>
<text text-anchor="middle" x="720" y="-230.3" font-family="Times,serif" font-size="14.00">:core:database</text>
</g>
<!-- :core:data&#45;&gt;:core:database -->
<g id="edge18" class="edge">
<title>:core:data&#45;&gt;:core:database</title>
<path fill="none" stroke="black" d="M619.76,-366.69C644.51,-358.83 674.01,-345.58 693,-324 708.12,-306.82 714.77,-281.38 717.7,-262.09"/>
<polygon fill="black" stroke="black" points="721.18,-262.46 718.97,-252.1 714.24,-261.58 721.18,-262.46"/>
</g>
<!-- :core:domain&#45;&gt;:core:model -->
<g id="edge29" class="edge">
<title>:core:domain&#45;&gt;:core:model</title>
<path fill="none" stroke="black" d="M637.29,-441.3C711.92,-428.18 827,-393.88 827,-307 827,-307 827,-307 827,-161 827,-94.34 619.65,-48.75 510.88,-29.43"/>
<polygon fill="black" stroke="black" points="511.45,-25.97 500.99,-27.69 510.24,-32.87 511.45,-25.97"/>
</g>
<!-- :core:domain&#45;&gt;:core:data -->
<g id="edge28" class="edge">
<title>:core:domain&#45;&gt;:core:data</title>
<path fill="none" stroke="black" d="M575,-431.7C575,-423.98 575,-414.71 575,-406.11"/>
<polygon fill="black" stroke="black" points="578.5,-406.1 575,-396.1 571.5,-406.1 578.5,-406.1"/>
</g>
<!-- :core:datastore&#45;&gt;:core:common -->
<g id="edge21" class="edge">
<title>:core:datastore&#45;&gt;:core:common</title>
<path fill="none" stroke="red" stroke-width="2" d="M551.48,-145.29C531.97,-135.25 506.47,-122.12 485.43,-111.3"/>
<polygon fill="red" stroke="red" stroke-width="2" points="486.91,-108.12 476.42,-106.66 483.71,-114.35 486.91,-108.12"/>
</g>
<!-- :core:datastore&#45;&gt;:core:model -->
<g id="edge20" class="edge">
<title>:core:datastore&#45;&gt;:core:model</title>
<path fill="none" stroke="black" d="M575.05,-144C566.57,-124.82 550.77,-93.49 530,-72 517.5,-59.06 501.23,-47.87 486.35,-39.14"/>
<polygon fill="black" stroke="black" points="487.73,-35.9 477.3,-34.03 484.29,-42 487.73,-35.9"/>
</g>
<!-- :core:testing&#45;&gt;:core:designsystem -->
<g id="edge14" class="edge">
<title>:core:testing&#45;&gt;:core:designsystem</title>
<path fill="none" stroke="black" d="M263.36,-434.33C238.19,-423.96 204.19,-409.96 176.68,-398.63"/>
<polygon fill="black" stroke="black" points="177.83,-395.32 167.25,-394.75 175.16,-401.79 177.83,-395.32"/>
</g>
<!-- :core:testing&#45;&gt;:core:common -->
<g id="edge13" class="edge">
<title>:core:testing&#45;&gt;:core:common</title>
<path fill="none" stroke="black" d="M310.6,-431.93C327.01,-406.09 355,-354.97 355,-307 355,-307 355,-307 355,-233 355,-191.53 360,-178.5 383,-144 390.84,-132.25 402.01,-121.67 412.77,-113.12"/>
<polygon fill="black" stroke="black" points="415.01,-115.81 420.87,-106.98 410.78,-110.23 415.01,-115.81"/>
</g>
<!-- :core:testing&#45;&gt;:core:model -->
<g id="edge12" class="edge">
<title>:core:testing&#45;&gt;:core:model</title>
<path fill="none" stroke="black" d="M301.17,-431.98C304.38,-405.37 310,-352.25 310,-307 310,-307 310,-307 310,-161 310,-104.83 366.19,-62.2 406.34,-38.91"/>
<polygon fill="black" stroke="black" points="408.14,-41.91 415.14,-33.96 404.71,-35.81 408.14,-41.91"/>
</g>
<!-- :core:testing&#45;&gt;:core:data -->
<g id="edge11" class="edge">
<title>:core:testing&#45;&gt;:core:data</title>
<path fill="none" stroke="red" stroke-width="2" d="M346.76,-436.89C395.65,-424.49 471.45,-405.26 522.12,-392.41"/>
<polygon fill="red" stroke="red" stroke-width="2" points="523.07,-395.78 531.9,-389.93 521.35,-389 523.07,-395.78"/>
</g>
<!-- :core:network&#45;&gt;:core:common -->
<g id="edge24" class="edge">
<title>:core:network&#45;&gt;:core:common</title>
<path fill="none" stroke="black" d="M563.67,-288.01C546.7,-264.34 515.57,-219.83 492,-180 479.82,-159.41 467.45,-135.26 458.61,-117.31"/>
<polygon fill="black" stroke="black" points="461.62,-115.49 454.08,-108.04 455.33,-118.57 461.62,-115.49"/>
</g>
<!-- :core:network&#45;&gt;:core:datastore -->
<g id="edge23" class="edge">
<title>:core:network&#45;&gt;:core:datastore</title>
<path fill="none" stroke="black" d="M576.72,-287.87C577.75,-263.67 579.62,-219.21 580.84,-190.39"/>
<polygon fill="black" stroke="black" points="584.35,-190.33 581.27,-180.19 577.35,-190.03 584.35,-190.33"/>
</g>
<!-- :core:network&#45;&gt;:core:database -->
<g id="edge22" class="edge">
<title>:core:network&#45;&gt;:core:database</title>
<path fill="none" stroke="red" stroke-width="2" d="M607.6,-289.64C628.56,-279.45 656.27,-265.98 678.93,-254.97"/>
<polygon fill="red" stroke="red" stroke-width="2" points="680.51,-258.09 687.97,-250.57 677.45,-251.79 680.51,-258.09"/>
</g>
<!-- :core:database&#45;&gt;:core:common -->
<g id="edge25" class="edge">
<title>:core:database&#45;&gt;:core:common</title>
<path fill="none" stroke="black" d="M715.41,-215.76C709.09,-195.43 695.7,-162.14 672,-144 631.76,-113.2 576.53,-99.87 530.74,-94.28"/>
<polygon fill="black" stroke="black" points="530.85,-90.77 520.52,-93.14 530.07,-97.73 530.85,-90.77"/>
</g>
<!-- :core:database&#45;&gt;:core:model -->
<g id="edge26" class="edge">
<title>:core:database&#45;&gt;:core:model</title>
<path fill="none" stroke="black" d="M720.11,-215.76C719.36,-196.35 715.42,-164.81 699,-144 650.3,-82.28 563.25,-48.82 505.06,-32.45"/>
<polygon fill="black" stroke="black" points="505.83,-29.03 495.26,-29.77 503.99,-35.78 505.83,-29.03"/>
</g>
<!-- :core:database&#45;&gt;:core:datastore -->
<g id="edge27" class="edge">
<title>:core:database&#45;&gt;:core:datastore</title>
<path fill="none" stroke="red" stroke-width="2" d="M689.03,-217.29C669.23,-207.25 643.36,-194.12 622.01,-183.3"/>
<polygon fill="red" stroke="red" stroke-width="2" points="623.37,-180.06 612.87,-178.66 620.2,-186.3 623.37,-180.06"/>
</g>
</g>
</svg>
