<?xml version="1.0" encoding="UTF-8" standalone="no"?>
<!DOCTYPE svg PUBLIC "-//W3C//DTD SVG 1.1//EN"
 "http://www.w3.org/Graphics/SVG/1.1/DTD/svg11.dtd">
<!-- Generated by graphviz version 2.43.0 (0)
 -->
<!-- Title: G Pages: 1 -->
<svg width="898pt" height="692pt"
 viewBox="0.00 0.00 898.00 692.00" xmlns="http://www.w3.org/2000/svg" xmlns:xlink="http://www.w3.org/1999/xlink">
<g id="graph0" class="graph" transform="scale(1 1) rotate(0) translate(4 688)">
<title>G</title>
<polygon fill="white" stroke="transparent" points="-4,4 -4,-688 894,-688 894,4 -4,4"/>
<!-- :feature:client -->
<g id="node1" class="node">
<title>:feature:client</title>
<ellipse fill="none" stroke="black" cx="467" cy="-666" rx="76.09" ry="18"/>
<text text-anchor="middle" x="467" y="-662.3" font-family="Times,serif" font-size="14.00">:feature:client</text>
</g>
<!-- :core:ui -->
<g id="node2" class="node">
<title>:core:ui</title>
<ellipse fill="none" stroke="black" cx="111" cy="-522" rx="45.49" ry="18"/>
<text text-anchor="middle" x="111" y="-518.3" font-family="Times,serif" font-size="14.00">:core:ui</text>
</g>
<!-- :feature:client&#45;&gt;:core:ui -->
<g id="edge1" class="edge">
<title>:feature:client&#45;&gt;:core:ui</title>
<path fill="none" stroke="black" d="M396.84,-658.87C321.12,-651.15 206.45,-635.93 170,-612 147.23,-597.05 131.16,-569.93 121.6,-549.55"/>
<polygon fill="black" stroke="black" points="124.69,-547.88 117.43,-540.17 118.29,-550.73 124.69,-547.88"/>
</g>
<!-- :core:designsystem -->
<g id="node3" class="node">
<title>:core:designsystem</title>
<ellipse fill="none" stroke="black" cx="205" cy="-378" rx="100.98" ry="18"/>
<text text-anchor="middle" x="205" y="-374.3" font-family="Times,serif" font-size="14.00">:core:designsystem</text>
</g>
<!-- :feature:client&#45;&gt;:core:designsystem -->
<g id="edge2" class="edge">
<title>:feature:client&#45;&gt;:core:designsystem</title>
<path fill="none" stroke="black" d="M402.65,-656.2C368.91,-648.93 328.57,-635.75 299,-612 241.41,-565.74 239.44,-538.05 216,-468 209.3,-447.98 206.61,-424.19 205.56,-406.25"/>
<polygon fill="black" stroke="black" points="209.06,-406.01 205.11,-396.17 202.06,-406.32 209.06,-406.01"/>
</g>
<!-- :core:common -->
<g id="node4" class="node">
<title>:core:common</title>
<ellipse fill="none" stroke="black" cx="467" cy="-90" rx="75.29" ry="18"/>
<text text-anchor="middle" x="467" y="-86.3" font-family="Times,serif" font-size="14.00">:core:common</text>
</g>
<!-- :feature:client&#45;&gt;:core:common -->
<g id="edge3" class="edge">
<title>:feature:client&#45;&gt;:core:common</title>
<path fill="none" stroke="black" d="M486.01,-648.38C495.48,-638.82 505.96,-625.95 511,-612 516.43,-596.95 511.72,-591.98 511,-576 503.09,-401.27 479.23,-192.21 470.36,-118.42"/>
<polygon fill="black" stroke="black" points="473.8,-117.65 469.12,-108.14 466.85,-118.49 473.8,-117.65"/>
</g>
<!-- :core:model -->
<g id="node5" class="node">
<title>:core:model</title>
<ellipse fill="none" stroke="black" cx="410" cy="-18" rx="64.99" ry="18"/>
<text text-anchor="middle" x="410" y="-14.3" font-family="Times,serif" font-size="14.00">:core:model</text>
</g>
<!-- :feature:client&#45;&gt;:core:model -->
<g id="edge4" class="edge">
<title>:feature:client&#45;&gt;:core:model</title>
<path fill="none" stroke="black" d="M392.29,-662.31C322.97,-657.71 218,-645.32 133,-612 66.78,-586.04 0,-594.12 0,-523 0,-523 0,-523 0,-161 0,-116.27 10.46,-97.81 47,-72 92.25,-40.04 243.65,-27.04 336.02,-21.99"/>
<polygon fill="black" stroke="black" points="336.35,-25.48 346.15,-21.46 335.98,-18.49 336.35,-25.48"/>
</g>
<!-- :core:data -->
<g id="node6" class="node">
<title>:core:data</title>
<ellipse fill="none" stroke="black" cx="584" cy="-378" rx="57.39" ry="18"/>
<text text-anchor="middle" x="584" y="-374.3" font-family="Times,serif" font-size="14.00">:core:data</text>
</g>
<!-- :feature:client&#45;&gt;:core:data -->
<g id="edge5" class="edge">
<title>:feature:client&#45;&gt;:core:data</title>
<path fill="none" stroke="black" d="M500.61,-649.69C516.23,-640.87 533.6,-628.27 544,-612 585.46,-547.18 587.65,-452.34 585.85,-406.22"/>
<polygon fill="black" stroke="black" points="589.34,-405.92 585.36,-396.1 582.35,-406.26 589.34,-405.92"/>
</g>
<!-- :core:domain -->
<g id="node7" class="node">
<title>:core:domain</title>
<ellipse fill="none" stroke="black" cx="705" cy="-450" rx="70.69" ry="18"/>
<text text-anchor="middle" x="705" y="-446.3" font-family="Times,serif" font-size="14.00">:core:domain</text>
</g>
<!-- :feature:client&#45;&gt;:core:domain -->
<g id="edge6" class="edge">
<title>:feature:client&#45;&gt;:core:domain</title>
<path fill="none" stroke="black" d="M527.48,-655C558.01,-647.42 593.97,-634.34 620,-612 662.24,-575.75 686.59,-513.18 697.67,-477.66"/>
<polygon fill="black" stroke="black" points="701.06,-478.56 700.57,-467.98 694.35,-476.56 701.06,-478.56"/>
</g>
<!-- :core:datastore -->
<g id="node8" class="node">
<title>:core:datastore</title>
<ellipse fill="none" stroke="black" cx="738" cy="-162" rx="81.49" ry="18"/>
<text text-anchor="middle" x="738" y="-158.3" font-family="Times,serif" font-size="14.00">:core:datastore</text>
</g>
<!-- :feature:client&#45;&gt;:core:datastore -->
<g id="edge7" class="edge">
<title>:feature:client&#45;&gt;:core:datastore</title>
<path fill="none" stroke="black" d="M532.63,-656.82C651.44,-640.17 890,-597.46 890,-523 890,-523 890,-523 890,-377 890,-294.2 813.43,-221.14 768.99,-185.7"/>
<polygon fill="black" stroke="black" points="771.12,-182.92 761.09,-179.52 766.81,-188.44 771.12,-182.92"/>
</g>
<!-- :feature:data&#45;table -->
<g id="node9" class="node">
<title>:feature:data&#45;table</title>
<ellipse fill="none" stroke="black" cx="405" cy="-594" rx="96.68" ry="18"/>
<text text-anchor="middle" x="405" y="-590.3" font-family="Times,serif" font-size="14.00">:feature:data&#45;table</text>
</g>
<!-- :feature:client&#45;&gt;:feature:data&#45;table -->
<g id="edge8" class="edge">
<title>:feature:client&#45;&gt;:feature:data&#45;table</title>
<path fill="none" stroke="red" stroke-width="2" d="M451.99,-648.05C444.38,-639.46 434.99,-628.86 426.61,-619.4"/>
<polygon fill="red" stroke="red" stroke-width="2" points="429.12,-616.95 419.87,-611.79 423.88,-621.6 429.12,-616.95"/>
</g>
<!-- :core:ui&#45;&gt;:core:designsystem -->
<g id="edge9" class="edge">
<title>:core:ui&#45;&gt;:core:designsystem</title>
<path fill="none" stroke="black" d="M121.52,-504.14C132.81,-486.14 151.37,-456.86 168,-432 174.08,-422.91 180.9,-413.05 187.01,-404.33"/>
<polygon fill="black" stroke="black" points="189.93,-406.26 192.83,-396.07 184.21,-402.23 189.93,-406.26"/>
</g>
<!-- :core:ui&#45;&gt;:core:model -->
<g id="edge10" class="edge">
<title>:core:ui&#45;&gt;:core:model</title>
<path fill="none" stroke="black" d="M103.92,-503.85C93.69,-477.49 76,-425.21 76,-379 76,-379 76,-379 76,-161 76,-49.33 236.08,-24.22 334.59,-19.34"/>
<polygon fill="black" stroke="black" points="334.97,-22.83 344.81,-18.9 334.67,-15.83 334.97,-22.83"/>
</g>
<!-- :core:testing -->
<g id="node10" class="node">
<title>:core:testing</title>
<ellipse fill="none" stroke="black" cx="318" cy="-450" rx="69.59" ry="18"/>
<text text-anchor="middle" x="318" y="-446.3" font-family="Times,serif" font-size="14.00">:core:testing</text>
</g>
<!-- :core:ui&#45;&gt;:core:testing -->
<g id="edge11" class="edge">
<title>:core:ui&#45;&gt;:core:testing</title>
<path fill="none" stroke="red" stroke-width="2" d="M144.72,-509.6C178.06,-498.32 229.47,-480.94 267.65,-468.03"/>
<polygon fill="red" stroke="red" stroke-width="2" points="269.19,-471.2 277.54,-464.68 266.95,-464.57 269.19,-471.2"/>
</g>
<!-- :core:common&#45;&gt;:core:model -->
<g id="edge20" class="edge">
<title>:core:common&#45;&gt;:core:model</title>
<path fill="none" stroke="red" stroke-width="2" d="M453.2,-72.05C446.27,-63.54 437.74,-53.07 430.1,-43.68"/>
<polygon fill="red" stroke="red" stroke-width="2" points="432.7,-41.33 423.67,-35.79 427.27,-45.75 432.7,-41.33"/>
</g>
<!-- :core:data&#45;&gt;:core:common -->
<g id="edge16" class="edge">
<title>:core:data&#45;&gt;:core:common</title>
<path fill="none" stroke="black" d="M573.61,-360.12C559.42,-336.57 533.83,-292.2 517,-252 497.9,-206.4 482.24,-150.89 473.79,-118.39"/>
<polygon fill="black" stroke="black" points="477.08,-117.12 471.21,-108.3 470.3,-118.86 477.08,-117.12"/>
</g>
<!-- :core:data&#45;&gt;:core:datastore -->
<g id="edge17" class="edge">
<title>:core:data&#45;&gt;:core:datastore</title>
<path fill="none" stroke="black" d="M640.45,-375.08C677.83,-370.51 724.36,-357.79 749,-324 777.84,-284.44 762.18,-223.87 749.34,-189.4"/>
<polygon fill="black" stroke="black" points="752.56,-188.04 745.66,-180.01 746.04,-190.59 752.56,-188.04"/>
</g>
<!-- :core:network -->
<g id="node11" class="node">
<title>:core:network</title>
<ellipse fill="none" stroke="black" cx="665" cy="-306" rx="74.99" ry="18"/>
<text text-anchor="middle" x="665" y="-302.3" font-family="Times,serif" font-size="14.00">:core:network</text>
</g>
<!-- :core:data&#45;&gt;:core:network -->
<g id="edge18" class="edge">
<title>:core:data&#45;&gt;:core:network</title>
<path fill="none" stroke="red" stroke-width="2" d="M602.79,-360.76C613.27,-351.71 626.5,-340.27 638.07,-330.28"/>
<polygon fill="red" stroke="red" stroke-width="2" points="640.48,-332.82 645.75,-323.63 635.9,-327.52 640.48,-332.82"/>
</g>
<!-- :core:database -->
<g id="node12" class="node">
<title>:core:database</title>
<ellipse fill="none" stroke="black" cx="631" cy="-234" rx="78.79" ry="18"/>
<text text-anchor="middle" x="631" y="-230.3" font-family="Times,serif" font-size="14.00">:core:database</text>
</g>
<!-- :core:data&#45;&gt;:core:database -->
<g id="edge19" class="edge">
<title>:core:data&#45;&gt;:core:database</title>
<path fill="none" stroke="black" d="M579.49,-359.91C575.5,-341.46 571.64,-311.56 581,-288 585.44,-276.82 593.49,-266.63 601.85,-258.23"/>
<polygon fill="black" stroke="black" points="604.29,-260.74 609.19,-251.34 599.5,-255.63 604.29,-260.74"/>
</g>
<!-- :core:domain&#45;&gt;:core:model -->
<g id="edge30" class="edge">
<title>:core:domain&#45;&gt;:core:model</title>
<path fill="none" stroke="black" d="M729.63,-433.11C759.45,-412.23 808.16,-372.46 828,-324 858.32,-249.97 870.95,-211.49 828,-144 790.03,-84.34 585.07,-45.21 476.92,-28.4"/>
<polygon fill="black" stroke="black" points="477.18,-24.9 466.76,-26.84 476.12,-31.82 477.18,-24.9"/>
</g>
<!-- :core:domain&#45;&gt;:core:data -->
<g id="edge29" class="edge">
<title>:core:domain&#45;&gt;:core:data</title>
<path fill="none" stroke="black" d="M677.85,-433.29C660.48,-423.24 637.79,-410.12 619.06,-399.28"/>
<polygon fill="black" stroke="black" points="620.64,-396.15 610.23,-394.18 617.14,-402.21 620.64,-396.15"/>
</g>
<!-- :core:datastore&#45;&gt;:core:common -->
<g id="edge22" class="edge">
<title>:core:datastore&#45;&gt;:core:common</title>
<path fill="none" stroke="red" stroke-width="2" d="M687.34,-147.92C641.72,-136.13 574.62,-118.8 526.47,-106.36"/>
<polygon fill="red" stroke="red" stroke-width="2" points="527.05,-102.9 516.49,-103.78 525.3,-109.67 527.05,-102.9"/>
</g>
<!-- :core:datastore&#45;&gt;:core:model -->
<g id="edge21" class="edge">
<title>:core:datastore&#45;&gt;:core:model</title>
<path fill="none" stroke="black" d="M723.56,-144.15C705.26,-123.89 671.76,-90.34 636,-72 587.22,-46.98 526.48,-33.59 480.25,-26.53"/>
<polygon fill="black" stroke="black" points="480.72,-23.06 470.32,-25.07 479.71,-29.99 480.72,-23.06"/>
</g>
<!-- :feature:data&#45;table&#45;&gt;:core:ui -->
<g id="edge31" class="edge">
<title>:feature:data&#45;table&#45;&gt;:core:ui</title>
<path fill="none" stroke="red" stroke-width="2" d="M347.97,-579.42C293.02,-566.34 210.82,-546.77 159.09,-534.45"/>
<polygon fill="red" stroke="red" stroke-width="2" points="159.71,-531 149.17,-532.09 158.09,-537.81 159.71,-531"/>
</g>
<!-- :feature:data&#45;table&#45;&gt;:core:designsystem -->
<g id="edge32" class="edge">
<title>:feature:data&#45;table&#45;&gt;:core:designsystem</title>
<path fill="none" stroke="black" d="M374.2,-576.93C337.34,-556.28 275.99,-517.15 239,-468 225.07,-449.49 216.2,-424.59 211.03,-405.84"/>
<polygon fill="black" stroke="black" points="214.42,-404.94 208.53,-396.13 207.64,-406.69 214.42,-404.94"/>
</g>
<!-- :feature:data&#45;table&#45;&gt;:core:common -->
<g id="edge33" class="edge">
<title>:feature:data&#45;table&#45;&gt;:core:common</title>
<path fill="none" stroke="black" d="M405,-575.71C405.15,-503.58 407.49,-226.55 434,-144 437.07,-134.45 442.23,-124.88 447.57,-116.55"/>
<polygon fill="black" stroke="black" points="450.61,-118.3 453.34,-108.06 444.83,-114.36 450.61,-118.3"/>
</g>
<!-- :feature:data&#45;table&#45;&gt;:core:model -->
<g id="edge34" class="edge">
<title>:feature:data&#45;table&#45;&gt;:core:model</title>
<path fill="none" stroke="black" d="M309.9,-590.38C219.62,-585.85 92.58,-573.53 57,-540 27.57,-512.26 38,-491.45 38,-451 38,-451 38,-451 38,-161 38,-115.19 52.27,-97.98 90,-72 129.12,-45.06 255.66,-30.61 337.41,-23.89"/>
<polygon fill="black" stroke="black" points="337.7,-27.37 347.39,-23.09 337.14,-20.4 337.7,-27.37"/>
</g>
<!-- :feature:data&#45;table&#45;&gt;:core:data -->
<g id="edge35" class="edge">
<title>:feature:data&#45;table&#45;&gt;:core:data</title>
<path fill="none" stroke="black" d="M413.2,-575.86C418.13,-565.5 424.49,-552.02 430,-540 451.87,-492.24 441.71,-469.98 478,-432 493.64,-415.64 515.41,-403.55 535.15,-395.09"/>
<polygon fill="black" stroke="black" points="536.7,-398.23 544.65,-391.22 534.06,-391.75 536.7,-398.23"/>
</g>
<!-- :feature:data&#45;table&#45;&gt;:core:domain -->
<g id="edge36" class="edge">
<title>:feature:data&#45;table&#45;&gt;:core:domain</title>
<path fill="none" stroke="black" d="M438.83,-576.99C494.25,-550.76 604.18,-498.72 663.96,-470.43"/>
<polygon fill="black" stroke="black" points="665.57,-473.54 673.11,-466.1 662.57,-467.21 665.57,-473.54"/>
</g>
<!-- :feature:data&#45;table&#45;&gt;:core:datastore -->
<g id="edge37" class="edge">
<title>:feature:data&#45;table&#45;&gt;:core:datastore</title>
<path fill="none" stroke="black" d="M425.17,-576.23C447.2,-558.06 483.66,-528.39 516,-504 529.81,-493.59 761.53,-339.08 770,-324 793.53,-282.11 789.42,-261.84 775,-216 771.82,-205.88 765.94,-196.01 759.8,-187.59"/>
<polygon fill="black" stroke="black" points="762.55,-185.43 753.65,-179.69 757.03,-189.73 762.55,-185.43"/>
</g>
<!-- :core:testing&#45;&gt;:core:designsystem -->
<g id="edge15" class="edge">
<title>:core:testing&#45;&gt;:core:designsystem</title>
<path fill="none" stroke="black" d="M292.36,-433.12C276.94,-423.57 257.11,-411.28 240.23,-400.83"/>
<polygon fill="black" stroke="black" points="242.06,-397.84 231.72,-395.55 238.38,-403.79 242.06,-397.84"/>
</g>
<!-- :core:testing&#45;&gt;:core:common -->
<g id="edge14" class="edge">
<title>:core:testing&#45;&gt;:core:common</title>
<path fill="none" stroke="black" d="M329.19,-431.87C345.01,-405.96 372,-354.74 372,-307 372,-307 372,-307 372,-233 372,-192.03 372.99,-177.89 396,-144 404.48,-131.51 416.9,-120.8 428.99,-112.35"/>
<polygon fill="black" stroke="black" points="431.26,-115.04 437.67,-106.6 427.4,-109.2 431.26,-115.04"/>
</g>
<!-- :core:testing&#45;&gt;:core:model -->
<g id="edge13" class="edge">
<title>:core:testing&#45;&gt;:core:model</title>
<path fill="none" stroke="black" d="M321.24,-431.58C325.91,-404.87 334,-352.15 334,-307 334,-307 334,-307 334,-161 334,-115.39 364.86,-70.25 387.25,-43.5"/>
<polygon fill="black" stroke="black" points="390,-45.67 393.88,-35.81 384.7,-41.09 390,-45.67"/>
</g>
<!-- :core:testing&#45;&gt;:core:data -->
<g id="edge12" class="edge">
<title>:core:testing&#45;&gt;:core:data</title>
<path fill="none" stroke="red" stroke-width="2" d="M364.94,-436.65C411.69,-424.35 483.28,-405.5 531.79,-392.74"/>
<polygon fill="red" stroke="red" stroke-width="2" points="532.7,-396.12 541.48,-390.19 530.91,-389.35 532.7,-396.12"/>
</g>
<!-- :core:network&#45;&gt;:core:common -->
<g id="edge25" class="edge">
<title>:core:network&#45;&gt;:core:common</title>
<path fill="none" stroke="black" d="M614.32,-292.76C590.07,-284.68 562.21,-271.81 543,-252 507.04,-214.91 523.3,-190.11 500,-144 495.36,-134.81 489.61,-125.14 484.23,-116.62"/>
<polygon fill="black" stroke="black" points="487.17,-114.72 478.81,-108.21 481.29,-118.51 487.17,-114.72"/>
</g>
<!-- :core:network&#45;&gt;:core:datastore -->
<g id="edge24" class="edge">
<title>:core:network&#45;&gt;:core:datastore</title>
<path fill="none" stroke="black" d="M687.01,-288.64C698.24,-279.16 711.15,-266.27 719,-252 729.5,-232.9 734.2,-208.55 736.3,-190.14"/>
<polygon fill="black" stroke="black" points="739.8,-190.37 737.26,-180.08 732.83,-189.7 739.8,-190.37"/>
</g>
<!-- :core:network&#45;&gt;:core:database -->
<g id="edge23" class="edge">
<title>:core:network&#45;&gt;:core:database</title>
<path fill="none" stroke="red" stroke-width="2" d="M656.77,-288.05C652.9,-280.09 648.2,-270.41 643.88,-261.51"/>
<polygon fill="red" stroke="red" stroke-width="2" points="646.91,-259.74 639.39,-252.28 640.61,-262.8 646.91,-259.74"/>
</g>
<!-- :core:database&#45;&gt;:core:common -->
<g id="edge26" class="edge">
<title>:core:database&#45;&gt;:core:common</title>
<path fill="none" stroke="black" d="M614.77,-216.29C596.65,-197.91 566.15,-167.82 538,-144 525.5,-133.42 511.12,-122.48 498.59,-113.3"/>
<polygon fill="black" stroke="black" points="500.4,-110.29 490.25,-107.26 496.29,-115.96 500.4,-110.29"/>
</g>
<!-- :core:database&#45;&gt;:core:model -->
<g id="edge27" class="edge">
<title>:core:database&#45;&gt;:core:model</title>
<path fill="none" stroke="black" d="M626.97,-215.88C618.47,-183.38 595.7,-112.38 551,-72 528.96,-52.1 498.73,-39.42 471.91,-31.48"/>
<polygon fill="black" stroke="black" points="472.78,-28.09 462.21,-28.76 470.9,-34.83 472.78,-28.09"/>
</g>
<!-- :core:database&#45;&gt;:core:datastore -->
<g id="edge28" class="edge">
<title>:core:database&#45;&gt;:core:datastore</title>
<path fill="none" stroke="red" stroke-width="2" d="M655.82,-216.76C670.3,-207.29 688.76,-195.21 704.51,-184.91"/>
<polygon fill="red" stroke="red" stroke-width="2" points="706.49,-187.79 712.95,-179.39 702.66,-181.94 706.49,-187.79"/>
</g>
</g>
</svg>
