<?xml version="1.0" encoding="UTF-8" standalone="no"?>
<!DOCTYPE svg PUBLIC "-//W3C//DTD SVG 1.1//EN"
 "http://www.w3.org/Graphics/SVG/1.1/DTD/svg11.dtd">
<!-- Generated by graphviz version 2.43.0 (0)
 -->
<!-- Title: G Pages: 1 -->
<svg width="217pt" height="188pt"
 viewBox="0.00 0.00 216.64 188.00" xmlns="http://www.w3.org/2000/svg" xmlns:xlink="http://www.w3.org/1999/xlink">
<g id="graph0" class="graph" transform="scale(1 1) rotate(0) translate(4 184)">
<title>G</title>
<polygon fill="white" stroke="transparent" points="-4,4 -4,-184 212.64,-184 212.64,4 -4,4"/>
<!-- :core:datastore -->
<g id="node1" class="node">
<title>:core:datastore</title>
<ellipse fill="none" stroke="black" cx="81.24" cy="-162" rx="81.49" ry="18"/>
<text text-anchor="middle" x="81.24" y="-158.3" font-family="Times,serif" font-size="14.00">:core:datastore</text>
</g>
<!-- :core:model -->
<g id="node2" class="node">
<title>:core:model</title>
<ellipse fill="none" stroke="black" cx="81.24" cy="-18" rx="64.99" ry="18"/>
<text text-anchor="middle" x="81.24" y="-14.3" font-family="Times,serif" font-size="14.00">:core:model</text>
</g>
<!-- :core:datastore&#45;&gt;:core:model -->
<g id="edge1" class="edge">
<title>:core:datastore&#45;&gt;:core:model</title>
<path fill="none" stroke="black" d="M67.68,-143.97C60.68,-134.09 52.88,-121.05 49.24,-108 44.95,-92.59 44.95,-87.41 49.24,-72 51.91,-62.42 56.83,-52.84 62.03,-44.51"/>
<polygon fill="black" stroke="black" points="65.05,-46.29 67.68,-36.03 59.22,-42.41 65.05,-46.29"/>
</g>
<!-- :core:common -->
<g id="node3" class="node">
<title>:core:common</title>
<ellipse fill="none" stroke="black" cx="133.24" cy="-90" rx="75.29" ry="18"/>
<text text-anchor="middle" x="133.24" y="-86.3" font-family="Times,serif" font-size="14.00">:core:common</text>
</g>
<!-- :core:datastore&#45;&gt;:core:common -->
<g id="edge2" class="edge">
<title>:core:datastore&#45;&gt;:core:common</title>
<path fill="none" stroke="red" stroke-width="2" d="M93.83,-144.05C100.09,-135.63 107.78,-125.28 114.7,-115.97"/>
<polygon fill="red" stroke="red" stroke-width="2" points="117.62,-117.9 120.77,-107.79 112,-113.73 117.62,-117.9"/>
</g>
<!-- :core:common&#45;&gt;:core:model -->
<g id="edge3" class="edge">
<title>:core:common&#45;&gt;:core:model</title>
<path fill="none" stroke="red" stroke-width="2" d="M120.66,-72.05C114.4,-63.63 106.71,-53.28 99.79,-43.97"/>
<polygon fill="red" stroke="red" stroke-width="2" points="102.49,-41.73 93.71,-35.79 96.87,-45.9 102.49,-41.73"/>
</g>
</g>
</svg>
