<?xml version="1.0" encoding="UTF-8" standalone="no"?>
<!DOCTYPE svg PUBLIC "-//W3C//DTD SVG 1.1//EN"
 "http://www.w3.org/Graphics/SVG/1.1/DTD/svg11.dtd">
<!-- Generated by graphviz version 2.43.0 (0)
 -->
<!-- Title: G Pages: 1 -->
<svg width="277pt" height="260pt"
 viewBox="0.00 0.00 276.89 260.00" xmlns="http://www.w3.org/2000/svg" xmlns:xlink="http://www.w3.org/1999/xlink">
<g id="graph0" class="graph" transform="scale(1 1) rotate(0) translate(4 256)">
<title>G</title>
<polygon fill="white" stroke="transparent" points="-4,4 -4,-256 272.89,-256 272.89,4 -4,4"/>
<!-- :core:database -->
<g id="node1" class="node">
<title>:core:database</title>
<ellipse fill="none" stroke="black" cx="78.64" cy="-234" rx="78.79" ry="18"/>
<text text-anchor="middle" x="78.64" y="-230.3" font-family="Times,serif" font-size="14.00">:core:database</text>
</g>
<!-- :core:common -->
<g id="node2" class="node">
<title>:core:common</title>
<ellipse fill="none" stroke="black" cx="114.64" cy="-90" rx="75.29" ry="18"/>
<text text-anchor="middle" x="114.64" y="-86.3" font-family="Times,serif" font-size="14.00">:core:common</text>
</g>
<!-- :core:database&#45;&gt;:core:common -->
<g id="edge1" class="edge">
<title>:core:database&#45;&gt;:core:common</title>
<path fill="none" stroke="black" d="M81.78,-215.82C85.2,-197.8 91.05,-168.73 97.64,-144 99.94,-135.37 102.8,-126.06 105.51,-117.69"/>
<polygon fill="black" stroke="black" points="108.88,-118.65 108.69,-108.06 102.23,-116.45 108.88,-118.65"/>
</g>
<!-- :core:model -->
<g id="node3" class="node">
<title>:core:model</title>
<ellipse fill="none" stroke="black" cx="114.64" cy="-18" rx="64.99" ry="18"/>
<text text-anchor="middle" x="114.64" y="-14.3" font-family="Times,serif" font-size="14.00">:core:model</text>
</g>
<!-- :core:database&#45;&gt;:core:model -->
<g id="edge2" class="edge">
<title>:core:database&#45;&gt;:core:model</title>
<path fill="none" stroke="black" d="M65.38,-216.09C43.28,-185.71 3.88,-120.53 30.64,-72 38.85,-57.12 53.18,-45.84 67.72,-37.6"/>
<polygon fill="black" stroke="black" points="69.51,-40.61 76.73,-32.85 66.25,-34.41 69.51,-40.61"/>
</g>
<!-- :core:datastore -->
<g id="node4" class="node">
<title>:core:datastore</title>
<ellipse fill="none" stroke="black" cx="187.64" cy="-162" rx="81.49" ry="18"/>
<text text-anchor="middle" x="187.64" y="-158.3" font-family="Times,serif" font-size="14.00">:core:datastore</text>
</g>
<!-- :core:database&#45;&gt;:core:datastore -->
<g id="edge3" class="edge">
<title>:core:database&#45;&gt;:core:datastore</title>
<path fill="none" stroke="red" stroke-width="2" d="M103.92,-216.76C118.78,-207.22 137.75,-195.04 153.88,-184.68"/>
<polygon fill="red" stroke="red" stroke-width="2" points="155.98,-187.5 162.5,-179.15 152.19,-181.61 155.98,-187.5"/>
</g>
<!-- :core:common&#45;&gt;:core:model -->
<g id="edge4" class="edge">
<title>:core:common&#45;&gt;:core:model</title>
<path fill="none" stroke="red" stroke-width="2" d="M114.64,-71.7C114.64,-63.98 114.64,-54.71 114.64,-46.11"/>
<polygon fill="red" stroke="red" stroke-width="2" points="118.14,-46.1 114.64,-36.1 111.14,-46.1 118.14,-46.1"/>
</g>
<!-- :core:datastore&#45;&gt;:core:common -->
<g id="edge6" class="edge">
<title>:core:datastore&#45;&gt;:core:common</title>
<path fill="none" stroke="red" stroke-width="2" d="M170.34,-144.41C161.14,-135.58 149.65,-124.57 139.51,-114.84"/>
<polygon fill="red" stroke="red" stroke-width="2" points="141.71,-112.11 132.07,-107.71 136.87,-117.16 141.71,-112.11"/>
</g>
<!-- :core:datastore&#45;&gt;:core:model -->
<g id="edge5" class="edge">
<title>:core:datastore&#45;&gt;:core:model</title>
<path fill="none" stroke="black" d="M195.53,-143.78C202.89,-124.96 211.05,-94.5 198.64,-72 190.44,-57.12 176.1,-45.84 161.57,-37.6"/>
<polygon fill="black" stroke="black" points="163.03,-34.41 152.55,-32.85 159.77,-40.61 163.03,-34.41"/>
</g>
</g>
</svg>
