<?xml version="1.0" encoding="UTF-8" standalone="no"?>
<!DOCTYPE svg PUBLIC "-//W3C//DTD SVG 1.1//EN"
 "http://www.w3.org/Graphics/SVG/1.1/DTD/svg11.dtd">
<!-- Generated by graphviz version 2.43.0 (0)
 -->
<!-- Title: G Pages: 1 -->
<svg width="327pt" height="476pt"
 viewBox="0.00 0.00 327.48 476.00" xmlns="http://www.w3.org/2000/svg" xmlns:xlink="http://www.w3.org/1999/xlink">
<g id="graph0" class="graph" transform="scale(1 1) rotate(0) translate(4 472)">
<title>G</title>
<polygon fill="white" stroke="transparent" points="-4,4 -4,-472 323.48,-472 323.48,4 -4,4"/>
<!-- :core:domain -->
<g id="node1" class="node">
<title>:core:domain</title>
<ellipse fill="none" stroke="black" cx="70.84" cy="-450" rx="70.69" ry="18"/>
<text text-anchor="middle" x="70.84" y="-446.3" font-family="Times,serif" font-size="14.00">:core:domain</text>
</g>
<!-- :core:data -->
<g id="node2" class="node">
<title>:core:data</title>
<ellipse fill="none" stroke="black" cx="141.84" cy="-378" rx="57.39" ry="18"/>
<text text-anchor="middle" x="141.84" y="-374.3" font-family="Times,serif" font-size="14.00">:core:data</text>
</g>
<!-- :core:domain&#45;&gt;:core:data -->
<g id="edge1" class="edge">
<title>:core:domain&#45;&gt;:core:data</title>
<path fill="none" stroke="red" stroke-width="2" d="M87.67,-432.41C96.69,-423.52 107.96,-412.41 117.88,-402.63"/>
<polygon fill="red" stroke="red" stroke-width="2" points="120.47,-404.98 125.14,-395.47 115.56,-400 120.47,-404.98"/>
</g>
<!-- :core:model -->
<g id="node3" class="node">
<title>:core:model</title>
<ellipse fill="none" stroke="black" cx="168.84" cy="-18" rx="64.99" ry="18"/>
<text text-anchor="middle" x="168.84" y="-14.3" font-family="Times,serif" font-size="14.00">:core:model</text>
</g>
<!-- :core:domain&#45;&gt;:core:model -->
<g id="edge2" class="edge">
<title>:core:domain&#45;&gt;:core:model</title>
<path fill="none" stroke="black" d="M56,-431.97C35.45,-406.58 0.84,-356.47 0.84,-307 0.84,-307 0.84,-307 0.84,-161 0.84,-119.26 1.95,-102.12 30.84,-72 50.54,-51.47 79.05,-38.78 105.05,-31"/>
<polygon fill="black" stroke="black" points="106.18,-34.31 114.86,-28.24 104.29,-27.57 106.18,-34.31"/>
</g>
<!-- :core:common -->
<g id="node4" class="node">
<title>:core:common</title>
<ellipse fill="none" stroke="black" cx="114.84" cy="-90" rx="75.29" ry="18"/>
<text text-anchor="middle" x="114.84" y="-86.3" font-family="Times,serif" font-size="14.00">:core:common</text>
</g>
<!-- :core:data&#45;&gt;:core:common -->
<g id="edge3" class="edge">
<title>:core:data&#45;&gt;:core:common</title>
<path fill="none" stroke="black" d="M105.68,-363.99C87.88,-355.53 68.09,-342.57 57.84,-324 19.84,-255.08 69.01,-160.94 97.36,-116.38"/>
<polygon fill="black" stroke="black" points="100.35,-118.18 102.88,-107.9 94.49,-114.36 100.35,-118.18"/>
</g>
<!-- :core:datastore -->
<g id="node5" class="node">
<title>:core:datastore</title>
<ellipse fill="none" stroke="black" cx="223.84" cy="-162" rx="81.49" ry="18"/>
<text text-anchor="middle" x="223.84" y="-158.3" font-family="Times,serif" font-size="14.00">:core:datastore</text>
</g>
<!-- :core:data&#45;&gt;:core:datastore -->
<g id="edge4" class="edge">
<title>:core:data&#45;&gt;:core:datastore</title>
<path fill="none" stroke="black" d="M178.27,-363.88C220.88,-346.16 288.56,-309.96 311.84,-252 317.81,-237.15 319.72,-229.93 311.84,-216 303.56,-201.34 289.42,-190.29 274.87,-182.17"/>
<polygon fill="black" stroke="black" points="276.29,-178.97 265.8,-177.49 273.08,-185.19 276.29,-178.97"/>
</g>
<!-- :core:network -->
<g id="node6" class="node">
<title>:core:network</title>
<ellipse fill="none" stroke="black" cx="141.84" cy="-306" rx="74.99" ry="18"/>
<text text-anchor="middle" x="141.84" y="-302.3" font-family="Times,serif" font-size="14.00">:core:network</text>
</g>
<!-- :core:data&#45;&gt;:core:network -->
<g id="edge5" class="edge">
<title>:core:data&#45;&gt;:core:network</title>
<path fill="none" stroke="red" stroke-width="2" d="M141.84,-359.7C141.84,-351.98 141.84,-342.71 141.84,-334.11"/>
<polygon fill="red" stroke="red" stroke-width="2" points="145.34,-334.1 141.84,-324.1 138.34,-334.1 145.34,-334.1"/>
</g>
<!-- :core:database -->
<g id="node7" class="node">
<title>:core:database</title>
<ellipse fill="none" stroke="black" cx="223.84" cy="-234" rx="78.79" ry="18"/>
<text text-anchor="middle" x="223.84" y="-230.3" font-family="Times,serif" font-size="14.00">:core:database</text>
</g>
<!-- :core:data&#45;&gt;:core:database -->
<g id="edge6" class="edge">
<title>:core:data&#45;&gt;:core:database</title>
<path fill="none" stroke="black" d="M178.01,-363.99C195.81,-355.53 215.6,-342.57 225.84,-324 236.19,-305.25 234.75,-280.72 231.25,-262.16"/>
<polygon fill="black" stroke="black" points="234.64,-261.3 229.09,-252.28 227.8,-262.79 234.64,-261.3"/>
</g>
<!-- :core:common&#45;&gt;:core:model -->
<g id="edge7" class="edge">
<title>:core:common&#45;&gt;:core:model</title>
<path fill="none" stroke="red" stroke-width="2" d="M127.92,-72.05C134.42,-63.63 142.4,-53.28 149.58,-43.97"/>
<polygon fill="red" stroke="red" stroke-width="2" points="152.56,-45.84 155.89,-35.79 147.01,-41.57 152.56,-45.84"/>
</g>
<!-- :core:datastore&#45;&gt;:core:model -->
<g id="edge8" class="edge">
<title>:core:datastore&#45;&gt;:core:model</title>
<path fill="none" stroke="black" d="M220.32,-143.86C216.28,-125.63 208.9,-96.15 198.84,-72 195.02,-62.82 189.96,-53.24 185.09,-44.79"/>
<polygon fill="black" stroke="black" points="188.06,-42.94 179.94,-36.13 182.05,-46.51 188.06,-42.94"/>
</g>
<!-- :core:datastore&#45;&gt;:core:common -->
<g id="edge9" class="edge">
<title>:core:datastore&#45;&gt;:core:common</title>
<path fill="none" stroke="red" stroke-width="2" d="M198.56,-144.76C183.71,-135.22 164.73,-123.04 148.61,-112.68"/>
<polygon fill="red" stroke="red" stroke-width="2" points="150.29,-109.61 139.99,-107.15 146.51,-115.5 150.29,-109.61"/>
</g>
<!-- :core:network&#45;&gt;:core:common -->
<g id="edge12" class="edge">
<title>:core:network&#45;&gt;:core:common</title>
<path fill="none" stroke="black" d="M135.11,-288.07C131.27,-277.79 126.67,-264.31 123.84,-252 113.25,-205.92 112.72,-150.56 113.58,-118.22"/>
<polygon fill="black" stroke="black" points="117.08,-118.3 113.92,-108.19 110.09,-118.06 117.08,-118.3"/>
</g>
<!-- :core:network&#45;&gt;:core:datastore -->
<g id="edge11" class="edge">
<title>:core:network&#45;&gt;:core:datastore</title>
<path fill="none" stroke="black" d="M135.45,-288.03C129.47,-269.16 123.2,-238.38 135.84,-216 144.13,-201.34 158.27,-190.29 172.82,-182.17"/>
<polygon fill="black" stroke="black" points="174.61,-185.19 181.89,-177.49 171.4,-178.97 174.61,-185.19"/>
</g>
<!-- :core:network&#45;&gt;:core:database -->
<g id="edge10" class="edge">
<title>:core:network&#45;&gt;:core:database</title>
<path fill="none" stroke="red" stroke-width="2" d="M161.28,-288.41C171.9,-279.34 185.22,-267.97 196.83,-258.06"/>
<polygon fill="red" stroke="red" stroke-width="2" points="199.22,-260.62 204.55,-251.47 194.67,-255.3 199.22,-260.62"/>
</g>
<!-- :core:database&#45;&gt;:core:model -->
<g id="edge14" class="edge">
<title>:core:database&#45;&gt;:core:model</title>
<path fill="none" stroke="black" d="M266.73,-218.73C284.62,-210.42 303.59,-197.95 313.84,-180 321.78,-166.11 320.51,-158.55 313.84,-144 292.11,-96.57 242.51,-60.31 207.39,-39.35"/>
<polygon fill="black" stroke="black" points="208.76,-36.1 198.35,-34.1 205.24,-42.15 208.76,-36.1"/>
</g>
<!-- :core:database&#45;&gt;:core:common -->
<g id="edge13" class="edge">
<title>:core:database&#45;&gt;:core:common</title>
<path fill="none" stroke="black" d="M184.03,-218.32C166.11,-209.76 146.25,-197.21 133.84,-180 120.89,-162.02 116.43,-137.03 115.04,-118.1"/>
<polygon fill="black" stroke="black" points="118.53,-117.85 114.54,-108.03 111.54,-118.19 118.53,-117.85"/>
</g>
<!-- :core:database&#45;&gt;:core:datastore -->
<g id="edge15" class="edge">
<title>:core:database&#45;&gt;:core:datastore</title>
<path fill="none" stroke="red" stroke-width="2" d="M223.84,-215.7C223.84,-207.98 223.84,-198.71 223.84,-190.11"/>
<polygon fill="red" stroke="red" stroke-width="2" points="227.34,-190.1 223.84,-180.1 220.34,-190.1 227.34,-190.1"/>
</g>
</g>
</svg>
